<svg width="129" height="190" viewBox="0 0 129 190" fill="none" xmlns="http://www.w3.org/2000/svg">
<mask id="path-1-outside-1_2859_2274" maskUnits="userSpaceOnUse" x="-8.44344" y="-4.90881" width="141.95" height="198.923" fill="black">
<rect fill="white" x="-8.44344" y="-4.90881" width="141.95" height="198.923"/>
<path d="M77.1268 45.1086C77.9303 45.253 77.9519 44.8816 78.3768 44.5153C82.8812 40.6357 86.8678 33.9914 91.3456 29.8297C91.9876 29.9397 92.9052 28.8222 93.3325 28.6761C93.753 28.5326 94.4137 28.709 94.8718 28.5774C95.0697 28.5206 95.1602 28.0815 95.3522 28.0335C96.9405 27.6384 98.0006 28.5276 99.4894 28.2815L104.675 32.8235C104.733 34.4433 105.684 35.62 105.483 37.3896C105.461 37.5815 105.049 37.7218 105.003 37.9335C104.93 38.2666 105.156 38.662 105.068 38.9556C104.926 39.4315 104.057 40.341 104.173 41.0655L85.0249 63.8438C85.837 64.1979 85.4483 64.9548 85.6362 65.3441C86.9669 68.1013 88.071 70.6272 89.2389 73.323C89.3663 73.6172 90.052 73.709 89.8339 74.5677C90.5559 74.1659 91.2824 73.3097 91.7718 72.6475C94.8901 68.4239 98.9156 63.7036 102.274 59.66C103.886 57.7186 106.707 54.3391 108.824 53.3396C109.094 53.2115 109.523 53.3889 109.85 53.2738C110.055 53.2016 110.142 52.776 110.33 52.7299C111.025 52.5597 113.774 52.3654 114.435 52.4668C114.625 52.4962 114.757 52.8725 114.98 52.945C116.723 53.5093 118.3 54.0412 119.522 55.4763C119.457 56.1549 120.449 56.9397 120.679 57.4546C120.804 57.7341 120.63 58.1546 120.744 58.4768C120.817 58.6808 121.244 58.7673 121.29 58.955C121.443 59.5775 121.559 61.3842 121.487 62.0212C121.465 62.2126 121.053 62.353 121.006 62.5651C120.934 62.8982 121.159 63.2937 121.072 63.5873C121.011 63.7903 120.674 63.913 120.591 64.1312C119.567 66.8531 118.488 67.356 116.815 69.5047C113.73 73.4642 110.029 78.1201 106.793 81.9483C103.829 85.4556 100.651 88.7914 97.6666 92.2825L97.7321 93.3046C98.5364 93.6698 98.1605 94.3513 98.3435 94.8048C98.5233 95.2505 99.3091 96.3287 99.5007 96.7832C106.728 113.92 114.127 129.669 121.727 146.157C122.282 147.36 123.783 149.435 124.074 150.625C124.47 152.241 124.114 154.526 124.435 156.246C124.096 157.083 123.431 157.726 123.026 158.389C122.95 158.514 123.13 158.79 123.059 158.9C122.767 159.348 121.774 160.504 121.378 160.804C121.272 160.883 120.995 160.748 120.865 160.837C120.529 161.064 119.609 161.883 119.391 161.957C118.968 162.102 118.301 161.92 117.852 162.056C117.504 162.162 117.121 162.913 115.832 162.699C115.629 162.665 115.49 162.255 115.286 162.22C114.823 162.142 114.186 162.409 113.747 162.319C113.547 162.279 113.418 161.904 113.201 161.841C111.589 161.372 110.296 160.585 109.172 159.277C108.216 158.164 107.952 156.903 107.404 155.798C100.127 141.127 93.1875 126.319 86.5309 111.468C86.1667 110.656 85.6329 109.683 85.3409 108.979C85.186 108.606 85.5654 107.738 85.0024 107.718L68.9768 126.96C69.7776 127.329 69.4077 127.987 69.5882 128.461C74.7641 142.04 81.1849 155.378 86.6072 168.932C87.0844 170.125 88.2678 172.728 88.4412 173.432C88.6364 174.226 88.8853 177.792 88.7687 178.542C88.7392 178.732 88.3612 178.863 88.2884 179.086C88.1614 179.475 88.0217 180.338 87.8735 180.652C87.7018 181.017 87.0881 181.373 86.9128 181.74C86.7931 181.991 87.0516 182.405 86.9619 182.507C86.8722 182.608 86.4263 182.406 86.1922 182.556C85.7307 182.852 85.0918 184.067 84.7512 184.188C84.4361 184.3 84.0237 184.137 83.7249 184.254C83.5163 184.335 83.4303 184.752 83.2446 184.798C82.4479 184.992 78.8669 185.242 78.1139 185.126C77.9239 185.097 77.7919 184.721 77.5681 184.648C77.2155 184.534 76.2184 184.363 75.996 184.236C75.495 183.95 73.3438 182.065 72.9937 181.606C72.3904 180.815 72.1203 179.369 71.771 178.605C66.4472 166.964 62.217 155.357 57.197 144.135C56.8645 143.392 56.4435 142.735 56.5365 141.868C55.733 141.724 55.7113 142.095 55.2864 142.461C51.51 145.715 47.4254 151.381 44.5115 155.21C43.8243 156.113 43.1611 157.181 42.6228 157.897C42.1086 158.58 41.0784 159.834 40.4612 160.344C40.3597 160.428 40.0652 160.286 39.9481 160.377C39.6136 160.637 39.2225 161.381 38.9874 161.465C38.6723 161.577 38.2604 161.414 37.9611 161.531C37.7526 161.612 37.667 162.029 37.4808 162.075C36.6841 162.27 33.1032 162.519 32.3502 162.404C32.1601 162.374 32.0281 161.998 31.8043 161.926C31.4517 161.811 30.4546 161.64 30.2322 161.513C29.866 161.304 27.2975 159.071 27.2299 158.883C27.1109 158.552 27.3001 158.11 27.1644 157.861C26.9955 157.553 26.0916 156.575 26.0399 156.394C25.8545 155.743 25.6965 153.02 25.7779 152.305C25.7998 152.113 26.2125 151.973 26.2583 151.761C26.3312 151.424 26.0998 151.023 26.1928 150.739C26.91 148.547 29.0498 146.642 30.45 144.822C30.5294 144.719 30.3397 144.411 30.4173 144.311C35.9708 137.205 42.9759 130.7 48.67 123.643L47.9931 121.121C46.4941 119.012 45.6652 116.396 44.9691 114.131L43.5389 111.913L33.692 123.064C29.6402 128.168 25.3413 133.685 21.3013 138.738C20.2162 140.095 19.344 140.813 18.1462 141.762C17.6762 142.135 16.761 143.266 16.192 143.427C15.5972 143.595 14.7266 143.387 14.1395 143.559C13.936 143.618 13.8339 144.278 13.146 144.135C12.937 144.092 12.7994 143.689 12.6002 143.657C11.9955 143.562 11.155 143.882 10.5477 143.789C10.3577 143.759 10.2256 143.383 10.0019 143.311C9.64927 143.196 8.6522 143.025 8.42975 142.898C7.44228 142.334 6.44055 140.94 5.42748 140.268C4.51137 138.383 3.92527 136.585 4.00827 134.202C4.76499 133.742 4.29152 133.076 4.42312 132.636C4.94019 130.905 6.21086 129.792 7.23925 128.35C13.3506 119.791 21.3721 110.546 28.2427 102.375C30.8861 99.2303 33.7441 96.2568 36.4083 93.1285L35.7314 90.6061C31.2717 80.612 28.3602 70.285 24.5309 60.5368C23.6463 58.2849 21.8349 56.7822 21.0592 54.6021C20.5748 53.2406 20.5576 51.4457 20.2513 50.0355C20.2097 49.8449 19.7364 49.7411 19.7054 49.5573C19.5237 48.482 19.2969 45.9601 19.4107 44.9579C19.4277 44.8072 20.2351 44.171 19.8255 43.3919C20.1647 42.5546 20.828 41.9127 21.2338 41.249C21.3113 41.1227 21.1304 40.8447 21.2011 40.738C22.2272 39.194 23.9922 38.8466 25.3824 37.6477C26.6733 37.7161 28.2685 37.2476 29.4868 37.3846C29.6381 37.4015 30.2764 38.2054 31.0589 37.797C31.7806 38.4832 33.9503 39.0724 34.5415 39.883C34.8908 40.362 35.3713 40.9136 35.666 41.3504C37.0827 43.4495 37.8394 46.0988 38.6901 48.3401C42.2164 57.6366 45.4004 66.7639 48.7335 76.431L49.585 77.6594L64.6827 60.0156C63.8819 59.6469 64.2518 58.9886 64.0713 58.5152C63.1737 56.1598 61.9962 53.5152 61.0145 51.0145C57.488 42.0326 53.3294 32.1842 50.9711 22.9235C50.3461 20.4692 49.4736 14.8352 49.7702 12.2249C49.7922 12.0335 50.2043 11.8932 50.2506 11.681C50.3817 11.0828 50.3325 10.2747 50.6327 9.60395C51.3647 9.2334 51.4254 8.21334 51.5607 8.00506C52.753 6.16883 54.5481 5.65029 56.2218 4.37088C57.7657 4.49231 59.9377 3.82452 61.3524 4.04206C61.5424 4.0714 61.6745 4.44779 61.8983 4.52022C62.2509 4.63442 63.2485 4.80576 63.4704 4.9326C63.9098 5.18338 66.2163 7.18981 66.4727 7.5625C66.5463 7.66903 66.4224 7.9213 66.5054 8.07354C66.6168 8.27773 66.9586 8.35696 67.0513 8.5517C67.1797 8.82133 67.0008 9.24905 67.1168 9.57378C67.1898 9.77831 67.6164 9.86434 67.6626 10.0519C67.886 10.9596 67.9558 13.1254 67.9246 14.1398C67.861 16.2236 67.5969 15.8232 68.1867 18.2282C70.198 26.4283 73.184 33.8075 75.8828 41.8513L77.1268 45.1086ZM72.5529 78.2416L56.6856 95.9347C56.4312 97.1519 57.186 97.5474 57.3297 97.946C58.3797 100.862 59.4912 103.527 60.452 106.469L61.8822 108.686L77.3947 89.4765L74.9493 83.476C73.7352 82.4115 73.6656 80.6848 73.1479 79.4862C73.0211 79.1926 72.3343 79.0998 72.5529 78.2416Z"/>
</mask>
<path d="M77.1268 45.1086C77.9303 45.253 77.9519 44.8816 78.3768 44.5153C82.8812 40.6357 86.8678 33.9914 91.3456 29.8297C91.9876 29.9397 92.9052 28.8222 93.3325 28.6761C93.753 28.5326 94.4137 28.709 94.8718 28.5774C95.0697 28.5206 95.1602 28.0815 95.3522 28.0335C96.9405 27.6384 98.0006 28.5276 99.4894 28.2815L104.675 32.8235C104.733 34.4433 105.684 35.62 105.483 37.3896C105.461 37.5815 105.049 37.7218 105.003 37.9335C104.93 38.2666 105.156 38.662 105.068 38.9556C104.926 39.4315 104.057 40.341 104.173 41.0655L85.0249 63.8438C85.837 64.1979 85.4483 64.9548 85.6362 65.3441C86.9669 68.1013 88.071 70.6272 89.2389 73.323C89.3663 73.6172 90.052 73.709 89.8339 74.5677C90.5559 74.1659 91.2824 73.3097 91.7718 72.6475C94.8901 68.4239 98.9156 63.7036 102.274 59.66C103.886 57.7186 106.707 54.3391 108.824 53.3396C109.094 53.2115 109.523 53.3889 109.85 53.2738C110.055 53.2016 110.142 52.776 110.33 52.7299C111.025 52.5597 113.774 52.3654 114.435 52.4668C114.625 52.4962 114.757 52.8725 114.98 52.945C116.723 53.5093 118.3 54.0412 119.522 55.4763C119.457 56.1549 120.449 56.9397 120.679 57.4546C120.804 57.7341 120.63 58.1546 120.744 58.4768C120.817 58.6808 121.244 58.7673 121.29 58.955C121.443 59.5775 121.559 61.3842 121.487 62.0212C121.465 62.2126 121.053 62.353 121.006 62.5651C120.934 62.8982 121.159 63.2937 121.072 63.5873C121.011 63.7903 120.674 63.913 120.591 64.1312C119.567 66.8531 118.488 67.356 116.815 69.5047C113.73 73.4642 110.029 78.1201 106.793 81.9483C103.829 85.4556 100.651 88.7914 97.6666 92.2825L97.7321 93.3046C98.5364 93.6698 98.1605 94.3513 98.3435 94.8048C98.5233 95.2505 99.3091 96.3287 99.5007 96.7832C106.728 113.92 114.127 129.669 121.727 146.157C122.282 147.36 123.783 149.435 124.074 150.625C124.47 152.241 124.114 154.526 124.435 156.246C124.096 157.083 123.431 157.726 123.026 158.389C122.95 158.514 123.13 158.79 123.059 158.9C122.767 159.348 121.774 160.504 121.378 160.804C121.272 160.883 120.995 160.748 120.865 160.837C120.529 161.064 119.609 161.883 119.391 161.957C118.968 162.102 118.301 161.92 117.852 162.056C117.504 162.162 117.121 162.913 115.832 162.699C115.629 162.665 115.49 162.255 115.286 162.22C114.823 162.142 114.186 162.409 113.747 162.319C113.547 162.279 113.418 161.904 113.201 161.841C111.589 161.372 110.296 160.585 109.172 159.277C108.216 158.164 107.952 156.903 107.404 155.798C100.127 141.127 93.1875 126.319 86.5309 111.468C86.1667 110.656 85.6329 109.683 85.3409 108.979C85.186 108.606 85.5654 107.738 85.0024 107.718L68.9768 126.96C69.7776 127.329 69.4077 127.987 69.5882 128.461C74.7641 142.04 81.1849 155.378 86.6072 168.932C87.0844 170.125 88.2678 172.728 88.4412 173.432C88.6364 174.226 88.8853 177.792 88.7687 178.542C88.7392 178.732 88.3612 178.863 88.2884 179.086C88.1614 179.475 88.0217 180.338 87.8735 180.652C87.7018 181.017 87.0881 181.373 86.9128 181.74C86.7931 181.991 87.0516 182.405 86.9619 182.507C86.8722 182.608 86.4263 182.406 86.1922 182.556C85.7307 182.852 85.0918 184.067 84.7512 184.188C84.4361 184.3 84.0237 184.137 83.7249 184.254C83.5163 184.335 83.4303 184.752 83.2446 184.798C82.4479 184.992 78.8669 185.242 78.1139 185.126C77.9239 185.097 77.7919 184.721 77.5681 184.648C77.2155 184.534 76.2184 184.363 75.996 184.236C75.495 183.95 73.3438 182.065 72.9937 181.606C72.3904 180.815 72.1203 179.369 71.771 178.605C66.4472 166.964 62.217 155.357 57.197 144.135C56.8645 143.392 56.4435 142.735 56.5365 141.868C55.733 141.724 55.7113 142.095 55.2864 142.461C51.51 145.715 47.4254 151.381 44.5115 155.21C43.8243 156.113 43.1611 157.181 42.6228 157.897C42.1086 158.58 41.0784 159.834 40.4612 160.344C40.3597 160.428 40.0652 160.286 39.9481 160.377C39.6136 160.637 39.2225 161.381 38.9874 161.465C38.6723 161.577 38.2604 161.414 37.9611 161.531C37.7526 161.612 37.667 162.029 37.4808 162.075C36.6841 162.27 33.1032 162.519 32.3502 162.404C32.1601 162.374 32.0281 161.998 31.8043 161.926C31.4517 161.811 30.4546 161.64 30.2322 161.513C29.866 161.304 27.2975 159.071 27.2299 158.883C27.1109 158.552 27.3001 158.11 27.1644 157.861C26.9955 157.553 26.0916 156.575 26.0399 156.394C25.8545 155.743 25.6965 153.02 25.7779 152.305C25.7998 152.113 26.2125 151.973 26.2583 151.761C26.3312 151.424 26.0998 151.023 26.1928 150.739C26.91 148.547 29.0498 146.642 30.45 144.822C30.5294 144.719 30.3397 144.411 30.4173 144.311C35.9708 137.205 42.9759 130.7 48.67 123.643L47.9931 121.121C46.4941 119.012 45.6652 116.396 44.9691 114.131L43.5389 111.913L33.692 123.064C29.6402 128.168 25.3413 133.685 21.3013 138.738C20.2162 140.095 19.344 140.813 18.1462 141.762C17.6762 142.135 16.761 143.266 16.192 143.427C15.5972 143.595 14.7266 143.387 14.1395 143.559C13.936 143.618 13.8339 144.278 13.146 144.135C12.937 144.092 12.7994 143.689 12.6002 143.657C11.9955 143.562 11.155 143.882 10.5477 143.789C10.3577 143.759 10.2256 143.383 10.0019 143.311C9.64927 143.196 8.6522 143.025 8.42975 142.898C7.44228 142.334 6.44055 140.94 5.42748 140.268C4.51137 138.383 3.92527 136.585 4.00827 134.202C4.76499 133.742 4.29152 133.076 4.42312 132.636C4.94019 130.905 6.21086 129.792 7.23925 128.35C13.3506 119.791 21.3721 110.546 28.2427 102.375C30.8861 99.2303 33.7441 96.2568 36.4083 93.1285L35.7314 90.6061C31.2717 80.612 28.3602 70.285 24.5309 60.5368C23.6463 58.2849 21.8349 56.7822 21.0592 54.6021C20.5748 53.2406 20.5576 51.4457 20.2513 50.0355C20.2097 49.8449 19.7364 49.7411 19.7054 49.5573C19.5237 48.482 19.2969 45.9601 19.4107 44.9579C19.4277 44.8072 20.2351 44.171 19.8255 43.3919C20.1647 42.5546 20.828 41.9127 21.2338 41.249C21.3113 41.1227 21.1304 40.8447 21.2011 40.738C22.2272 39.194 23.9922 38.8466 25.3824 37.6477C26.6733 37.7161 28.2685 37.2476 29.4868 37.3846C29.6381 37.4015 30.2764 38.2054 31.0589 37.797C31.7806 38.4832 33.9503 39.0724 34.5415 39.883C34.8908 40.362 35.3713 40.9136 35.666 41.3504C37.0827 43.4495 37.8394 46.0988 38.6901 48.3401C42.2164 57.6366 45.4004 66.7639 48.7335 76.431L49.585 77.6594L64.6827 60.0156C63.8819 59.6469 64.2518 58.9886 64.0713 58.5152C63.1737 56.1598 61.9962 53.5152 61.0145 51.0145C57.488 42.0326 53.3294 32.1842 50.9711 22.9235C50.3461 20.4692 49.4736 14.8352 49.7702 12.2249C49.7922 12.0335 50.2043 11.8932 50.2506 11.681C50.3817 11.0828 50.3325 10.2747 50.6327 9.60395C51.3647 9.2334 51.4254 8.21334 51.5607 8.00506C52.753 6.16883 54.5481 5.65029 56.2218 4.37088C57.7657 4.49231 59.9377 3.82452 61.3524 4.04206C61.5424 4.0714 61.6745 4.44779 61.8983 4.52022C62.2509 4.63442 63.2485 4.80576 63.4704 4.9326C63.9098 5.18338 66.2163 7.18981 66.4727 7.5625C66.5463 7.66903 66.4224 7.9213 66.5054 8.07354C66.6168 8.27773 66.9586 8.35696 67.0513 8.5517C67.1797 8.82133 67.0008 9.24905 67.1168 9.57378C67.1898 9.77831 67.6164 9.86434 67.6626 10.0519C67.886 10.9596 67.9558 13.1254 67.9246 14.1398C67.861 16.2236 67.5969 15.8232 68.1867 18.2282C70.198 26.4283 73.184 33.8075 75.8828 41.8513L77.1268 45.1086ZM72.5529 78.2416L56.6856 95.9347C56.4312 97.1519 57.186 97.5474 57.3297 97.946C58.3797 100.862 59.4912 103.527 60.452 106.469L61.8822 108.686L77.3947 89.4765L74.9493 83.476C73.7352 82.4115 73.6656 80.6848 73.1479 79.4862C73.0211 79.1926 72.3343 79.0998 72.5529 78.2416Z" fill="#2E422C"/>
<path d="M77.1268 45.1086C77.9303 45.253 77.9519 44.8816 78.3768 44.5153C82.8812 40.6357 86.8678 33.9914 91.3456 29.8297C91.9876 29.9397 92.9052 28.8222 93.3325 28.6761C93.753 28.5326 94.4137 28.709 94.8718 28.5774C95.0697 28.5206 95.1602 28.0815 95.3522 28.0335C96.9405 27.6384 98.0006 28.5276 99.4894 28.2815L104.675 32.8235C104.733 34.4433 105.684 35.62 105.483 37.3896C105.461 37.5815 105.049 37.7218 105.003 37.9335C104.93 38.2666 105.156 38.662 105.068 38.9556C104.926 39.4315 104.057 40.341 104.173 41.0655L85.0249 63.8438C85.837 64.1979 85.4483 64.9548 85.6362 65.3441C86.9669 68.1013 88.071 70.6272 89.2389 73.323C89.3663 73.6172 90.052 73.709 89.8339 74.5677C90.5559 74.1659 91.2824 73.3097 91.7718 72.6475C94.8901 68.4239 98.9156 63.7036 102.274 59.66C103.886 57.7186 106.707 54.3391 108.824 53.3396C109.094 53.2115 109.523 53.3889 109.85 53.2738C110.055 53.2016 110.142 52.776 110.33 52.7299C111.025 52.5597 113.774 52.3654 114.435 52.4668C114.625 52.4962 114.757 52.8725 114.98 52.945C116.723 53.5093 118.3 54.0412 119.522 55.4763C119.457 56.1549 120.449 56.9397 120.679 57.4546C120.804 57.7341 120.63 58.1546 120.744 58.4768C120.817 58.6808 121.244 58.7673 121.29 58.955C121.443 59.5775 121.559 61.3842 121.487 62.0212C121.465 62.2126 121.053 62.353 121.006 62.5651C120.934 62.8982 121.159 63.2937 121.072 63.5873C121.011 63.7903 120.674 63.913 120.591 64.1312C119.567 66.8531 118.488 67.356 116.815 69.5047C113.73 73.4642 110.029 78.1201 106.793 81.9483C103.829 85.4556 100.651 88.7914 97.6666 92.2825L97.7321 93.3046C98.5364 93.6698 98.1605 94.3513 98.3435 94.8048C98.5233 95.2505 99.3091 96.3287 99.5007 96.7832C106.728 113.92 114.127 129.669 121.727 146.157C122.282 147.36 123.783 149.435 124.074 150.625C124.47 152.241 124.114 154.526 124.435 156.246C124.096 157.083 123.431 157.726 123.026 158.389C122.95 158.514 123.13 158.79 123.059 158.9C122.767 159.348 121.774 160.504 121.378 160.804C121.272 160.883 120.995 160.748 120.865 160.837C120.529 161.064 119.609 161.883 119.391 161.957C118.968 162.102 118.301 161.92 117.852 162.056C117.504 162.162 117.121 162.913 115.832 162.699C115.629 162.665 115.49 162.255 115.286 162.22C114.823 162.142 114.186 162.409 113.747 162.319C113.547 162.279 113.418 161.904 113.201 161.841C111.589 161.372 110.296 160.585 109.172 159.277C108.216 158.164 107.952 156.903 107.404 155.798C100.127 141.127 93.1875 126.319 86.5309 111.468C86.1667 110.656 85.6329 109.683 85.3409 108.979C85.186 108.606 85.5654 107.738 85.0024 107.718L68.9768 126.96C69.7776 127.329 69.4077 127.987 69.5882 128.461C74.7641 142.04 81.1849 155.378 86.6072 168.932C87.0844 170.125 88.2678 172.728 88.4412 173.432C88.6364 174.226 88.8853 177.792 88.7687 178.542C88.7392 178.732 88.3612 178.863 88.2884 179.086C88.1614 179.475 88.0217 180.338 87.8735 180.652C87.7018 181.017 87.0881 181.373 86.9128 181.74C86.7931 181.991 87.0516 182.405 86.9619 182.507C86.8722 182.608 86.4263 182.406 86.1922 182.556C85.7307 182.852 85.0918 184.067 84.7512 184.188C84.4361 184.3 84.0237 184.137 83.7249 184.254C83.5163 184.335 83.4303 184.752 83.2446 184.798C82.4479 184.992 78.8669 185.242 78.1139 185.126C77.9239 185.097 77.7919 184.721 77.5681 184.648C77.2155 184.534 76.2184 184.363 75.996 184.236C75.495 183.95 73.3438 182.065 72.9937 181.606C72.3904 180.815 72.1203 179.369 71.771 178.605C66.4472 166.964 62.217 155.357 57.197 144.135C56.8645 143.392 56.4435 142.735 56.5365 141.868C55.733 141.724 55.7113 142.095 55.2864 142.461C51.51 145.715 47.4254 151.381 44.5115 155.21C43.8243 156.113 43.1611 157.181 42.6228 157.897C42.1086 158.58 41.0784 159.834 40.4612 160.344C40.3597 160.428 40.0652 160.286 39.9481 160.377C39.6136 160.637 39.2225 161.381 38.9874 161.465C38.6723 161.577 38.2604 161.414 37.9611 161.531C37.7526 161.612 37.667 162.029 37.4808 162.075C36.6841 162.27 33.1032 162.519 32.3502 162.404C32.1601 162.374 32.0281 161.998 31.8043 161.926C31.4517 161.811 30.4546 161.64 30.2322 161.513C29.866 161.304 27.2975 159.071 27.2299 158.883C27.1109 158.552 27.3001 158.11 27.1644 157.861C26.9955 157.553 26.0916 156.575 26.0399 156.394C25.8545 155.743 25.6965 153.02 25.7779 152.305C25.7998 152.113 26.2125 151.973 26.2583 151.761C26.3312 151.424 26.0998 151.023 26.1928 150.739C26.91 148.547 29.0498 146.642 30.45 144.822C30.5294 144.719 30.3397 144.411 30.4173 144.311C35.9708 137.205 42.9759 130.7 48.67 123.643L47.9931 121.121C46.4941 119.012 45.6652 116.396 44.9691 114.131L43.5389 111.913L33.692 123.064C29.6402 128.168 25.3413 133.685 21.3013 138.738C20.2162 140.095 19.344 140.813 18.1462 141.762C17.6762 142.135 16.761 143.266 16.192 143.427C15.5972 143.595 14.7266 143.387 14.1395 143.559C13.936 143.618 13.8339 144.278 13.146 144.135C12.937 144.092 12.7994 143.689 12.6002 143.657C11.9955 143.562 11.155 143.882 10.5477 143.789C10.3577 143.759 10.2256 143.383 10.0019 143.311C9.64927 143.196 8.6522 143.025 8.42975 142.898C7.44228 142.334 6.44055 140.94 5.42748 140.268C4.51137 138.383 3.92527 136.585 4.00827 134.202C4.76499 133.742 4.29152 133.076 4.42312 132.636C4.94019 130.905 6.21086 129.792 7.23925 128.35C13.3506 119.791 21.3721 110.546 28.2427 102.375C30.8861 99.2303 33.7441 96.2568 36.4083 93.1285L35.7314 90.6061C31.2717 80.612 28.3602 70.285 24.5309 60.5368C23.6463 58.2849 21.8349 56.7822 21.0592 54.6021C20.5748 53.2406 20.5576 51.4457 20.2513 50.0355C20.2097 49.8449 19.7364 49.7411 19.7054 49.5573C19.5237 48.482 19.2969 45.9601 19.4107 44.9579C19.4277 44.8072 20.2351 44.171 19.8255 43.3919C20.1647 42.5546 20.828 41.9127 21.2338 41.249C21.3113 41.1227 21.1304 40.8447 21.2011 40.738C22.2272 39.194 23.9922 38.8466 25.3824 37.6477C26.6733 37.7161 28.2685 37.2476 29.4868 37.3846C29.6381 37.4015 30.2764 38.2054 31.0589 37.797C31.7806 38.4832 33.9503 39.0724 34.5415 39.883C34.8908 40.362 35.3713 40.9136 35.666 41.3504C37.0827 43.4495 37.8394 46.0988 38.6901 48.3401C42.2164 57.6366 45.4004 66.7639 48.7335 76.431L49.585 77.6594L64.6827 60.0156C63.8819 59.6469 64.2518 58.9886 64.0713 58.5152C63.1737 56.1598 61.9962 53.5152 61.0145 51.0145C57.488 42.0326 53.3294 32.1842 50.9711 22.9235C50.3461 20.4692 49.4736 14.8352 49.7702 12.2249C49.7922 12.0335 50.2043 11.8932 50.2506 11.681C50.3817 11.0828 50.3325 10.2747 50.6327 9.60395C51.3647 9.2334 51.4254 8.21334 51.5607 8.00506C52.753 6.16883 54.5481 5.65029 56.2218 4.37088C57.7657 4.49231 59.9377 3.82452 61.3524 4.04206C61.5424 4.0714 61.6745 4.44779 61.8983 4.52022C62.2509 4.63442 63.2485 4.80576 63.4704 4.9326C63.9098 5.18338 66.2163 7.18981 66.4727 7.5625C66.5463 7.66903 66.4224 7.9213 66.5054 8.07354C66.6168 8.27773 66.9586 8.35696 67.0513 8.5517C67.1797 8.82133 67.0008 9.24905 67.1168 9.57378C67.1898 9.77831 67.6164 9.86434 67.6626 10.0519C67.886 10.9596 67.9558 13.1254 67.9246 14.1398C67.861 16.2236 67.5969 15.8232 68.1867 18.2282C70.198 26.4283 73.184 33.8075 75.8828 41.8513L77.1268 45.1086ZM72.5529 78.2416L56.6856 95.9347C56.4312 97.1519 57.186 97.5474 57.3297 97.946C58.3797 100.862 59.4912 103.527 60.452 106.469L61.8822 108.686L77.3947 89.4765L74.9493 83.476C73.7352 82.4115 73.6656 80.6848 73.1479 79.4862C73.0211 79.1926 72.3343 79.0998 72.5529 78.2416Z" stroke="#FFFDF4" stroke-width="8" mask="url(#path-1-outside-1_2859_2274)"/>
</svg>
