<svg width="195" height="260" viewBox="0 0 195 260" fill="none" xmlns="http://www.w3.org/2000/svg">
<path d="M38.489 252.422C52.2987 255.215 66.1581 260.314 80.4467 258.895C82.7795 258.664 84.7174 256.855 84.6209 254.387C84.0927 240.907 77.0819 228.902 75.91 215.576C75.4228 210.033 66.7362 210.319 67.2282 215.91C68.0364 225.105 71.6199 233.706 73.9407 242.547C53.9084 230.601 31.2546 211.898 33.2235 186.342C42.9646 193.093 55.3036 199.055 67.3367 197.135C78.772 195.31 88.2803 185.477 87.4827 173.524C86.6852 161.575 76.5802 152.014 64.9823 150.297C53.2269 148.557 40.874 154 33.3156 163.003C31.2333 165.484 29.5607 168.183 28.255 171.028C13.6108 156.25 6.43547 135.14 9.19163 114.144C11.7706 94.4999 22.4402 76.5644 39.187 66.4001C39.3791 81.9647 45.3639 97.4209 57.4626 107.45C68.0613 116.236 83.0516 120.723 96.4693 116.313C108.995 112.196 118.836 100.621 118.992 87.1699C119.148 73.7353 109.365 62.2554 98.2484 55.8812C86.3252 49.0441 71.8723 47.6507 58.5075 50.0304C55.4199 50.5808 52.4168 51.3451 49.4982 52.2868C50.1423 49.7985 50.9685 47.374 51.9806 45.0521C63.0933 19.5669 92.82 7.11111 119.32 8.78309C146.319 10.4869 171.687 25.9905 186.028 48.7939C189.006 53.531 196.392 48.9593 193.411 44.2181C177.999 19.7108 151.336 3.17673 122.495 0.388881C93.4591 -2.41789 61.6352 10.0203 46.7523 36.1314C43.2647 42.2498 40.974 49.1189 39.8973 56.2121C20.8599 65.7404 6.91854 83.7804 2.01152 105.114C-4.33332 132.697 4.57054 161.482 25.3685 180.161C24.1809 186.429 24.3835 193.012 25.6863 199.322C28.7633 214.223 38.2992 226.819 49.8001 236.403C56.0036 241.573 62.7717 246.015 69.7091 250.132C59.8431 249.139 50.1429 245.92 40.4745 243.965C35.0056 242.86 32.9967 251.311 38.489 252.422ZM50.7571 160.696C59.5795 156.975 70.6281 158.288 76.2725 166.714C81.9441 175.181 77.3714 185.594 67.7434 188.217C57.7205 190.948 46.6054 184.891 38.5486 179.521C37.39 178.749 36.2662 177.937 35.1679 177.1C37.8808 169.795 43.2863 163.846 50.7571 160.696ZM47.9449 62.0334C48.0135 62.0062 48.0807 61.9758 48.1493 61.9486C68.0088 54.1353 98.5352 56.0671 108.441 78.4787C113.077 88.9674 108.193 100.314 98.5659 105.916C88.0972 112.008 74.7254 109.358 65.2589 102.572C52.567 93.4699 46.9464 77.4265 47.9449 62.0334Z" fill="#2E422C"/>
</svg>
