<svg width="161" height="216" viewBox="0 0 161 216" fill="none" xmlns="http://www.w3.org/2000/svg">
<path d="M144.402 56.4512C146.966 39.8491 133.028 21.2431 115.246 17.2055C104.038 14.6606 91.8228 16.1885 81.1378 20.6192C79.5533 18.4005 77.8514 16.3466 76.0909 14.5335C54.876 -7.30139 19.3872 -3.758 1.21032 19.9661C-2.80736 25.2097 5.99208 30.5695 9.99215 25.3477C20.1563 12.0823 39.0687 6.36203 54.798 12.3516C61.5777 14.9332 67.6084 19.6725 71.9775 25.4806C62.6127 32.0874 55.6611 43.7671 61.7631 54.9785C68.2467 66.8924 86.9604 65.3594 89.7644 51.6132C91.2364 44.3977 89.5758 36.5691 86.3004 29.474C91.2583 27.6274 96.591 26.5962 101.466 26.3069C110.881 25.7491 120.533 28.2187 127.219 35.1457C131.311 39.3866 134.397 45.3343 134.535 51.3089C129.088 49.4389 123.114 48.8225 116.919 49.8461C106.497 51.5689 92.1666 62.072 101.934 73.2039C109.836 82.2108 124.134 80.3952 132.991 74.0712C136.231 71.758 138.711 69.1462 140.555 66.3538C147.709 72.5215 151.617 82.2058 150.486 92.2932C148.415 110.758 133.259 123.953 115.826 128.094C115.394 128.197 114.948 128.297 114.5 128.396C111.293 124.379 107.273 121.036 102.681 118.851C94.5622 114.985 75.2253 113.934 75.3797 127.344C75.5365 140.938 97.0331 140.497 105.963 139.884C107.17 139.802 108.372 139.676 109.57 139.532C116.235 152.965 108.393 169.223 95.177 177.454C74.8303 190.127 49.8066 185.123 27.9215 179.88C22.8294 178.661 19.8869 184.59 22.1147 187.87C19.798 186.221 17.4312 184.639 15.0315 183.103C25.6217 176.736 36.2127 170.369 46.8037 164.002C52.4662 160.598 47.7139 151.476 42.028 154.894C28.9265 162.771 15.8249 170.647 2.72423 178.523C-0.496625 180.459 -1.18011 185.397 2.41399 187.456C15.357 194.871 27.0912 203.843 37.5741 214.442C42.2225 219.142 49.7763 212.152 45.1094 207.432C38.6828 200.934 31.7731 194.977 24.4457 189.574C24.6117 189.63 24.783 189.682 24.9642 189.725C53.2607 196.504 87.2642 201.54 109.994 178.752C118.688 170.036 124.102 157.97 122.155 145.555C121.725 142.809 120.945 140.094 119.866 137.487C140.91 131.603 158.316 115.802 160.786 92.6512C162.323 78.2209 155.449 64.4471 144.402 56.4512ZM78.3833 52.1108C75.6817 54.358 71.6674 51.9603 70.5283 49.3101C68.4482 44.4704 71.4047 39.1976 74.9963 36.0004C75.6506 35.4184 76.3484 34.8722 77.0656 34.3454C79.8587 40.5724 82.2911 48.861 78.3833 52.1108ZM115.358 69.0224C113.948 68.8109 111.327 68.2731 110.318 67.0697C107.885 64.1702 111.514 62.5035 113.619 61.5108C116.913 59.9561 120.652 59.4544 124.264 59.7036C126.839 59.8809 129.282 60.391 131.568 61.1805C128.004 66.2961 121.569 69.9532 115.358 69.0224ZM88.4442 128.519C86.4613 127.798 85.2737 127.617 87.5434 126.743C89.0724 126.154 91.2197 126.249 92.8477 126.458C96.0392 126.867 99.036 128.241 101.623 130.136C96.9559 130.319 92.3209 129.928 88.4442 128.519Z" fill="#FFFDF4"/>
</svg>
