<svg width="155" height="255" viewBox="0 0 155 255" fill="none" xmlns="http://www.w3.org/2000/svg">
<path d="M83.4176 225.229C85.7741 222.708 84.3691 218.56 82.0675 216.65C73.7516 209.75 65.4351 202.849 57.1191 195.948C51.0161 190.884 43.8351 200.819 49.8979 205.851C55.2748 210.312 60.6516 214.774 66.0291 219.236C65.2869 219.006 64.4666 218.901 63.566 218.971C35.4792 221.134 10.1662 197.151 12.3216 168.816C13.3954 154.696 20.4605 140.917 32.2315 132.829C38.3764 128.606 46.7034 125.957 54.4204 126.487C54.0014 130.963 54.2404 135.485 55.26 139.813C57.2815 148.394 63.0964 159.468 73.4789 158.594C83.0109 157.792 86.9766 147.036 85.4591 138.713C83.8305 129.784 76.8214 122.403 68.91 118.181C69.0039 117.936 69.0829 117.683 69.1824 117.44C73.6132 106.487 83.1458 97.0368 93.5848 90.5676C94.5679 98.7851 97.8738 106.365 104.901 111.981C118.798 123.086 144.922 120.028 145.924 98.8552C146.831 79.6914 126.933 68.2068 109.89 70.8506C108.914 71.0021 107.936 71.2166 106.959 71.4296C108.904 64.0189 112.068 56.8576 114.794 51.2052C122.761 34.6858 135.016 20.1656 151.561 11.8662C158.589 8.34059 153.537 -2.86482 146.46 0.685819C124.859 11.5218 109.643 31.0016 100.514 53.0765C97.716 59.8424 95.1231 67.8704 93.9337 76.0085C78.9567 83.2555 65.5051 96.5164 58.9008 110.328C58.2805 111.626 57.7227 112.963 57.2156 114.327C39.3972 111.705 20.9809 122.581 10.9658 137.02C-2.25643 156.082 -4.00182 182.432 8.36198 202.398C19.2322 219.952 38.5017 230.53 58.7683 231.221C53.3411 235.324 47.5615 238.961 41.4745 242.119C34.503 245.735 39.5488 256.945 46.5759 253.3C60.5328 246.058 72.6905 236.702 83.4176 225.229ZM71.7376 136.845C72.2933 137.814 75.3856 145.167 72.685 146.027C69.9094 146.911 67.7124 139.191 67.3558 137.787C66.7744 135.496 66.5217 133.157 66.5126 130.816C68.5264 132.364 70.3056 134.347 71.7376 136.845ZM132.818 93.5316C138.665 108.998 116.264 108.654 109.529 99.2735C106.485 95.0347 105.231 90.0576 105.137 84.817C115.365 81.2589 128.351 81.7161 132.818 93.5316Z" fill="#FFFDF4"/>
</svg>
