<svg width="216" height="238" viewBox="0 0 216 238" fill="none" xmlns="http://www.w3.org/2000/svg">
<g clip-path="url(#clip0_2056_1027)">
<path d="M167.882 43.8003C171.971 67.4376 175.457 91.1261 173.034 115.26C171.155 134.036 167.827 152.57 164.635 171.159C163.532 177.526 159.281 178.476 156.007 179.948C126.258 193.313 94.9238 195.815 62.178 192.246C63.7793 201.101 66.8905 207.176 77.5501 206.271C80.0528 206.059 83.7322 207.389 85.9 210.38C90.7465 217.101 98.0435 217.275 104.944 215.634C116.666 212.846 129.293 214.986 140.362 208.669C143.63 206.814 145.915 205.686 147.059 201.126C148.875 193.923 159.083 193.197 161.737 185.745C162.083 184.764 162.507 183.813 162.891 182.846" stroke="#2E422C" stroke-width="4.16026" stroke-linecap="round" stroke-linejoin="round"/>
<path d="M70.5975 80.0678C61.8413 77.9917 53.4458 84.2314 44.4485 81.0741C42.0716 80.2396 40.7713 83.6176 40.3036 85.9167C34.8766 113.377 32.2694 140.841 37.2301 168.811C38.8979 178.23 48.2669 181.916 50.0842 190.566" stroke="#2E422C" stroke-width="4.16026" stroke-linecap="round" stroke-linejoin="round"/>
<path d="M144.503 37.849C116.667 44.3855 90.8904 58.6828 61.2907 58.8523C56.1302 58.8796 52.9241 66.3126 48.7584 70.2513" stroke="#2E422C" stroke-width="4.16026" stroke-linecap="round" stroke-linejoin="round"/>
<path d="M158.989 38.0195C153.081 36.7192 144.02 42.2685 142.781 30.5355C142.723 30.0644 140.258 29.8442 138.72 29.7693C122.631 28.9599 107.163 23.159 90.3435 27.1637C69.7049 32.0434 64.2729 36.3511 61.6791 57.4841" stroke="#2E422C" stroke-width="4.16026" stroke-linecap="round" stroke-linejoin="round"/>
<path d="M167.842 142.299C151.841 151.668 134.437 154.947 116.107 154.141C113.596 154.037 111.081 153.662 108.566 153.4" stroke="#2E422C" stroke-width="4.16026" stroke-linecap="round" stroke-linejoin="round"/>
<path d="M146.107 199.694C126.013 202.081 105.817 203.824 86.2498 209.443" stroke="#2E422C" stroke-width="4.16026" stroke-linecap="round" stroke-linejoin="round"/>
<path d="M120.058 90.8058C108.578 86.1227 96.9657 90.3202 85.4981 90.8363C80.5503 91.0603 75.8177 90.5191 71.0005 90.3026" stroke="#2E422C" stroke-width="4.16026" stroke-linecap="round" stroke-linejoin="round"/>
<path d="M111.462 28.05C108.463 32.4311 105.912 36.3634 99.789 38.2464C87.4149 42.051 75.6309 47.7475 63.6023 52.6525" stroke="#2E422C" stroke-width="4.16026" stroke-linecap="round" stroke-linejoin="round"/>
<path d="M82.2716 135.093C67.1967 135.897 52.1103 136.785 37.2675 132.845" stroke="#2E422C" stroke-width="4.16026" stroke-linecap="round" stroke-linejoin="round"/>
<path d="M80.4083 179.13C69.6708 182.198 58.4985 181.354 47.581 182.851" stroke="#2E422C" stroke-width="4.16026" stroke-linecap="round" stroke-linejoin="round"/>
<path d="M169.517 101.545C162.892 104.124 156.26 106.722 149.636 109.301" stroke="#2E422C" stroke-width="4.16026" stroke-linecap="round" stroke-linejoin="round"/>
</g>
<defs>
<clipPath id="clip0_2056_1027">
<rect width="154.117" height="194.763" fill="white" transform="translate(72.0527) rotate(21.7125)"/>
</clipPath>
</defs>
</svg>
