<svg width="189" height="256" viewBox="0 0 189 256" fill="none" xmlns="http://www.w3.org/2000/svg">
<path d="M69.1171 0L71.1846 15.0862C72.5188 24.8224 67.1097 32.2909 57.0361 33.6714L49.1315 34.7547C45.2756 35.2831 41.866 34.7683 39.0255 33.3898C36.582 35.9834 33.0906 37.7386 28.7527 38.3331L20.7999 39.4229C10.7263 40.8034 3.50738 35.0655 2.17312 25.3293L0 9.4719L69.1171 0ZM58.4692 14.0298L42.419 16.2294L42.7955 18.9767C43.2578 22.3506 44.6933 22.7923 47.4406 22.4158L55.3452 21.3325C58.0443 20.9626 59.308 20.1511 58.8457 16.7772L58.4692 14.0298ZM30.6104 21.4322C30.5292 21.1978 30.4962 20.9569 30.4566 20.6677L30.0801 17.9203L14.0298 20.1199L14.512 23.6384C14.9744 27.0123 16.4098 27.4539 19.109 27.084L27.0618 25.9942C29.7609 25.6243 31.0246 24.8128 30.5622 21.4388L30.6104 21.4322Z" fill="#5B5758"/>
<path d="M73.9858 41.9065L78.8372 56.3402C81.9681 65.6553 78.0506 74.0034 68.4127 77.2428L60.85 79.7848C54.6246 81.8772 49.0375 80.8297 44.9981 77.3629L18.4598 95.6751L14.4919 83.8699L39.0337 66.9473L38.9872 66.8089L11.8259 75.9382L7.85803 64.133L73.9858 41.9065ZM66.1485 57.6796L50.7924 62.841L51.6759 65.4695C52.7609 68.6975 54.2536 68.863 56.8821 67.9795L64.4448 65.4376C67.0272 64.5696 68.1169 63.5361 67.0319 60.3081L66.1485 57.6796Z" fill="#5B5758"/>
<path d="M87.3681 83.9072L102.124 111.159L91.1716 117.088L82.3462 100.789L68.1002 108.503L75.6516 122.449L64.6998 128.379L57.1483 114.433L42.9024 122.146L51.7278 138.446L40.7759 144.376L26.0205 117.124L87.3681 83.9072Z" fill="#5B5758"/>
<path d="M110.892 126.387L122.418 140.903L72.6244 190.381L64.9099 180.665L70.8501 174.768L66.2517 168.977L59.1619 173.427L51.4173 163.673L110.892 126.387ZM94.4963 151.271L76.8521 162.299L79.7261 165.919L94.4963 151.271Z" fill="#5B5758"/>
<path d="M132.246 154.81L145.52 166.085C152.973 172.415 153.928 181.587 147.346 189.337L123.6 217.295C117.018 225.045 107.812 225.588 100.359 219.258L87.0844 207.983L132.246 154.81ZM133.676 172.365L104.639 206.553L108.421 209.765C111.017 211.97 112.344 211.309 114.107 209.233L137.853 181.274C139.617 179.198 140.054 177.782 137.458 175.577L133.676 172.365Z" fill="#5B5758"/>
<path d="M178.675 191.625L179.518 192.111C187.989 196.994 190.58 205.845 185.502 214.653L183.849 217.519L173.06 211.299L174.712 208.433C176.073 206.073 176.247 204.601 173.297 202.9L172.454 202.414C169.504 200.713 168.318 201.602 166.957 203.962L165.305 206.828C160.542 215.089 176.05 231.048 168.833 243.566L167.181 246.432C162.103 255.241 153.145 257.433 144.674 252.549L143.831 252.063C135.317 247.155 132.768 238.329 137.847 229.52L139.499 226.654L150.289 232.875L148.636 235.741C147.276 238.101 147.101 239.573 150.051 241.273L150.894 241.759C153.844 243.46 155.031 242.572 156.391 240.212L158.044 237.346C163.31 228.308 148.013 212.47 154.515 200.608L156.168 197.742C161.246 188.933 170.161 186.716 178.675 191.625Z" fill="#5B5758"/>
</svg>
