<svg width="39" height="39" viewBox="0 0 39 39" fill="none" xmlns="http://www.w3.org/2000/svg">
<rect width="38.2928" height="38.2928" rx="19.1464" fill="#2E422C"/>
<path fill-rule="evenodd" clip-rule="evenodd" d="M6.38232 12.3654C6.38232 12.048 6.5084 11.7436 6.73282 11.5192C6.95723 11.2948 7.2616 11.1687 7.57898 11.1687H30.7142C31.0316 11.1687 31.336 11.2948 31.5604 11.5192C31.7848 11.7436 31.9109 12.048 31.9109 12.3654C31.9109 12.6827 31.7848 12.9871 31.5604 13.2115C31.336 13.4359 31.0316 13.562 30.7142 13.562H7.57898C7.2616 13.562 6.95723 13.4359 6.73282 13.2115C6.5084 12.9871 6.38232 12.6827 6.38232 12.3654ZM6.38232 19.1464C6.38232 18.829 6.5084 18.5246 6.73282 18.3002C6.95723 18.0758 7.2616 17.9497 7.57898 17.9497H30.7142C31.0316 17.9497 31.336 18.0758 31.5604 18.3002C31.7848 18.5246 31.9109 18.829 31.9109 19.1464C31.9109 19.4637 31.7848 19.7681 31.5604 19.9925C31.336 20.217 31.0316 20.343 30.7142 20.343H7.57898C7.2616 20.343 6.95723 20.217 6.73282 19.9925C6.5084 19.7681 6.38232 19.4637 6.38232 19.1464ZM7.57898 24.7307C7.2616 24.7307 6.95723 24.8568 6.73282 25.0812C6.5084 25.3057 6.38232 25.61 6.38232 25.9274C6.38232 26.2448 6.5084 26.5491 6.73282 26.7736C6.95723 26.998 7.2616 27.124 7.57898 27.124H30.7142C31.0316 27.124 31.336 26.998 31.5604 26.7736C31.7848 26.5491 31.9109 26.2448 31.9109 25.9274C31.9109 25.61 31.7848 25.3057 31.5604 25.0812C31.336 24.8568 31.0316 24.7307 30.7142 24.7307H7.57898Z" fill="#FFFDF4"/>
</svg>
