<svg width="208" height="210" viewBox="0 0 208 210" fill="none" xmlns="http://www.w3.org/2000/svg">
<g clip-path="url(#clip0_2540_2308)">
<path d="M67.5335 70.3135C64.1918 71.5252 61.1024 73.3449 58.4207 75.681C46.483 86.1423 48.7247 99.7438 64.0342 104.892C71.1105 107.159 78.477 108.389 85.9048 108.544C104.75 109.055 123.577 108.434 142.404 107.211C148.947 106.773 152.902 103.085 157.877 100.511" stroke="#2E422C" stroke-width="6" stroke-linecap="round" stroke-linejoin="round"/>
<path d="M68.4451 70.3136C92.1383 77.4339 116.032 78.2372 140.472 75.2248C146.505 74.4762 152.1 76.0828 154.105 68.4879C154.768 66.3727 154.774 64.1059 154.123 61.9871C153.472 59.8682 152.195 57.9971 150.46 56.6208C145.995 52.6773 139.288 50.8516 135.187 53.2981C118.164 63.5403 102.509 58.0266 86.7071 51.089C79.1252 47.7479 69.5568 49.0989 65.7477 54.7404C62.2119 60.0532 64.1256 64.8182 67.5702 69.346" stroke="#2E422C" stroke-width="6" stroke-linecap="round" stroke-linejoin="round"/>
<path d="M52.4979 98.6123C34.1083 104.728 31.7936 124.519 32.9601 137.847C33.3793 142.575 37.1884 144.145 41.1069 145.15C50.0405 147.38 59.2455 148.327 68.4452 147.961C88.4933 147.219 108.541 146.61 128.589 146.135C135.931 145.873 143.282 146.129 150.588 146.902C156.055 147.578 165.46 144.273 170.435 137.774C171.704 136.11 172.558 134.167 172.926 132.106C173.294 130.045 173.165 127.926 172.55 125.925C170.595 117.592 166.753 109.821 161.323 103.213C158.37 99.5617 156.438 96.531 157.477 91.2365C158.716 84.9926 151.554 81.9619 149.549 76.6309" stroke="#2E422C" stroke-width="6" stroke-linecap="round" stroke-linejoin="round"/>
<path d="M55.6872 149.732C53.6853 167.374 54.2994 185.216 57.5097 202.678C73.4388 206.329 89.368 206.092 105.789 204.102C116.488 202.787 126.512 199.885 136.773 197.201C148.71 194.061 151.353 189.898 150.642 180.769C149.877 170.18 150.46 159.482 150.46 148.838" stroke="#2E422C" stroke-width="6" stroke-linecap="round" stroke-linejoin="round"/>
<path d="M135.879 52.0568C130.412 40.062 130.412 26.497 124.16 14.5569C119.185 5.118 113.626 3.12798 106.901 11.1246C97.2958 22.5352 86.8526 33.7633 83.9365 49.3183" stroke="#2E422C" stroke-width="6" stroke-linecap="round" stroke-linejoin="round"/>
<path d="M83.9368 148.819C83.627 164.338 83.627 179.856 82.7704 195.357C82.7124 198.409 82.4934 201.456 82.1143 204.485" stroke="#2E422C" stroke-width="6" stroke-linecap="round" stroke-linejoin="round"/>
<path d="M109.452 148.819C108.857 166.772 108.25 184.725 107.63 202.678" stroke="#2E422C" stroke-width="6" stroke-linecap="round" stroke-linejoin="round"/>
<path d="M67.5339 149.732C67.5339 161.599 67.1512 173.467 68.2994 185.334C68.8461 191.03 67.8437 196.89 67.5339 202.678" stroke="#2E422C" stroke-width="6" stroke-linecap="round" stroke-linejoin="round"/>
<path d="M131.324 147.906C131.743 164.338 130.376 180.769 132.235 197.2" stroke="#2E422C" stroke-width="6" stroke-linecap="round" stroke-linejoin="round"/>
<path d="M151.372 92.2227C142.496 98.0467 132.508 99.3612 122.211 99.5255" stroke="#2E422C" stroke-width="6" stroke-linecap="round" stroke-linejoin="round"/>
<path d="M65.7118 82.1807C60.2441 88.2237 60.3534 88.9175 68.4456 94.9606" stroke="#2E422C" stroke-width="6" stroke-linecap="round" stroke-linejoin="round"/>
<path d="M74.8238 50.2314C76.2272 54.7592 71.525 57.2421 71.1787 61.1857" stroke="#2E422C" stroke-width="6" stroke-linecap="round" stroke-linejoin="round"/>
</g>
<defs>
<clipPath id="clip0_2540_2308">
<rect width="151" height="207" fill="white" transform="translate(25.8828 0.314453)"/>
</clipPath>
</defs>
</svg>
