<svg width="228" height="252" viewBox="0 0 228 252" fill="none" xmlns="http://www.w3.org/2000/svg">
<path d="M198.678 171.442L199.653 171.952C209.448 177.077 212.784 186.954 207.455 197.138L205.721 200.452L193.246 193.925L194.98 190.611C196.408 187.882 196.537 186.212 193.126 184.427L192.151 183.917C188.74 182.133 187.441 183.191 186.013 185.92L184.28 189.234C179.282 198.785 197.537 216.095 189.964 230.568L188.23 233.881C182.902 244.066 172.885 246.956 163.091 241.832L162.116 241.322C152.273 236.171 148.985 226.32 154.314 216.136L156.048 212.822L168.523 219.349L166.789 222.663C165.361 225.392 165.232 227.062 168.643 228.847L169.618 229.357C173.029 231.141 174.328 230.083 175.755 227.354L177.489 224.04C183.02 213.589 165.009 196.407 171.805 182.707L173.538 179.393C178.867 169.208 188.835 166.292 198.678 171.442Z" fill="#5B5758"/>
<path d="M146.941 133.831L158.029 142.507L174.532 155.419L165.856 166.508L149.353 153.595L138.067 168.019L152.187 179.067L143.511 190.156L129.391 179.107L118.105 193.531L134.608 206.443L125.932 217.532L109.429 204.619L98.3406 195.943L107.017 184.854L118.303 170.431L126.979 159.343L138.264 144.919L146.941 133.831Z" fill="#5B5758"/>
<path d="M115.825 95.9026L124.996 106.585L110.225 119.268L131.589 114.262L140.76 124.944L99.3871 134.59L80.9241 176.321L71.7523 165.639L81.3501 144.06L65.1601 157.961L55.9883 147.279L94.5856 114.139L115.825 95.9026Z" fill="#5B5758"/>
<path d="M95.8648 59.8194L102.949 71.9866L106.408 77.9276L42.6805 125.215L35.6239 113.096L43.2254 107.46L39.0191 100.236L30.366 104.065L23.2817 91.8979L95.8648 59.8194ZM73.489 85.003L51.9612 94.4826L54.5901 98.9978L73.489 85.003Z" fill="#5B5758"/>
<path d="M81.7372 23.0727L82.1182 24.1046C85.9472 34.4747 81.7984 44.0385 71.0155 48.02L63.5345 50.7822L58.6577 37.5745L66.1387 34.8122C69.0279 33.7454 70.2439 32.5929 68.9104 28.9814L68.5294 27.9495C67.1959 24.338 65.5227 24.2523 62.6335 25.3191L23.7325 39.6828C20.8433 40.7496 19.6273 41.9021 20.9608 45.5136L21.3418 46.5455C22.6753 50.157 24.3485 50.2427 27.2377 49.1759L34.7187 46.4136L39.5955 59.6214L32.1145 62.3837C21.3316 66.3651 11.9631 61.7925 8.13402 51.4223L7.75301 50.3904C3.90491 39.9687 8.0728 30.4565 18.8557 26.4751L57.7567 12.1114C68.5396 8.12991 77.8891 12.651 81.7372 23.0727Z" fill="#5B5758"/>
</svg>
