<svg width="208" height="210" viewBox="0 0 208 210" fill="none" xmlns="http://www.w3.org/2000/svg">
<path d="M16.0248 144.835C28.2305 131.81 40.7985 118.508 53.3805 105.204C55.803 102.63 58.1423 99.9668 60.7346 97.5981C65.4271 93.3395 67.9276 88.8879 67.7618 81.8548C67.5128 71.626 74.6482 65.1611 83.5454 61.2268C87.3856 59.5616 88.7204 57.2746 89.2659 53.3396C91.2232 39.1258 92.5702 24.6083 102.056 12.8851C103.794 10.8438 107.813 9.88161 110.861 9.64733C112.276 9.5731 114.218 12.4932 115.23 14.4252C115.481 14.9191 113.052 17.1236 111.642 18.095C99.0599 26.0398 92.8491 37.527 92.7251 52.2381C92.7094 54.4779 94.2762 56.7209 95.0457 58.9703C97.0267 57.9912 98.9144 56.8337 100.685 55.5121C104.716 51.9544 108.156 47.392 112.602 44.7055C115.174 43.1519 120.297 42.9836 122.787 44.5623C142.57 56.8963 162.281 69.3255 181.213 82.8702C191.363 90.0717 195.112 102.401 197.799 114.03C200.248 124.721 200.857 135.843 202.27 146.786C202.77 150.54 201.5 152.676 197.535 154.044C147.282 171.289 97.1054 188.781 46.878 206.109C37.6945 209.283 29.8993 200.072 31.0642 188.258C31.1703 184.987 30.5963 181.729 29.3784 178.691C26.514 170.121 23.2856 161.6 20.0711 153.077C19.1532 150.676 17.8124 148.417 16.0248 144.835ZM33.3075 136.978L34.4601 138.25C44.7041 134.906 54.952 131.59 65.1923 128.219C97.1123 117.688 129.038 107.198 160.911 96.5309C165.74 94.9052 169.187 95.6439 171.392 100.325C174.887 107.742 179.043 114.985 181.594 122.699C186.473 137.956 184.213 142.39 169.159 147.072C142.912 155.252 116.331 162.422 90.2416 171.037C74.4731 176.242 59.2576 183.14 44.0319 189.854C41.8909 190.795 41.1792 194.98 39.8126 197.67C42.5143 197.838 45.5294 198.863 47.8971 198.02C95.2684 181.828 142.55 165.391 189.896 149.117C193.779 147.773 195.336 145.87 195.46 141.549C196.04 120.093 189.376 101.168 172.8 87.5524C158.157 75.5038 141.893 65.4098 126.153 54.7613C116.57 48.2826 116.253 48.5813 108.41 57.549C107.28 58.6396 106.038 59.6074 104.704 60.4364C117.999 73.6049 120.205 87.5073 110.513 98.2175C106.433 102.374 101.254 105.282 95.5809 106.603C86.0625 108.867 77.699 104.92 70.989 97.3317L33.3075 136.978ZM176.453 129.483C174.57 124.431 172.968 119.242 170.749 114.35C165.069 101.864 164.99 102.017 152.087 106.37C111.796 119.968 71.5324 133.561 31.0779 146.895C26.7625 148.31 26.7244 150.809 27.7205 153.798C29.59 160.274 31.826 166.639 34.4177 172.861C37.6353 180.23 40.5169 181.001 48.0731 178.342C59.6169 174.27 71.2205 170.218 82.8128 166.51C111.712 157.269 140.644 148.133 169.609 139.101C174.345 137.631 177.857 135.539 176.453 129.483ZM92.3479 70.4035C88.4078 68.9607 85.842 67.1356 84.1464 67.6747C82.1335 68.3985 80.8713 71.2316 79.2884 73.1525C81.0748 74.5825 83.4479 77.5307 84.5328 77.1156C87.0313 76.1847 88.8806 73.587 92.3479 70.4035Z" fill="#2E422C"/>
</svg>
