<svg width="38" height="38" viewBox="0 0 38 38" fill="none" xmlns="http://www.w3.org/2000/svg">
<path d="M3.89355 6.61896C3.89355 6.30918 4.01661 6.01209 4.23566 5.79304C4.45471 5.57399 4.75181 5.45093 5.06159 5.45093H5.9306C7.41011 5.45093 8.29782 6.44609 8.80396 7.37117C9.14191 7.98789 9.38642 8.70273 9.57798 9.3506L9.73372 9.34437H29.1978C30.4904 9.34437 31.4249 10.5809 31.0698 11.8253L28.2229 21.8065C27.9677 22.7018 27.4276 23.4895 26.6847 24.0504C25.9417 24.6113 25.0361 24.9148 24.1052 24.915H14.8419C13.9036 24.9151 12.9912 24.6069 12.245 24.038C11.4988 23.4691 10.9602 22.6709 10.7118 21.766L9.52814 17.449L7.56585 10.8332L7.56429 10.8208C7.32134 9.93773 7.09396 9.11076 6.75446 8.49404C6.42896 7.89445 6.16733 7.78699 5.93216 7.78699H5.06159C4.75181 7.78699 4.45471 7.66393 4.23566 7.44488C4.01661 7.22584 3.89355 6.92874 3.89355 6.61896ZM14.0165 32.705C14.8426 32.705 15.6348 32.3769 16.219 31.7927C16.8031 31.2086 17.1313 30.4164 17.1313 29.5903C17.1313 28.7642 16.8031 27.9719 16.219 27.3878C15.6348 26.8037 14.8426 26.4755 14.0165 26.4755C13.1904 26.4755 12.3982 26.8037 11.814 27.3878C11.2299 27.9719 10.9018 28.7642 10.9018 29.5903C10.9018 30.4164 11.2299 31.2086 11.814 31.7927C12.3982 32.3769 13.1904 32.705 14.0165 32.705ZM24.9181 32.705C25.7442 32.705 26.5365 32.3769 27.1206 31.7927C27.7047 31.2086 28.0329 30.4164 28.0329 29.5903C28.0329 28.7642 27.7047 27.9719 27.1206 27.3878C26.5365 26.8037 25.7442 26.4755 24.9181 26.4755C24.0921 26.4755 23.2998 26.8037 22.7157 27.3878C22.1316 27.9719 21.8034 28.7642 21.8034 29.5903C21.8034 30.4164 22.1316 31.2086 22.7157 31.7927C23.2998 32.3769 24.0921 32.705 24.9181 32.705Z" fill="#2E422C"/>
</svg>
