<svg width="283" height="298" viewBox="0 0 283 298" fill="none" xmlns="http://www.w3.org/2000/svg">
<path d="M73.5551 0L76.1207 18.3631C77.5612 28.6731 71.8235 36.6392 61.1031 38.137L22.4277 43.5406C11.7074 45.0384 4.0061 38.95 2.56562 28.6399L0 10.2768L73.5551 0ZM62.2585 14.9658L14.9658 21.5734L15.6968 26.8053C16.1984 30.3959 17.7207 30.8107 20.5931 30.4094L59.2685 25.0058C62.141 24.6045 63.4912 23.7883 62.9895 20.1978L62.2585 14.9658Z" fill="#5B5758"/>
<path d="M79.0914 46.147L89.632 77.4093L77.0682 81.6454L70.7637 62.9469L54.421 68.4571L59.8154 84.4563L47.2516 88.6924L41.8572 72.6932L25.5144 78.2034L31.8189 96.9019L19.2551 101.138L8.71453 69.8757L79.0914 46.147Z" fill="#5B5758"/>
<path d="M100.528 103.21L101.023 104.12C105.996 113.266 103.424 122.74 93.9144 127.911L90.8203 129.593L84.4871 117.945L87.5812 116.262C90.1292 114.877 91.1064 113.638 89.3747 110.453L88.8799 109.543C87.1481 106.358 85.5772 106.505 83.0292 107.89L79.9351 109.572C71.0168 114.421 76.2143 137.534 62.7005 144.882L59.6064 146.564C50.0966 151.734 40.7466 148.742 35.7741 139.596L35.2793 138.686C30.282 129.495 32.8782 120.066 42.3879 114.895L45.482 113.213L51.8152 124.861L48.7211 126.543C46.1731 127.929 45.1959 129.167 46.9276 132.353L47.4224 133.263C49.1542 136.448 50.7251 136.301 53.2731 134.916L56.3672 133.233C66.1748 127.96 61.1009 105.074 73.6018 97.924L76.6959 96.2417C86.2057 91.0713 95.5309 94.0186 100.528 103.21Z" fill="#5B5758"/>
<path d="M124.717 143.268L125.366 144.075C131.89 152.188 131.049 161.969 122.614 168.752L119.87 170.96L111.561 160.628L114.305 158.42C116.565 156.603 117.306 155.21 115.034 152.384L114.385 151.577C112.112 148.752 110.593 149.177 108.333 150.994L105.588 153.201C97.6779 159.563 106.914 181.378 94.9275 191.018L92.183 193.226C83.7479 200.009 74.0141 198.732 67.4901 190.62L66.8409 189.812C60.2845 181.66 61.1573 171.919 69.5925 165.135L72.337 162.928L80.6461 173.26L77.9017 175.467C75.6415 177.285 74.9009 178.678 77.173 181.503L77.8221 182.31C80.0942 185.136 81.6137 184.711 83.8739 182.893L86.6183 180.686C95.3281 173.748 86.254 152.135 97.2792 142.869L100.024 140.662C108.459 133.879 118.16 135.115 124.717 143.268Z" fill="#5B5758"/>
<path d="M141.953 166.217L167.121 187.548L158.548 197.663L143.495 184.904L132.343 198.061L145.224 208.978L136.651 219.092L123.771 208.175L112.619 221.332L127.673 234.091L119.1 244.205L93.9323 222.874L141.953 166.217Z" fill="#5B5758"/>
<path d="M172.467 193.852L186.83 201.368C196.1 206.219 199.241 215.52 194.222 225.111L190.284 232.637C187.042 238.832 181.977 242.143 176.319 242.456L169.42 276.081L157.673 269.934L164.061 238.847L163.923 238.775L149.78 265.804L138.032 259.656L172.467 193.852ZM178.067 211.747L170.071 227.028L172.686 228.397C175.899 230.078 177.168 229.105 178.536 226.489L182.475 218.964C183.819 216.394 183.895 214.797 180.683 213.116L178.067 211.747Z" fill="#5B5758"/>
<path d="M205.17 213.832L240.458 221.189L237.752 234.168L226.598 231.843L214.146 291.569L201.167 288.863L213.618 229.137L202.464 226.811L205.17 213.832Z" fill="#5B5758"/>
<path d="M259.793 222.94L260.826 222.863C271.207 222.086 278.789 228.322 279.597 239.116L279.86 242.628L266.638 243.618L266.375 240.106C266.159 237.214 265.431 235.814 261.816 236.085L260.783 236.162C257.167 236.433 256.656 237.925 256.872 240.818L257.135 244.33C257.893 254.452 281.101 259.207 282.25 274.546L282.513 278.058C283.321 288.853 276.752 296.148 266.371 296.925L265.338 297.003C254.905 297.784 247.374 291.544 246.566 280.75L246.303 277.238L259.525 276.248L259.788 279.76C260.005 282.652 260.733 284.052 264.348 283.781L265.381 283.704C268.996 283.433 269.508 281.94 269.291 279.048L269.028 275.536C268.248 264.428 245.298 259.654 243.914 245.319L243.651 241.807C242.842 231.013 249.36 223.721 259.793 222.94Z" fill="#5B5758"/>
</svg>
