<svg width="36" height="36" viewBox="0 0 36 36" fill="none" xmlns="http://www.w3.org/2000/svg">
<path d="M3.52914 18.6839C3.31582 18.494 3.15967 18.4041 3.07495 18.2693C2.35131 17.1236 1.53479 16.0207 0.950982 14.8066C0.107927 13.0492 0.507 11.6247 2.05941 10.4443C2.89226 9.81114 3.81798 9.30159 4.70187 8.73791C4.75902 8.70115 4.83761 8.68481 4.8764 8.6358C5.00194 8.47344 5.11319 8.30086 5.22954 8.13135C5.04072 8.04353 4.82638 7.84849 4.66614 7.88525C3.96394 8.0466 3.24438 8.20181 2.59525 8.49999C2.01858 8.76446 1.52663 9.21377 0.998953 9.58444C0.865248 9.67839 0.736646 9.78051 0.513124 9.94797C0.388605 9.51296 0.245714 9.16986 0.197744 8.8145C-0.0666042 6.84777 -0.116616 4.88001 0.366151 2.94188C0.501897 2.39556 0.7591 1.84618 1.08877 1.38973C1.70218 0.541156 2.65342 0.479887 3.35359 1.258C3.83533 1.79308 4.2242 2.42824 4.57326 3.06339C5.16932 4.14989 5.68169 5.28133 6.27264 6.36987C6.42064 6.6415 6.70234 6.89168 6.98301 7.02953C8.40478 7.72902 9.78776 8.47548 10.889 9.73149C11.1268 9.41289 11.332 9.13003 11.5453 8.85432C12.0597 8.1916 12.6793 7.69328 13.5335 7.53092C13.6693 7.50539 13.854 7.36651 13.8908 7.24295C14.2837 5.92261 14.6409 4.59205 14.6103 3.19614C14.5919 2.3925 14.4072 1.6634 13.5907 1.29578C12.7415 0.913875 11.9873 1.16304 11.334 1.74611C10.391 2.58856 9.7898 3.67302 9.26416 4.80343C9.08555 5.1884 8.91918 5.58052 8.70587 5.94507C8.63953 6.05842 8.43642 6.0911 8.29659 6.16156C8.23127 6.00328 8.08736 5.82866 8.11695 5.69081C8.19963 5.31196 8.317 4.93005 8.48949 4.58388C9.02839 3.50861 9.54382 2.41598 10.1756 1.39688C10.6431 0.643271 11.3994 0.168437 12.3037 0.0356875C13.9959 -0.212452 15.3921 0.854648 15.6269 2.57528C15.8341 4.09067 15.5228 5.55602 15.1053 6.99788C14.9757 7.44514 15.0155 7.68205 15.4585 7.91895C16.3597 8.40093 16.8782 9.2056 17.1201 10.192C17.1599 10.3534 17.2048 10.5137 17.265 10.7414C19.4247 9.30976 21.0241 9.95921 22.2836 12.1036C22.3928 11.9014 22.4846 11.7554 22.554 11.6002C23.1133 10.3442 23.638 9.07081 24.2381 7.8342C24.5096 7.27563 24.8862 6.7528 25.2894 6.27797C26.851 4.43786 29.5251 4.93516 30.3681 7.20313C30.7019 8.10174 30.6702 9.01975 30.4089 9.91121C29.8404 11.8504 29.2311 13.7783 28.6044 15.6991C28.5473 15.8747 28.2319 16.1014 28.0665 16.0789C27.7359 16.034 27.7195 15.7287 27.8073 15.4315C28.3309 13.6558 28.8912 11.8892 29.3495 10.0971C29.5251 9.40881 29.5598 8.65009 29.4853 7.94142C29.4026 7.15003 28.881 6.57818 28.091 6.34741C27.2796 6.1105 26.5764 6.39234 26.1049 7.04281C25.5711 7.78008 25.076 8.56432 24.6923 9.38838C23.9758 10.9273 23.3501 12.509 22.6898 14.0744C22.6122 14.2582 22.552 14.4492 22.4632 14.6932C22.8225 14.8117 23.1378 14.921 23.4553 15.021C25.4568 15.6521 27.4001 16.3945 29.0362 17.7741C29.1668 17.8843 29.4587 17.8864 29.6445 17.8323C30.6069 17.5545 31.5541 17.2237 32.5166 16.951C33.0851 16.7897 33.6699 16.6355 34.2558 16.5905C35.3244 16.5099 36.0429 17.1665 35.998 18.2377C35.9705 18.883 35.8286 19.5641 35.5632 20.1503C34.8324 21.7647 33.6964 23.0953 32.3839 24.2757C32.2461 24.4003 32.091 24.5095 31.9338 24.6076C31.5 24.8772 31.3745 24.819 31.3265 24.3114C31.2163 23.133 30.9519 21.9924 30.3977 20.9437C30.1885 20.5475 29.8802 20.1962 29.5771 19.8613C29.4812 19.7551 29.2525 19.7694 29.0852 19.7285C29.0974 19.8878 29.0821 20.0553 29.126 20.2054C29.4659 21.3777 29.8241 22.5449 30.1609 23.7171C30.2303 23.9591 30.2446 24.2195 30.2671 24.4728C30.4447 26.4395 29.5577 27.6976 27.6481 28.1959C27.5164 28.2306 27.3858 28.296 27.2541 28.297C26.3355 28.3011 26.0436 28.878 25.8119 29.6674C25.3792 31.1388 24.7209 32.5164 23.7982 33.7612C22.5275 35.4757 20.8261 36.1455 18.7327 35.974C16.9527 35.828 15.2595 35.3429 13.6162 34.6863C10.5339 33.4538 7.55254 32.014 4.91008 29.9727C3.58732 28.9505 2.50951 27.7149 2.07778 26.0321C1.69197 24.5289 1.90733 23.0626 2.3656 21.6187C2.41255 21.4706 2.6422 21.3797 2.78713 21.2623C2.85041 21.4206 2.97289 21.5799 2.96778 21.7351C2.95145 22.2263 2.89634 22.7174 2.8402 23.2066C2.62076 25.1202 3.18314 26.7551 4.53652 28.1305C5.7664 29.3804 7.21368 30.3158 8.74567 31.1378C11.431 32.5776 14.1623 33.9041 17.1558 34.5883C17.7172 34.7169 18.2918 34.8068 18.8644 34.8589C20.7077 35.0253 22.1274 34.3075 23.1613 32.7706C24.2514 31.1511 24.8597 29.3375 25.3465 27.4739C25.5486 26.702 25.7354 25.9228 25.864 25.1365C26.3029 22.4581 25.4016 20.5189 22.9939 19.2537C22.0488 18.7574 20.9771 18.4552 19.9289 18.2121C19.0389 18.0059 18.1214 18.1478 17.608 19.0566C17.0946 19.9654 17.2681 20.862 17.8693 21.683C18.5541 22.6184 19.5227 23.0616 20.6332 23.2413C20.9506 23.2923 21.2772 23.2923 21.5936 23.3505C21.7212 23.374 21.8324 23.4894 21.9508 23.5629C21.8539 23.6845 21.7732 23.8887 21.6559 23.9142C21.2435 24.001 20.8097 23.9898 20.3984 24.0817C19.4441 24.2951 18.4571 24.4442 17.559 24.8067C15.9065 25.4725 14.8553 26.8071 14.0622 28.3603C13.8765 28.7228 13.7019 29.0945 13.4784 29.4325C13.3947 29.5591 13.1835 29.601 13.0304 29.6817C12.9854 29.5265 12.8742 29.3549 12.9079 29.2191C13.014 28.7933 13.1385 28.3644 13.3233 27.9682C13.5121 27.5618 13.4141 27.3698 13.0191 27.186C11.5576 26.5059 10.0878 25.837 8.66402 25.0824C7.21776 24.3155 6.0185 23.2392 5.17749 21.8107C4.62532 20.8722 4.61205 19.8807 4.95294 18.8616C5.48164 17.2829 6.34613 15.9227 7.54641 14.7729C7.60765 14.7137 7.70257 14.6616 7.71992 14.5901C7.78626 14.3164 7.82709 14.0377 7.8771 13.7599C7.62398 13.7599 7.3331 13.6782 7.12284 13.7732C6.13077 14.2215 5.40815 15.0027 4.84986 15.9043C4.41608 16.6048 4.11091 17.386 3.75266 18.1335C3.68224 18.2795 3.62814 18.4337 3.52506 18.6859L3.52914 18.6839ZM9.08045 18.4051C9.12025 18.4123 9.16108 18.4204 9.20088 18.4276C9.20088 18.6308 9.18353 18.8371 9.20394 19.0382C9.33969 20.381 10.4961 21.4972 11.7147 21.4706C12.4425 21.4553 12.7568 21.1193 12.912 20.4188C13.1794 19.2139 13.4213 17.9885 13.851 16.8377C14.3184 15.5878 14.9624 14.4002 15.5779 13.2095C16.0464 12.3027 16.3219 11.3806 16.0596 10.3687C15.8361 9.50275 15.3176 8.88496 14.4164 8.6695C13.5509 8.4622 12.9416 8.89721 12.4435 9.53237C12.1934 9.85199 11.9301 10.1818 11.7729 10.5494C11.0615 12.217 10.3348 13.8825 9.71937 15.5857C9.39481 16.4843 9.2856 17.4606 9.07943 18.4021L9.08045 18.4051ZM19.5492 17.0266C19.8371 16.9582 20.2902 17.3002 20.4831 16.71C20.7148 16.0003 21.0567 15.3213 21.2282 14.5993C21.3619 14.0367 21.4089 13.4138 21.317 12.846C21.1813 12.0066 20.6444 11.4072 19.7942 11.1672C19.0165 10.9477 18.402 11.2653 17.8795 11.8197C17.7396 11.9678 17.5784 12.1077 17.4824 12.2823C16.6843 13.7375 15.8616 15.1814 15.1227 16.6671C14.5164 17.8864 14.0867 19.1792 13.9877 20.5577C13.9183 21.5135 14.1888 22.3498 14.9165 22.986C15.4728 23.4721 16.1209 23.7702 16.8843 23.5466C17.4702 23.3751 17.5641 23.0187 17.1895 22.5469C17.0313 22.3478 16.8721 22.1446 16.7476 21.925C16.1076 20.7946 16.0076 19.6274 16.6577 18.4786C17.2742 17.3911 18.2969 17.0133 19.5482 17.0266H19.5492Z" fill="#FFFDF4"/>
</svg>
