<svg width="674" height="520" viewBox="0 0 674 520" fill="none" xmlns="http://www.w3.org/2000/svg">
<path d="M330.467 65.2113C334.154 58.5693 337.462 52.1 341.235 45.9331C345.71 38.624 350.05 31.0947 355.53 24.5659C358.934 20.7257 363.341 17.9096 368.256 16.4333C380.692 12.7249 391.69 23.7814 387.647 36.1262C385.466 42.1588 381.985 47.6376 377.449 52.1738C371.198 58.6187 363.802 63.9719 356.755 69.6168C353.252 72.4217 349.437 74.8215 345.719 77.425L348.475 82.0258C353.382 90.0429 353.114 96.8959 347.169 103.966C319.722 136.537 292.224 169.059 264.674 201.534C258.284 209.069 252.088 209.835 239.355 204.796C236.241 210.426 233.218 216.338 229.647 221.862C223.969 230.682 218.309 239.582 211.832 247.784C209.91 250.301 207.323 252.23 204.362 253.351C201.401 254.473 198.185 254.743 195.078 254.131C183.284 252.007 177.503 239.809 184.287 228.703C188.871 221.196 195.662 214.814 202.229 208.736C208.797 202.657 216.245 197.452 223.573 191.716L220.89 186.888C216.546 179.234 216.877 172.686 222.487 166.013C249.908 133.44 277.382 100.893 304.911 68.3736C312.146 59.8392 320.686 60.1064 330.467 65.2113ZM187.341 236.835C189.067 240.069 189.943 244.367 192.354 245.524C195.312 246.938 200.876 247.256 202.928 245.407C209.051 239.787 214.493 233.467 219.143 226.579C224.201 219.141 227.988 210.848 232.436 202.991C234.713 198.97 238.297 196.692 242.677 199.016C251.695 203.817 257.342 199.847 263.06 192.989C284.007 167.874 305.29 143.05 326.419 118.069C331.836 111.664 337.218 105.217 342.222 98.5015C345.418 94.228 346.582 88.6383 342.305 84.9096C336.021 79.4518 339.168 75.7188 343.307 71.7786C345.937 69.2827 349.078 67.301 351.817 64.8929C359.863 57.8476 368.024 50.813 375.73 43.3601C378.241 40.7127 380.089 37.5072 381.12 34.0071C383.095 27.7784 379.041 22.2015 372.615 22.9336C368.423 23.472 364.519 25.3579 361.492 28.3071C357.047 33.2559 353.143 38.6648 349.846 44.4419C345.032 52.3298 340.784 60.5552 336.178 68.5789C333.954 72.4488 330.97 73.9908 326.52 71.5827C317.687 66.7468 314.991 67.2772 308.393 74.9489C300.677 83.9191 293.079 93.004 285.447 102.047C266.706 124.259 247.983 146.456 229.279 168.637C223.085 176.008 223.062 178.653 229.144 185.883C232.254 189.595 232.271 192.802 228.698 195.951C225.125 199.1 221.8 201.804 218.367 204.706C210.667 211.238 202.678 217.536 195.408 224.471C192.096 227.605 190.258 232.211 187.341 236.835Z" fill="#2E422C"/>
<path d="M127.5 60L153.269 113.289L209.171 93.8292L189.711 149.731L243 175.5L189.711 201.269L209.171 257.171L153.269 237.711L127.5 291L101.731 237.711L45.8292 257.171L65.2892 201.269L12 175.5L65.2892 149.731L45.8292 93.8292L101.731 113.289L127.5 60Z" fill="#2E422C"/>
</svg>
