<svg width="38" height="54" viewBox="0 0 38 54" fill="none" xmlns="http://www.w3.org/2000/svg">
<g clip-path="url(#clip0_2881_1701)">
<path d="M19 25.65C17.2003 25.65 15.4743 24.9388 14.2018 23.673C12.9292 22.4071 12.2143 20.6902 12.2143 18.9C12.2143 17.1098 12.9292 15.3929 14.2018 14.127C15.4743 12.8612 17.2003 12.15 19 12.15C20.7997 12.15 22.5257 12.8612 23.7982 14.127C25.0708 15.3929 25.7857 17.1098 25.7857 18.9C25.7857 19.7864 25.6102 20.6642 25.2692 21.4831C24.9282 22.3021 24.4283 23.0462 23.7982 23.673C23.1681 24.2998 22.4201 24.797 21.5968 25.1362C20.7735 25.4754 19.8911 25.65 19 25.65ZM19 0C13.9609 0 9.12816 1.99124 5.56497 5.53568C2.00178 9.08012 0 13.8874 0 18.9C0 33.075 19 54 19 54C19 54 38 33.075 38 18.9C38 13.8874 35.9982 9.08012 32.435 5.53568C28.8718 1.99124 24.0391 0 19 0Z" fill="#CE0000"/>
</g>
<defs>
<clipPath id="clip0_2881_1701">
<rect width="38" height="54" fill="white"/>
</clipPath>
</defs>
</svg>
