<svg width="1440" height="435" viewBox="0 0 1440 435" fill="none" xmlns="http://www.w3.org/2000/svg">
<g filter="url(#filter0_d_2426_2963)">
<path d="M1490.81 415.809C1471.98 361.309 1372.3 239.009 1184.42 241.809C949.566 245.309 552.961 436.309 420.241 241.809C287.521 47.3092 36.5972 16.3092 -6.43309 38.8092" stroke="#FFFDF4" stroke-width="65"/>
<path d="M1448.06 384.274L1445.15 379.238L1444.5 378.117C1442.2 374.143 1443.22 369.959 1447.33 367.583L1450.56 365.719C1452.13 364.81 1453.7 364.43 1455.17 364.525C1455.77 362.972 1456.97 361.597 1458.74 360.574L1461.99 358.698C1466.1 356.322 1470.23 357.528 1472.53 361.502L1473.36 362.938L1476.27 367.974L1464.68 374.669L1459.64 377.579L1453.09 381.364L1448.06 384.274ZM1450.18 376.328L1456.73 372.543L1456.09 371.422C1455.29 370.045 1454.59 370.107 1453.47 370.755L1450.24 372.619C1449.14 373.256 1448.74 373.83 1449.54 375.207L1450.18 376.328ZM1460.92 368.208C1461 368.295 1461.05 368.394 1461.12 368.512L1461.77 369.633L1468.32 365.848L1467.49 364.412C1466.7 363.035 1466 363.097 1464.9 363.734L1461.65 365.61C1460.55 366.246 1460.14 366.82 1460.94 368.197L1460.92 368.208ZM1439.31 369.58L1436.01 364.792L1434.39 362.455L1459.15 340.961L1462.44 345.73L1459.48 348.292L1461.45 351.134L1464.89 349.283L1468.19 354.071L1439.31 369.58ZM1447.73 358.499L1456.3 353.913L1455.07 352.137L1447.73 358.499ZM1433.01 360.4L1429.35 355.884L1435.59 350.815L1426.71 352.638L1423.04 348.123L1440.24 344.612L1448.34 327.59L1452.01 332.106L1447.8 340.907L1454.64 335.351L1458.31 339.867L1441.99 353.112L1433.01 360.4ZM1423.45 348.595L1419.48 344.337L1413.59 338.001L1417.84 334.038L1423.74 340.375L1429.28 335.22L1424.23 329.799L1428.49 325.836L1433.54 331.258L1439.07 326.104L1433.18 319.767L1437.43 315.805L1443.33 322.141L1447.29 326.399L1443.04 330.361L1437.5 335.516L1433.24 339.478L1427.7 344.632L1423.45 348.595ZM1414.03 338.462L1409.8 334.471L1408.11 332.88C1404.79 329.746 1404.57 325.445 1407.83 321.992L1419.59 309.533C1422.85 306.079 1427.15 306.051 1430.47 309.185L1432.16 310.775L1436.39 314.767L1414.03 338.462ZM1413.79 330.241L1428.17 315.006L1426.48 313.415C1425.32 312.323 1424.69 312.599 1423.82 313.524L1412.06 325.983C1411.19 326.909 1410.95 327.558 1412.1 328.65L1413.79 330.241ZM1397.36 323.211L1384.85 313.542L1388.41 308.94L1392.36 311.996L1408.73 290.819L1413.33 294.375L1396.97 315.553L1400.92 318.609L1397.36 323.211ZM1382.62 305.019C1383.93 305.915 1384.52 305.543 1385.23 304.492L1394.88 290.337C1395.6 289.286 1395.73 288.607 1394.42 287.711L1394.04 287.455C1392.73 286.559 1392.15 286.931 1391.43 287.982L1381.78 302.137C1381.06 303.188 1380.93 303.868 1382.24 304.763L1382.62 305.019ZM1379.34 309.825L1378.97 309.569C1375.19 306.997 1374.3 302.784 1376.97 298.861L1386.62 284.706C1389.3 280.783 1393.55 280.077 1397.32 282.649L1397.69 282.905C1401.49 285.49 1402.36 289.69 1399.69 293.613L1390.04 307.768C1387.37 311.691 1383.14 312.41 1379.34 309.825ZM1366.19 301.311L1361.11 298.476L1359.98 297.845C1355.97 295.608 1354.71 291.493 1357.02 287.346L1358.84 284.093C1361.15 279.946 1365.33 278.845 1369.34 281.082L1370.47 281.713L1376.99 270.028L1382.07 272.862L1375.55 284.547L1372.71 289.626L1369.02 296.232L1366.19 301.311ZM1363.95 293.398L1367.63 286.791L1366.5 286.16C1365.11 285.385 1364.55 285.797 1363.91 286.927L1362.1 290.181C1361.48 291.292 1361.43 291.991 1362.81 292.766L1363.95 293.398ZM1353.61 294.289L1348.38 291.734L1340.61 287.93L1343.16 282.705L1350.94 286.509L1354.26 279.713L1347.61 276.458L1350.16 271.234L1356.82 274.488L1360.14 267.692L1352.37 263.888L1354.92 258.664L1362.7 262.467L1367.92 265.023L1365.37 270.248L1362.04 277.044L1359.49 282.269L1356.16 289.065L1353.61 294.289ZM1340.84 288.046L1335.48 285.771L1334.29 285.265C1330.07 283.47 1328.37 279.514 1330.22 275.144L1331.68 271.714C1332.88 268.891 1334.98 267.265 1337.44 266.929L1339.27 251.983L1344.63 254.257L1342.93 268.075L1342.99 268.102L1348.22 255.785L1353.58 258.06L1348.34 270.376L1346.07 275.729L1343.11 282.693L1340.84 288.046ZM1337.76 280.418L1340.72 273.455L1339.52 272.949C1338.06 272.327 1337.54 272.797 1337.03 273.989L1335.58 277.418C1335.08 278.589 1335.1 279.29 1336.57 279.912L1337.76 280.418ZM1326.83 282.098L1321.37 280.103L1313.23 277.134L1315.23 271.671L1323.36 274.64L1325.96 267.533L1319 264.993L1320.99 259.529L1327.95 262.07L1332.54 249.5L1338 251.495L1333.41 264.065L1331.42 269.528L1328.82 276.635L1326.83 282.098ZM1313.29 277.163L1307.74 275.428L1299.48 272.847L1301.21 267.295L1309.48 269.877L1311.73 262.655L1304.66 260.446L1306.4 254.895L1313.47 257.104L1315.72 249.882L1307.46 247.301L1309.2 241.749L1317.46 244.331L1323.01 246.065L1321.28 251.617L1319.02 258.838L1317.28 264.39L1315.03 271.611L1313.29 277.163ZM1292.6 271.076L1292.16 270.961C1287.74 269.815 1285.48 266.153 1286.67 261.556L1287.5 258.368L1293.13 259.828L1292.3 263.016C1291.98 264.248 1292.09 264.932 1293.62 265.331L1294.06 265.445C1295.6 265.845 1296.03 265.297 1296.35 264.066L1300.65 247.484C1300.97 246.252 1300.86 245.568 1299.32 245.169L1298.88 245.055C1297.34 244.655 1296.92 245.203 1296.6 246.434L1295.77 249.623L1290.14 248.163L1290.97 244.974C1292.16 240.378 1295.92 238.278 1300.34 239.425L1300.78 239.539C1305.23 240.691 1307.47 244.347 1306.28 248.944L1301.98 265.526C1300.79 270.122 1297.05 272.228 1292.6 271.076ZM1284.91 269.065L1269.43 265.825L1270.63 260.132L1275.52 261.156L1281 234.96L1286.69 236.152L1281.21 262.348L1286.1 263.372L1284.91 269.065ZM1269.11 265.756L1263.39 264.745L1269.05 232.661L1274.77 233.671L1269.11 265.756ZM1256.69 257.892C1258.26 258.122 1258.63 257.531 1258.81 256.272L1261.28 239.321C1261.46 238.062 1261.29 237.393 1259.71 237.164L1259.26 237.098C1257.69 236.869 1257.33 237.459 1257.14 238.718L1254.67 255.669C1254.49 256.928 1254.67 257.597 1256.24 257.827L1256.69 257.892ZM1255.85 263.648L1255.4 263.582C1250.88 262.923 1248.23 259.529 1248.92 254.83L1251.39 237.879C1252.07 233.18 1255.58 230.684 1260.1 231.343L1260.55 231.408C1265.09 232.07 1267.72 235.461 1267.04 240.16L1264.56 257.112C1263.88 261.81 1260.39 264.31 1255.85 263.648ZM1247.83 262.487L1242.04 261.893L1239.33 247.364L1237.88 261.467L1232.09 260.873L1235.42 228.463L1235.78 228.5L1241.21 229.057L1243.92 243.586L1245.36 229.483L1251.15 230.077L1247.83 262.487ZM1224.2 246.895L1208.4 246.233L1208.64 240.445L1224.44 241.106L1224.2 246.895ZM1192 259.597L1191.54 259.603C1186.98 259.669 1183.82 256.738 1183.75 251.99L1183.73 250.445L1189.55 250.361L1189.57 251.906C1189.59 253.178 1189.87 253.811 1191.46 253.788L1191.91 253.781C1193.5 253.758 1193.77 253.118 1193.75 251.846L1193.73 250.301C1193.66 245.849 1183.62 243.153 1183.53 236.406L1183.51 234.861C1183.44 230.113 1186.51 227.092 1191.07 227.027L1191.53 227.02C1196.12 226.954 1199.25 229.885 1199.32 234.633L1199.34 236.178L1193.52 236.262L1193.5 234.717C1193.48 233.445 1193.2 232.813 1191.61 232.836L1191.16 232.842C1189.57 232.865 1189.3 233.505 1189.32 234.777L1189.34 236.322C1189.39 241.207 1199.31 243.904 1199.54 250.217L1199.56 251.762C1199.63 256.51 1196.59 259.53 1192 259.597ZM1183.49 259.732L1177.68 259.992L1169.03 260.379L1168.77 254.568L1177.42 254.181L1177.08 246.623L1169.68 246.954L1169.42 241.144L1176.82 240.813L1176.48 233.255L1167.83 233.642L1167.57 227.831L1176.22 227.444L1182.03 227.184L1182.29 232.995L1182.63 240.553L1182.89 246.363L1183.23 253.922L1183.49 259.732ZM1168.54 260.413L1162.74 260.848L1154.11 261.496L1153.67 255.696L1162.31 255.049L1161.74 247.504L1154.35 248.059L1153.92 242.259L1161.3 241.704L1160.74 234.16L1152.11 234.808L1151.67 229.008L1160.3 228.36L1166.1 227.924L1166.54 233.724L1167.1 241.269L1167.54 247.069L1168.11 254.613L1168.54 260.413ZM1153.38 261.563L1147.59 262.131L1142.05 248.43L1143.43 262.539L1137.64 263.107L1134.46 230.682L1134.82 230.647L1140.25 230.114L1145.79 243.816L1144.41 229.706L1150.2 229.139L1153.38 261.563ZM1128.1 264.22L1122.33 264.937L1118.31 232.606L1124.08 231.889L1128.1 264.22ZM1121.45 265.056L1115.69 265.858L1109.59 252.392L1111.55 266.434L1105.79 267.235L1101.3 234.966L1101.66 234.916L1107.06 234.165L1113.15 247.63L1111.2 233.589L1116.96 232.787L1121.45 265.056ZM1095.73 268.753L1089.99 269.685L1081.45 271.071L1080.52 265.33L1089.06 263.943L1087.85 256.475L1080.54 257.662L1079.61 251.921L1086.92 250.734L1085.71 243.266L1077.16 244.653L1076.23 238.911L1084.77 237.525L1090.51 236.594L1091.45 242.335L1092.66 249.803L1093.59 255.544L1094.8 263.012L1095.73 268.753ZM1080.8 271.179L1075.07 272.175L1069.63 253.474L1070.82 272.915L1065.11 273.907L1063.11 241.186L1065.91 240.699L1068.82 240.193L1071.64 239.703L1080.8 271.179ZM1064.06 274.097L1058.34 275.15L1049.83 276.716L1048.78 270.996L1057.29 269.429L1055.92 261.989L1048.64 263.329L1047.58 257.609L1054.87 256.269L1053.5 248.828L1044.99 250.395L1043.93 244.674L1052.45 243.108L1058.17 242.055L1059.22 247.775L1060.59 255.216L1061.64 260.936L1063.01 268.377L1064.06 274.097ZM1048.65 276.941L1042.93 278.041L1041.66 278.286C1037.16 279.154 1033.54 276.821 1032.64 272.158L1031.93 268.499C1031.35 265.487 1032.19 262.967 1034.04 261.314L1027.22 247.889L1032.93 246.789L1039.24 259.203L1039.3 259.19L1036.77 246.049L1042.48 244.949L1045.01 258.089L1046.11 263.801L1047.55 271.23L1048.65 276.941ZM1041.83 272.33L1040.4 264.901L1039.13 265.146C1037.57 265.447 1037.4 266.127 1037.64 267.399L1038.35 271.058C1038.59 272.307 1039 272.876 1040.56 272.575L1041.83 272.33ZM1034.83 279.605L1029.13 280.748L1025.65 274.008L1025.03 281.57L1019.33 282.713L1020.81 264.689L1017.82 249.786L1023.53 248.643L1026.51 263.546L1034.83 279.605ZM1009.3 284.781L1003.6 285.961L1001.33 286.431C996.859 287.357 993.207 285.074 992.244 280.424L988.77 263.649C987.807 259 990.251 255.454 994.723 254.528L996.992 254.058L1002.69 252.878L1009.3 284.781ZM1002.42 280.265L998.171 259.753L995.902 260.223C994.345 260.546 994.207 261.224 994.465 262.47L997.939 279.244C998.197 280.49 998.593 281.058 1000.15 280.735L1002.42 280.265ZM992.664 288.23L986.976 289.444L978.51 291.249L977.297 285.561L985.763 283.755L984.185 276.356L976.941 277.901L975.728 272.212L982.972 270.668L981.394 263.268L972.928 265.074L971.715 259.385L980.181 257.58L985.869 256.367L987.082 262.055L988.66 269.454L989.873 275.143L991.451 282.542L992.664 288.23ZM977.546 291.455L962.084 294.77L960.865 289.083L965.752 288.035L960.141 261.866L965.828 260.647L971.439 286.816L976.326 285.768L977.546 291.455ZM959.496 295.335L953.812 296.568L951.036 297.17L940.578 266.101L946.24 264.873L947.485 268.578L950.86 267.846L950.458 263.958L956.142 262.725L959.496 295.335ZM952.452 283.332L951.471 273.665L949.362 274.122L952.452 283.332ZM946.573 298.138L940.889 299.371L933.983 267.531L939.667 266.298L946.573 298.138ZM939.53 299.665L933.844 300.893L928.194 274.732L919.733 276.56L918.505 270.875L926.966 269.047L932.651 267.819L933.879 273.504L939.53 299.665ZM915.057 304.951L909.372 306.179L908.106 306.452C903.62 307.421 899.949 305.169 898.947 300.528L898.16 296.886C897.776 295.109 897.894 293.503 898.435 292.131C897.14 291.086 896.198 289.523 895.766 287.524L894.974 283.86C893.972 279.219 896.386 275.652 900.872 274.684L902.493 274.333L908.178 273.105L911.003 286.186L912.231 291.871L913.829 299.266L915.057 304.951ZM908.144 300.494L906.546 293.099L905.281 293.372C903.726 293.708 903.572 294.392 903.845 295.658L904.632 299.3C904.9 300.544 905.323 301.103 906.878 300.767L908.144 300.494ZM903.702 287.786C903.808 287.74 903.919 287.716 904.053 287.687L905.318 287.414L903.721 280.018L902.1 280.369C900.545 280.704 900.391 281.389 900.66 282.632L901.451 286.296C901.72 287.54 902.143 288.1 903.697 287.764L903.702 287.786ZM895.765 309.116L890.08 310.341L887.304 310.94L876.886 279.857L882.55 278.636L883.79 282.343L887.166 281.615L886.77 277.727L892.455 276.501L895.765 309.116ZM888.738 297.104L887.77 287.435L885.66 287.89L888.738 297.104ZM882.191 312.035L876.497 313.224L874.853 305.351L872.405 314.079L866.712 315.268L871.47 298.375L860.051 283.376L865.745 282.187L871.639 289.961L869.837 281.332L875.53 280.143L879.827 300.715L882.191 312.035ZM865.053 315.611L859.356 316.782L850.877 318.525L849.706 312.827L858.185 311.085L856.662 303.674L849.407 305.165L848.236 299.468L855.491 297.977L853.968 290.566L845.489 292.309L844.318 286.612L852.797 284.869L858.494 283.698L859.665 289.395L861.188 296.806L862.359 302.503L863.882 309.914L865.053 315.611ZM849.256 318.852L843.552 319.992L841.28 320.446C836.802 321.341 833.166 319.033 832.235 314.376L828.878 297.578C827.948 292.922 830.416 289.393 834.895 288.498L837.167 288.044L842.87 286.904L849.256 318.852ZM842.412 314.289L838.307 293.747L836.034 294.202C834.475 294.513 834.332 295.19 834.582 296.438L837.939 313.237C838.188 314.484 838.58 315.055 840.14 314.743L842.412 314.289ZM823.59 323.944L808.051 326.873L806.974 321.157L811.885 320.231L806.927 293.931L812.643 292.853L817.601 319.154L822.513 318.228L823.59 323.944ZM798.305 322.723C799.871 322.441 800.026 321.766 799.801 320.514L796.766 303.655C796.541 302.402 796.16 301.825 794.594 302.106L794.147 302.187C792.582 302.469 792.426 303.143 792.652 304.395L795.687 321.255C795.912 322.507 796.293 323.085 797.858 322.803L798.305 322.723ZM799.336 328.447L798.889 328.527C794.394 329.336 790.804 326.959 789.962 322.285L786.927 305.426C786.086 300.752 788.622 297.272 793.117 296.463L793.564 296.382C798.081 295.569 801.649 297.951 802.49 302.624L805.525 319.484C806.366 324.157 803.853 327.634 799.336 328.447ZM780.531 331.747L774.791 332.689L773.513 332.898C768.984 333.641 765.431 331.207 764.663 326.521L764.06 322.844C763.292 318.159 765.878 314.695 770.407 313.953L771.685 313.743L769.52 300.538L775.259 299.597L777.425 312.802L778.366 318.542L779.59 326.008L780.531 331.747ZM773.85 326.949L772.626 319.483L771.348 319.692C769.779 319.95 769.59 320.625 769.8 321.903L770.403 325.58C770.608 326.836 771.003 327.416 772.572 327.158L773.85 326.949ZM764.207 334.412L758.457 335.288L749.899 336.593L749.023 330.844L757.58 329.539L756.439 322.059L749.117 323.176L748.241 317.426L755.563 316.31L754.422 308.83L745.865 310.135L744.988 304.386L753.545 303.081L759.295 302.204L760.172 307.954L761.312 315.433L762.189 321.183L763.33 328.662L764.207 334.412ZM748.029 336.864L742.268 337.668L740.986 337.847C736.44 338.481 732.946 335.964 732.29 331.261L731.775 327.571C731.351 324.533 732.314 322.059 734.253 320.503L728.135 306.744L733.896 305.941L739.548 318.664L739.615 318.654L737.766 305.401L743.527 304.597L745.376 317.85L746.18 323.611L747.225 331.104L748.029 336.864ZM741.465 331.908L740.419 324.415L739.137 324.594C737.561 324.813 737.357 325.484 737.536 326.767L738.051 330.457C738.226 331.717 738.607 332.306 740.182 332.087L741.465 331.908ZM730.819 339.249L725.048 339.969L716.458 341.041L715.738 335.27L724.327 334.198L723.39 326.69L716.041 327.608L715.32 321.836L722.67 320.919L721.012 307.64L726.784 306.92L728.441 320.199L729.162 325.97L730.099 333.477L730.819 339.249ZM714.413 341.275L708.629 341.892L700.022 342.811L699.405 337.027L708.012 336.109L707.209 328.586L699.845 329.372L699.227 323.589L706.592 322.803L705.789 315.28L697.182 316.198L696.565 310.415L705.172 309.496L710.956 308.879L711.573 314.662L712.376 322.185L712.993 327.969L713.796 335.492L714.413 341.275ZM690.755 343.643L690.302 343.683C685.753 344.083 682.392 341.391 681.975 336.661L681.687 333.379L687.48 332.869L687.769 336.151C687.881 337.418 688.208 338.028 689.792 337.889L690.245 337.849C691.829 337.71 692.045 337.052 691.934 335.784L690.431 318.72C690.32 317.452 689.992 316.843 688.408 316.982L687.955 317.022C686.371 317.161 686.155 317.819 686.267 319.086L686.556 322.368L680.762 322.878L680.473 319.596C680.057 314.866 682.896 311.629 687.445 311.228L687.898 311.188C692.47 310.786 695.809 313.48 696.225 318.21L697.727 335.274C698.144 340.005 695.327 343.24 690.755 343.643ZM680.621 344.518L664.844 345.578L664.454 339.775L669.441 339.44L667.647 312.736L673.45 312.347L675.244 339.05L680.231 338.715L680.621 344.518ZM662.86 345.697L657.051 345.975L655.49 313.433L661.3 313.154L662.86 345.697ZM647.746 340.46C649.336 340.41 649.589 339.766 649.549 338.494L649.012 321.372C648.972 320.1 648.679 319.473 647.09 319.523L646.635 319.537C645.046 319.587 644.793 320.231 644.833 321.503L645.37 338.625C645.41 339.897 645.703 340.524 647.292 340.474L647.746 340.46ZM647.929 346.274L647.475 346.288C642.91 346.431 639.706 343.554 639.557 338.808L639.02 321.685C638.871 316.939 641.889 313.867 646.453 313.724L646.907 313.709C651.494 313.566 654.676 316.443 654.825 321.19L655.362 338.312C655.511 343.058 652.516 346.13 647.929 346.274ZM637.524 346.562L631.708 346.581L627.48 332.418L627.528 346.595L621.712 346.615L621.603 314.035L621.966 314.033L627.419 314.015L631.647 328.178L631.599 314.001L637.415 313.982L637.524 346.562ZM610.182 332.972L594.389 332.17L594.683 326.384L610.476 327.186L610.182 332.972ZM574.077 343.702L573.626 343.651C569.089 343.133 566.333 339.823 566.872 335.105L567.047 333.57L572.826 334.229L572.65 335.764C572.506 337.029 572.705 337.691 574.285 337.872L574.737 337.923C576.317 338.104 576.66 337.502 576.804 336.238L576.979 334.703C577.484 330.279 567.873 326.324 568.638 319.62L568.813 318.085C569.352 313.367 572.782 310.763 577.319 311.28L577.77 311.332C582.33 311.852 585.063 315.16 584.524 319.877L584.349 321.412L578.571 320.753L578.746 319.218C578.89 317.954 578.691 317.291 577.111 317.111L576.66 317.059C575.079 316.879 574.736 317.48 574.592 318.744L574.417 320.279C573.841 325.13 583.338 329.072 582.758 335.363L582.583 336.898C582.044 341.615 578.637 344.222 574.077 343.702ZM563.154 342.378L557.412 341.452L548.867 340.074L549.793 334.332L558.338 335.71L559.543 328.241L552.231 327.062L553.157 321.32L560.469 322.499L561.674 315.03L553.128 313.652L554.054 307.91L562.6 309.288L568.342 310.214L567.416 315.956L566.211 323.425L565.285 329.167L564.08 336.636L563.154 342.378ZM545.798 339.491L540.11 338.275L531.645 336.466L532.861 330.779L541.326 332.587L542.907 325.189L535.663 323.641L536.879 317.953L544.122 319.501L545.703 312.102L537.238 310.293L538.453 304.606L546.918 306.414L552.606 307.63L551.391 313.317L549.81 320.716L548.594 326.404L547.014 333.803L545.798 339.491ZM528.322 335.641L522.717 334.087L522.475 319.309L518.688 332.971L513.084 331.417L521.786 300.021L522.136 300.118L527.391 301.574L527.632 316.353L531.419 302.691L537.024 304.245L528.322 335.641ZM500.502 327.26L495.052 325.23L506.423 294.699L511.873 296.729L500.502 327.26ZM492.123 324.033L486.793 321.705L488.637 307.04L482.962 320.031L477.632 317.703L490.673 287.847L491.007 287.993L496.003 290.175L494.16 304.84L499.834 291.848L505.164 294.177L492.123 324.033ZM464.215 310.77L459.23 307.774L451.81 303.316L454.805 298.33L462.225 302.789L466.122 296.304L459.773 292.489L462.769 287.503L469.117 291.318L473.014 284.833L465.594 280.375L468.59 275.389L476.01 279.847L480.995 282.843L478 287.829L474.103 294.314L471.107 299.299L467.211 305.784L464.215 310.77ZM448.537 301.15L443.838 297.722L453.504 280.813L440.351 295.178L435.671 291.763L457.811 267.587L460.105 269.261L462.491 271.001L464.804 272.689L448.537 301.15ZM432.275 289.012L427.911 285.167L421.416 279.445L425.26 275.081L431.756 280.803L436.757 275.126L431.199 270.23L435.044 265.866L440.602 270.762L445.603 265.085L439.108 259.363L442.953 254.999L449.448 260.721L453.812 264.566L449.967 268.93L444.966 274.607L441.121 278.971L436.12 284.648L432.275 289.012ZM418.35 276.481L414.332 272.276L413.437 271.34C410.266 268.022 410.267 263.716 413.7 260.435L416.393 257.861C418.611 255.741 421.181 255.076 423.576 255.741L431.166 242.736L435.184 246.941L428.163 258.962L428.21 259.012L437.884 249.766L441.903 253.97L432.229 263.216L428.024 267.235L422.555 272.462L418.35 276.481ZM418.536 268.258L424.006 263.03L423.111 262.094C422.012 260.944 421.348 261.17 420.412 262.065L417.718 264.64C416.799 265.519 416.543 266.172 417.642 267.321L418.536 268.258ZM406.594 263.937L402.963 259.393L407.356 253.208L400.353 256.127L396.723 251.583L413.421 244.639L425.296 235.151L428.926 239.694L417.052 249.182L406.594 263.937ZM389.799 241.979L386.366 237.284L384.999 235.413C382.303 231.726 382.869 227.457 386.702 224.655L400.531 214.544C404.364 211.742 408.604 212.498 411.299 216.184L412.667 218.055L416.1 222.75L389.799 241.979ZM391.062 233.851L407.972 221.488L406.604 219.617C405.665 218.333 404.991 218.489 403.964 219.239L390.135 229.35C389.108 230.101 388.755 230.696 389.694 231.98L391.062 233.851ZM380.44 229.195L376.818 224.644L371.428 217.87L375.98 214.249L381.37 221.022L387.29 216.311L382.678 210.515L387.229 206.894L391.841 212.689L397.761 207.979L392.371 201.205L396.922 197.584L402.312 204.357L405.934 208.908L401.382 212.53L395.462 217.241L390.911 220.862L384.991 225.573L380.44 229.195ZM371.452 217.896L361.21 205.848L365.641 202.081L368.879 205.889L389.27 188.554L393.037 192.986L372.646 210.32L375.883 214.129L371.452 217.896ZM360.132 204.779L356.203 200.49L354.284 198.396L375.851 173.707L379.765 177.979L377.192 180.922L379.524 183.468L382.681 181.162L386.61 185.451L360.132 204.779ZM366.95 192.647L374.806 186.928L373.348 185.337L366.95 192.647ZM351.684 195.561L347.661 191.361L371.192 168.827L375.215 173.028L351.684 195.561ZM347.382 191.087L343.236 187.009L362.005 167.929L355.835 161.859L359.914 157.713L366.084 163.783L370.231 167.862L366.152 172.008L347.382 191.087ZM330.583 174.895L326.23 171.038L325.26 170.18C321.825 167.136 321.469 162.844 324.618 159.29L327.089 156.501C328.294 155.141 329.659 154.286 331.085 153.91C331.161 152.247 331.864 150.563 333.22 149.033L335.706 146.227C338.855 142.673 343.158 142.509 346.593 145.552L347.835 146.652L352.188 150.509L343.314 160.526L339.457 164.879L334.44 170.542L330.583 174.895ZM330.087 166.685L335.104 161.022L334.134 160.163C332.944 159.109 332.301 159.389 331.442 160.358L328.971 163.147C328.128 164.099 327.927 164.771 329.117 165.826L330.087 166.685ZM337.704 155.586C337.804 155.644 337.889 155.719 337.991 155.81L338.961 156.669L343.978 151.006L342.736 149.906C341.546 148.851 340.903 149.132 340.059 150.084L337.573 152.89C336.73 153.842 336.529 154.514 337.719 155.569L337.704 155.586ZM316.65 162.725L312.156 159.033L309.961 157.231L327.831 129.747L332.308 133.425L330.176 136.701L332.844 138.893L335.644 136.164L340.138 139.856L316.65 162.725ZM321.69 149.753L328.661 142.983L326.993 141.613L321.69 149.753ZM306.96 154.781L302.338 151.25L307.222 144.859L299.017 148.712L294.395 145.18L310.289 137.739L314.176 119.292L318.798 122.824L316.767 132.366L322.119 125.362L326.741 128.893L313.981 145.592L306.96 154.781ZM293.97 144.871L289.236 141.492L282.19 136.464L285.569 131.73L292.615 136.758L297.01 130.6L290.981 126.297L294.359 121.563L300.388 125.866L304.783 119.707L297.737 114.679L301.116 109.945L308.162 114.973L312.896 118.352L309.517 123.086L305.123 129.244L301.744 133.979L297.349 140.137L293.97 144.871ZM281.896 136.269L277.048 133.056L275.117 131.775C271.31 129.252 270.36 125.052 272.984 121.094L282.448 106.815C285.072 102.857 289.311 102.096 293.117 104.619L295.049 105.9L299.897 109.113L281.896 136.269ZM280.262 128.208L291.835 110.748L289.904 109.467C288.578 108.588 287.999 108.968 287.296 110.029L277.832 124.307C277.129 125.368 277.004 126.049 278.33 126.927L280.262 128.208ZM261.648 123.107L248.041 115.052L251.004 110.047L255.305 112.593L268.939 89.5624L273.944 92.5253L260.31 115.556L264.611 118.102L261.648 123.107ZM244.213 106.307C245.607 107.074 246.152 106.648 246.766 105.534L255.029 90.5275C255.642 89.413 255.71 88.7242 254.317 87.9571L253.919 87.738C252.526 86.9709 251.98 87.3966 251.367 88.5111L243.104 103.517C242.49 104.632 242.422 105.321 243.815 106.088L244.213 106.307ZM241.408 111.402L241.01 111.183C237.01 108.98 235.719 104.871 238.009 100.712L246.272 85.7057C248.562 81.5462 252.724 80.4403 256.725 82.643L257.123 82.8622C261.143 85.0758 262.414 89.1734 260.124 93.3329L251.861 108.339C249.571 112.499 245.428 113.615 241.408 111.402ZM226.361 103.377L221.14 100.813L219.978 100.243C215.858 98.22 214.376 94.1765 216.469 89.9141L218.111 86.5695C220.204 82.3071 224.319 80.9868 228.439 83.0095L229.601 83.5802L235.499 71.568L240.72 74.1313L234.822 86.1435L232.259 91.3645L228.925 98.1557L226.361 103.377ZM223.704 95.5924L227.038 88.8011L225.876 88.2304C224.448 87.5295 223.903 87.9703 223.332 89.1328L221.69 92.4775C221.129 93.6196 221.114 94.3208 222.541 95.0217L223.704 95.5924ZM212.745 96.7052L207.447 94.3053L199.562 90.7336L201.962 85.4355L209.847 89.0072L212.968 82.1156L206.222 79.0595L208.621 73.7615L215.368 76.8176L218.49 69.926L210.605 66.3543L213.005 61.0562L220.89 64.6279L226.188 67.0278L223.788 72.3259L220.666 79.2175L218.266 84.5155L215.145 91.4071L212.745 96.7052ZM199.074 90.5267L193.709 88.2817L192.514 87.7819C188.28 86.0105 186.558 82.0634 188.391 77.683L189.829 74.2457C191.013 71.4162 193.102 69.7782 195.563 69.4288L197.313 54.4731L202.679 56.718L201.056 70.545L201.119 70.5713L206.284 58.2264L211.65 60.4713L206.484 72.8162L204.239 78.1818L201.319 85.1612L199.074 90.5267ZM195.954 82.9162L198.874 75.9368L197.679 75.437C196.212 74.8231 195.694 75.296 195.194 76.4906L193.756 79.9279C193.265 81.1016 193.292 81.8025 194.759 82.4163L195.954 82.9162ZM184.361 84.3842L178.932 82.298L170.851 79.1931L172.938 73.7639L181.018 76.8688L183.732 69.8065L176.818 67.1499L178.904 61.7206L185.818 64.3773L190.618 51.8859L196.047 53.9721L191.247 66.4636L189.161 71.8928L186.447 78.955L184.361 84.3842ZM170.332 79.0073L164.846 77.076L156.681 74.2017L158.612 68.7154L166.777 71.5897L169.29 64.4533L162.303 61.994L164.234 56.5077L171.221 58.9671L173.733 51.8307L165.568 48.9564L167.499 43.4701L175.664 46.3444L181.151 48.2757L179.219 53.7619L176.707 60.8983L174.776 66.3846L172.264 73.521L170.332 79.0073ZM149.322 71.8537L148.889 71.7157C144.538 70.329 142.476 66.5481 143.918 62.0239L144.918 58.8851L150.46 60.6513L149.459 63.7901C149.073 65.0023 149.14 65.6912 150.655 66.1741L151.088 66.3121C152.603 66.7951 153.056 66.2717 153.442 65.0595L158.644 48.7377C159.031 47.5255 158.964 46.8366 157.449 46.3537L157.016 46.2157C155.501 45.7327 155.048 46.2561 154.661 47.4683L153.661 50.6071L148.119 48.8409L149.12 45.7021C150.562 41.1779 154.431 39.2874 158.782 40.6741L159.215 40.8121C163.588 42.2057 165.628 45.9797 164.186 50.5039L158.984 66.8257C157.542 71.3499 153.694 73.2473 149.322 71.8537ZM141.244 69.2776L126.036 64.9488L127.628 59.3547L132.435 60.723L139.762 34.9816L145.356 36.5738L138.029 62.3153L142.837 63.6836L141.244 69.2776ZM125.417 64.7748L119.789 63.3065L128.014 31.7817L133.641 33.25L125.417 64.7748ZM113.484 55.8314C115.031 56.1984 115.443 55.6423 115.737 54.4044L119.69 37.7361C119.984 36.4981 119.865 35.8162 118.318 35.4492L117.876 35.3443C116.328 34.9773 115.916 35.5334 115.623 36.7713L111.669 53.4396C111.376 54.6776 111.494 55.3595 113.041 55.7265L113.484 55.8314ZM112.141 61.4906L111.699 61.3857C107.256 60.3319 104.914 56.7176 106.01 52.0973L109.963 35.4291C111.059 30.8088 114.775 28.6312 119.218 29.6851L119.66 29.79C124.126 30.8491 126.445 34.4581 125.349 39.0783L121.396 55.7466C120.3 60.3669 116.607 62.5497 112.141 61.4906ZM103.955 59.5614L98.2538 58.4083L96.9671 43.6838L94.1564 57.5795L88.4556 56.4264L94.9149 24.493L95.2712 24.5651L100.616 25.6461L101.902 40.3706L104.713 26.4749L110.414 27.6281L103.955 59.5614ZM81.8956 41.7158L66.2425 39.4729L67.0643 33.7379L82.7173 35.9809L81.8956 41.7158ZM48.9326 51.2841L48.4795 51.2501C43.9256 50.9079 41.0448 47.7067 41.4006 42.9717L41.5164 41.4311L47.3163 41.8669L47.2005 43.4075C47.1052 44.6762 47.3294 45.331 48.9153 45.4502L49.3684 45.4842C50.9543 45.6034 51.2738 44.9894 51.3692 43.7207L51.4849 42.1801C51.8186 37.7396 42.0628 34.1585 42.5684 27.4298L42.6842 25.8892C43.04 21.1541 46.3668 18.4194 50.9207 18.7616L51.3738 18.7956C55.9503 19.1395 58.8085 22.3389 58.4527 27.074L58.3369 28.6146L52.537 28.1788L52.6528 26.6382C52.7481 25.3695 52.5239 24.7147 50.938 24.5955L50.4849 24.5615C48.899 24.4423 48.5794 25.0562 48.4841 26.325L48.3683 27.8656C47.9797 32.7349 57.6222 36.3074 57.2848 42.6159L57.1691 44.1565C56.8133 48.8916 53.5091 51.628 48.9326 51.2841ZM41.2507 50.7076L35.4356 50.5911L26.7811 50.4178L26.8976 44.6027L35.552 44.776L35.7036 37.2119L28.2984 37.0636L28.4149 31.2485L35.82 31.3968L35.9716 23.8327L27.3171 23.6593L27.4336 17.8442L36.088 18.0176L41.9031 18.1341L41.7866 23.9491L41.6351 31.5133L41.5186 37.3284L41.3671 44.8925L41.2507 50.7076ZM27.6974 50.4151L21.8894 50.7251L13.2455 51.1866L12.9354 45.3786L21.5793 44.9172L21.176 37.3623L13.7799 37.7571L13.4699 31.9491L20.866 31.5543L20.4627 23.9994L11.8188 24.4608L11.5087 18.6528L20.1527 18.1914L25.9606 17.8813L26.2707 23.6893L26.674 31.2442L26.984 37.0522L27.3873 44.6071L27.6974 50.4151ZM16.1618 50.8557L10.4486 51.946L3.68487 38.8037L6.34232 52.7296L0.62916 53.8198L-5.47785 21.8172L-5.12077 21.7491L0.23531 20.727L6.99908 33.8692L4.34164 19.9434L10.0548 18.8531L16.1618 50.8557Z" fill="#2E422C"/>
</g>
<defs>
<filter id="filter0_d_2426_2963" x="-25.4922" y="0" width="1551.02" height="434.426" filterUnits="userSpaceOnUse" color-interpolation-filters="sRGB">
<feFlood flood-opacity="0" result="BackgroundImageFix"/>
<feColorMatrix in="SourceAlpha" type="matrix" values="0 0 0 0 0 0 0 0 0 0 0 0 0 0 0 0 0 0 127 0" result="hardAlpha"/>
<feOffset dy="4"/>
<feGaussianBlur stdDeviation="2"/>
<feComposite in2="hardAlpha" operator="out"/>
<feColorMatrix type="matrix" values="0 0 0 0 0 0 0 0 0 0 0 0 0 0 0 0 0 0 0.25 0"/>
<feBlend mode="normal" in2="BackgroundImageFix" result="effect1_dropShadow_2426_2963"/>
<feBlend mode="normal" in="SourceGraphic" in2="effect1_dropShadow_2426_2963" result="shape"/>
</filter>
</defs>
</svg>
