<svg width="223" height="223" viewBox="0 0 223 223" fill="none" xmlns="http://www.w3.org/2000/svg">
<g filter="url(#filter0_d_2529_278)">
<rect x="69.064" width="168" height="168" rx="84" transform="rotate(24.2736 69.064 0)" fill="#2E422C" shape-rendering="crispEdges"/>
<path d="M151.334 83.6146C152.037 81.5285 152.215 79.3353 153.386 78.0799C154.2 77.2072 156.394 77.6222 157.974 77.4622C157.754 78.6007 157.476 79.7271 157.141 80.8371C156.677 82.1204 156.013 83.3368 155.448 84.5899L156.521 85.3183C157.407 84.6926 158.22 83.7045 159.188 83.5283C160.505 83.2717 161.869 83.415 163.105 83.94C163.741 84.2268 164.32 85.8276 164.108 86.6199C163.948 87.229 162.553 87.7096 161.645 87.874C160.109 88.063 158.563 88.1583 157.015 88.1592C156.614 90.8641 157.039 92.8083 160.015 93.5074C160.645 93.654 161.124 94.4437 161.671 94.9277C161.064 95.5422 160.351 96.7512 159.87 96.6643C157.451 96.2395 155.091 95.4814 152.423 94.7606C149.892 103.309 142.158 103.809 132.952 103.584C137.804 108.253 142.133 112.08 146.072 116.329C149.154 119.678 152.536 123.178 154.391 127.245C158.174 135.541 156.735 143.365 149.744 149.719C147.861 151.434 145.731 152.9 143.938 154.702C140.686 157.958 137.221 161.11 134.527 164.794C129.772 171.23 125.43 173.084 118.443 169.076C110.021 164.244 102.144 158.441 94.1131 152.945C80.6683 143.802 68.1713 133.338 56.8088 121.709C51.5782 116.334 50.7981 114.008 54.8487 107.69C58.8005 101.41 62.0917 94.7371 64.67 87.7789C67.6503 79.9991 74.2726 76.2957 82.6602 76.8251C92.807 77.4591 101.595 82.0573 110.376 86.6527C112.8 87.9141 115.187 89.2583 117.721 90.6309C118.825 79.4941 131.373 70.763 142.079 73.4325C147.187 74.7178 149.622 78.8395 151.334 83.6146ZM101.057 84.777C95.0789 83.5047 89.1565 81.5994 83.1165 81.1259C73.593 80.3827 65.5373 87.3663 63.9218 96.7873C63.4105 99.6185 63.3678 102.921 66.147 104.243C67.9598 105.061 70.7394 104.363 72.9129 103.735C75.2531 103.061 77.4049 101.582 79.79 103.354C82.2509 105.229 82.4818 107.721 82.0081 110.554C80.5068 119.552 82.3435 121.199 90.9275 118.679C97.8298 116.663 104.018 121.306 103.937 128.496C103.922 130.464 103.489 132.442 103.639 134.385C104.095 140.553 108.636 143.382 114.433 141.204C115.842 140.676 117.191 139.976 118.586 139.411C124.032 137.213 128.522 139.85 128.263 145.704C127.884 154.32 136.717 156.78 141.817 152.582C145.405 149.488 148.48 145.844 150.926 141.787C153.993 136.886 153.439 131.699 149.404 127.323C143.504 120.904 137.671 114.454 131.487 108.343C122.37 99.3484 112.658 91.0647 101.071 84.7452L101.057 84.777ZM130.921 98.4129L131.111 98.1773C132.63 98.7474 134.119 99.4186 135.699 99.8863C142.742 101.937 147.859 98.3816 147.821 91.0317C147.799 87.6848 146.738 84.1983 145.509 81.0184C144.488 78.3766 142.255 76.3517 139.034 76.7054C133.248 77.3492 128.018 79.3917 123.961 83.77C121.002 86.9364 121.073 90.6498 124.249 93.6207C126.215 95.4408 128.686 96.8003 130.935 98.3811L130.921 98.4129Z" fill="#FFFDF4"/>
<path d="M140.703 90.1082L140.038 95.4189C138.984 94.9895 137.291 94.823 136.981 94.0859C136.009 91.742 137.728 90.9175 140.703 90.1082Z" fill="#FFFDF4"/>
<path d="M127.794 94.3607C127.656 93.2576 127.118 91.9738 127.508 91.1087C127.898 90.2437 129.23 90.0405 130.153 89.5382C130.486 90.9208 131.12 92.332 131.028 93.6911C130.983 94.4361 129.729 95.1109 129.009 95.8424L127.794 94.3607Z" fill="#FFFDF4"/>
<path d="M133.652 80.7721C133.797 83.1335 134.03 84.517 133.878 85.8722C133.856 86.1073 131.736 86.5669 131.431 86.2075C131.076 85.7949 130.81 85.3134 130.649 84.7932C130.488 84.273 130.437 83.7253 130.498 83.1843C130.717 82.426 132.038 81.9578 133.652 80.7721Z" fill="#FFFDF4"/>
<path d="M139.107 86.5556C138.933 85.482 138.33 84.2226 138.696 83.3928C139.063 82.5631 140.416 82.3466 141.336 81.8507C141.693 83.198 142.328 84.556 142.278 85.8884C142.25 86.5797 141.001 87.2262 140.31 87.894L139.107 86.5556Z" fill="#FFFDF4"/>
</g>
<defs>
<filter id="filter0_d_2529_278" x="-6.92189" y="-1.87468" width="236.055" height="236.055" filterUnits="userSpaceOnUse" color-interpolation-filters="sRGB">
<feFlood flood-opacity="0" result="BackgroundImageFix"/>
<feColorMatrix in="SourceAlpha" type="matrix" values="0 0 0 0 0 0 0 0 0 0 0 0 0 0 0 0 0 0 127 0" result="hardAlpha"/>
<feOffset dy="5.04721"/>
<feGaussianBlur stdDeviation="3.46094"/>
<feComposite in2="hardAlpha" operator="out"/>
<feColorMatrix type="matrix" values="0 0 0 0 0 0 0 0 0 0 0 0 0 0 0 0 0 0 0.43 0"/>
<feBlend mode="normal" in2="BackgroundImageFix" result="effect1_dropShadow_2529_278"/>
<feBlend mode="normal" in="SourceGraphic" in2="effect1_dropShadow_2529_278" result="shape"/>
</filter>
</defs>
</svg>
