<svg width="169" height="25" viewBox="0 0 169 25" fill="none" xmlns="http://www.w3.org/2000/svg">
<path d="M13.1617 20.6619L6.16099 24.8797C5.95528 24.9811 5.76435 25.0221 5.58821 25.0029C5.41336 24.9823 5.243 24.9221 5.07714 24.822C4.91 24.7194 4.784 24.5744 4.69915 24.3871C4.61429 24.1998 4.60658 23.9952 4.676 23.7733L6.53899 15.8649L0.377244 10.5349C0.203674 10.3938 0.0892463 10.2251 0.033961 10.0289C-0.0213244 9.83259 -0.00911008 9.64466 0.0706037 9.46507C0.150317 9.28548 0.256388 9.13796 0.388816 9.02251C0.522529 8.9109 0.702529 8.83522 0.928813 8.79545L9.05962 8.08735L12.2302 0.598422C12.3176 0.386762 12.4436 0.234109 12.6082 0.140465C12.7727 0.0468218 12.9572 0 13.1617 0C13.3661 0 13.5512 0.0468218 13.7171 0.140465C13.8829 0.234109 14.0083 0.386762 14.0932 0.598422L17.2637 8.08735L25.3926 8.79545C25.6202 8.83394 25.8008 8.91026 25.9345 9.02443C26.0682 9.13732 26.1749 9.2842 26.2547 9.46507C26.3331 9.64466 26.3447 9.83259 26.2894 10.0289C26.2341 10.2251 26.1197 10.3938 25.9461 10.5349L19.7843 15.8649L21.6473 23.7733C21.7193 23.9927 21.7123 24.1966 21.6261 24.3852C21.54 24.5738 21.4133 24.7187 21.2462 24.8201C21.0816 24.9227 20.9113 24.9836 20.7351 25.0029C20.5603 25.0221 20.37 24.9811 20.1643 24.8797L13.1617 20.6619Z" fill="#918E8B"/>
<path d="M48.6988 20.6619L41.6981 24.8797C41.4924 24.9811 41.3015 25.0221 41.1253 25.0029C40.9505 24.9823 40.7801 24.9221 40.6143 24.822C40.4471 24.7194 40.3211 24.5744 40.2363 24.3871C40.1514 24.1998 40.1437 23.9952 40.2131 23.7733L42.0761 15.8649L35.9144 10.5349C35.7408 10.3938 35.6264 10.2251 35.5711 10.0289C35.5158 9.83259 35.528 9.64466 35.6077 9.46507C35.6874 9.28548 35.7935 9.13796 35.9259 9.02251C36.0596 8.9109 36.2396 8.83522 36.4659 8.79545L44.5967 8.08735L47.7673 0.598422C47.8547 0.386762 47.9807 0.234109 48.1453 0.140465C48.3098 0.0468218 48.4943 0 48.6988 0C48.9032 0 49.0883 0.0468218 49.2542 0.140465C49.4201 0.234109 49.5454 0.386762 49.6303 0.598422L52.8008 8.08735L60.9297 8.79545C61.1573 8.83394 61.3379 8.91026 61.4716 9.02443C61.6053 9.13732 61.712 9.2842 61.7918 9.46507C61.8702 9.64466 61.8818 9.83259 61.8265 10.0289C61.7712 10.2251 61.6568 10.3938 61.4832 10.5349L55.3214 15.8649L57.1844 23.7733C57.2564 23.9927 57.2494 24.1966 57.1632 24.3852C57.0771 24.5738 56.9504 24.7187 56.7833 24.8201C56.6187 24.9227 56.4484 24.9836 56.2722 25.0029C56.0974 25.0221 55.9071 24.9811 55.7014 24.8797L48.6988 20.6619Z" fill="#918E8B"/>
<path d="M84.2359 20.6619L77.2352 24.8797C77.0295 24.9811 76.8386 25.0221 76.6624 25.0029C76.4876 24.9823 76.3172 24.9221 76.1514 24.822C75.9842 24.7194 75.8582 24.5744 75.7734 24.3871C75.6885 24.1998 75.6808 23.9952 75.7502 23.7733L77.6132 15.8649L71.4515 10.5349C71.2779 10.3938 71.1635 10.2251 71.1082 10.0289C71.0529 9.83259 71.0651 9.64466 71.1448 9.46507C71.2245 9.28548 71.3306 9.13796 71.463 9.02251C71.5967 8.9109 71.7767 8.83522 72.003 8.79545L80.1338 8.08735L83.3044 0.598422C83.3918 0.386762 83.5178 0.234109 83.6824 0.140465C83.847 0.0468218 84.0315 0 84.2359 0C84.4403 0 84.6255 0.0468218 84.7913 0.140465C84.9572 0.234109 85.0825 0.386762 85.1674 0.598422L88.3379 8.08735L96.4668 8.79545C96.6944 8.83394 96.875 8.91026 97.0087 9.02443C97.1424 9.13732 97.2492 9.2842 97.3289 9.46507C97.4073 9.64466 97.4189 9.83259 97.3636 10.0289C97.3083 10.2251 97.1939 10.3938 97.0203 10.5349L90.8586 15.8649L92.7215 23.7733C92.7935 23.9927 92.7865 24.1966 92.7003 24.3852C92.6142 24.5738 92.4875 24.7187 92.3204 24.8201C92.1558 24.9227 91.9855 24.9836 91.8093 25.0029C91.6345 25.0221 91.4442 24.9811 91.2385 24.8797L84.2359 20.6619Z" fill="#918E8B"/>
<path d="M119.772 20.6619L112.771 24.8797C112.566 24.9811 112.375 25.0221 112.199 25.0029C112.024 24.9823 111.853 24.9221 111.687 24.822C111.52 24.7194 111.394 24.5744 111.309 24.3871C111.225 24.1998 111.217 23.9952 111.286 23.7733L113.149 15.8649L106.988 10.5349C106.814 10.3938 106.7 10.2251 106.644 10.0289C106.589 9.83259 106.601 9.64466 106.681 9.46507C106.761 9.28548 106.867 9.13796 106.999 9.02251C107.133 8.9109 107.313 8.83522 107.539 8.79545L115.67 8.08735L118.841 0.598422C118.928 0.386762 119.054 0.234109 119.219 0.140465C119.383 0.0468218 119.568 0 119.772 0C119.976 0 120.162 0.0468218 120.327 0.140465C120.493 0.234109 120.619 0.386762 120.704 0.598422L123.874 8.08735L132.003 8.79545C132.231 8.83394 132.411 8.91026 132.545 9.02443C132.679 9.13732 132.785 9.2842 132.865 9.46507C132.943 9.64466 132.955 9.83259 132.9 10.0289C132.844 10.2251 132.73 10.3938 132.556 10.5349L126.395 15.8649L128.258 23.7733C128.33 23.9927 128.323 24.1966 128.236 24.3852C128.15 24.5738 128.024 24.7187 127.857 24.8201C127.692 24.9227 127.522 24.9836 127.345 25.0029C127.171 25.0221 126.98 24.9811 126.775 24.8797L119.772 20.6619Z" fill="#918E8B"/>
<path d="M149.234 22.0531L155.309 18.3971L161.384 22.1012L159.793 15.1741L165.145 10.5561L158.106 9.93072L155.309 3.38849L152.513 9.88262L145.473 10.508L150.825 15.1741L149.234 22.0531ZM155.309 20.6619L148.308 24.8797C148.103 24.9811 147.912 25.0221 147.736 25.0029C147.561 24.9823 147.39 24.9221 147.225 24.822C147.057 24.7194 146.931 24.5744 146.847 24.3871C146.762 24.1998 146.754 23.9952 146.823 23.7733L148.686 15.8649L142.525 10.5349C142.351 10.3938 142.237 10.2251 142.181 10.0289C142.126 9.83259 142.138 9.64466 142.218 9.46507C142.298 9.28548 142.404 9.13796 142.536 9.02251C142.67 8.9109 142.85 8.83522 143.076 8.79545L151.207 8.08735L154.378 0.598422C154.465 0.386762 154.591 0.234109 154.756 0.140465C154.92 0.0468218 155.105 0 155.309 0C155.514 0 155.699 0.0468218 155.865 0.140465C156.03 0.234109 156.156 0.386762 156.241 0.598422L159.411 8.08735L167.54 8.79545C167.768 8.83394 167.948 8.91026 168.082 9.02443C168.216 9.13732 168.322 9.28419 168.402 9.46507C168.481 9.64466 168.492 9.83259 168.437 10.0289C168.382 10.2251 168.267 10.3938 168.094 10.5349L161.932 15.8649L163.795 23.7733C163.867 23.9927 163.86 24.1966 163.774 24.3852C163.687 24.5738 163.561 24.7187 163.394 24.8201C163.229 24.9227 163.059 24.9836 162.883 25.0029C162.708 25.0221 162.517 24.9811 162.312 24.8797L155.309 20.6619Z" fill="#918E8B"/>
</svg>
