<svg width="1440" height="435" viewBox="0 0 1440 435" fill="none" xmlns="http://www.w3.org/2000/svg">
<g filter="url(#filter0_d_2426_2958)">
<path d="M-44.8145 10.6167C-25.9779 65.1167 73.7004 187.417 261.582 184.617C496.434 181.117 893.039 -9.8833 1025.76 184.617C1158.48 379.117 1409.4 410.117 1452.43 387.617" stroke="#2E422C" stroke-width="65"/>
<path d="M-2.05778 42.1516L0.852169 47.1875L1.50009 48.3088C3.79622 52.2825 2.77649 56.4666 -1.3349 58.8423L-4.56107 60.7065C-6.13481 61.6159 -7.69983 61.9954 -9.17131 61.901C-9.76972 63.4538 -10.9692 64.8292 -12.7397 65.8522L-15.9855 67.7278C-20.0969 70.1035 -24.2312 68.8975 -26.5273 64.9238L-27.3571 63.4878L-30.2671 58.4518L-18.6804 51.7567L-13.6444 48.8467L-7.09375 45.0615L-2.05778 42.1516ZM-4.1838 50.0975L-10.7345 53.8827L-10.0866 55.004C-9.29089 56.381 -8.59231 56.3184 -7.47102 55.6705L-4.24485 53.8063C-3.14323 53.1698 -2.74019 52.5958 -3.53588 51.2188L-4.1838 50.0975ZM-14.921 58.2173C-14.9975 58.1303 -15.0543 58.0319 -15.1225 57.9139L-15.7705 56.7926L-22.3212 60.5778L-21.4914 62.0139C-20.6957 63.3909 -19.9971 63.3283 -18.8955 62.6918L-15.6496 60.8162C-14.548 60.1797 -14.145 59.6057 -14.9407 58.2287L-14.921 58.2173ZM6.6901 56.8459L9.993 61.6333L11.6057 63.9709L-13.1471 85.4645L-16.4371 80.6957L-13.4844 78.1342L-15.4455 75.2916L-18.8885 77.1425L-22.1914 72.3551L6.6901 56.8459ZM-1.72958 67.9267L-10.2968 72.5123L-9.0711 74.2889L-1.72958 67.9267ZM12.9893 66.0258L16.6548 70.5416L10.4103 75.6104L19.2895 73.7873L22.955 78.3031L5.76 81.814L-2.34046 98.836L-6.00603 94.3202L-1.79641 85.5189L-8.64066 91.0745L-12.3062 86.5587L4.01059 73.314L12.9893 66.0258ZM22.5548 77.8308L26.5173 82.0885L32.4146 88.425L28.157 92.3875L22.2597 86.051L16.7215 91.2053L21.7675 96.6271L17.5099 100.59L12.4639 95.1679L6.92564 100.322L12.823 106.659L8.56537 110.621L2.66803 104.285L-1.29448 100.027L2.96313 96.0646L8.50135 90.9102L12.759 86.9477L18.2972 81.7934L22.5548 77.8308ZM31.9718 87.9633L36.202 91.9552L37.8874 93.5457C41.2087 96.6799 41.4297 100.981 38.1708 104.434L26.4135 116.893C23.1545 120.347 18.848 120.375 15.5267 117.241L13.8413 115.65L9.61118 111.659L31.9718 87.9633ZM32.2101 96.1853L17.8332 111.42L19.5186 113.011C20.6753 114.102 21.3102 113.827 22.1834 112.901L33.9407 100.442C34.8139 99.5171 35.0522 98.8673 33.8955 97.7758L32.2101 96.1853ZM48.6362 103.215L61.1487 112.883L57.5923 117.486L53.6372 114.429L37.2723 135.607L32.67 132.051L49.0349 110.873L45.0798 107.817L48.6362 103.215ZM63.3805 121.407C62.0664 120.511 61.4828 120.883 60.7661 121.934L51.117 136.089C50.4004 137.14 50.2673 137.819 51.5814 138.715L51.9569 138.971C53.271 139.867 53.8546 139.495 54.5712 138.443L64.2203 124.289C64.937 123.237 65.07 122.558 63.7559 121.662L63.3805 121.407ZM66.6565 116.601L67.032 116.857C70.8053 119.429 71.7008 123.641 69.0261 127.565L59.377 141.72C56.7024 145.643 52.4541 146.349 48.6808 143.777L48.3053 143.521C44.5132 140.936 43.6366 136.736 46.3112 132.813L55.9603 118.658C58.6349 114.734 62.8644 114.016 66.6565 116.601ZM79.8106 125.115L84.8893 127.949L86.0201 128.581C90.0275 130.817 91.2948 134.933 88.9805 139.08L87.1645 142.333C84.8503 146.479 80.6707 147.581 76.6633 145.344L75.5325 144.713L69.0104 156.398L63.9317 153.563L70.4538 141.878L73.2885 136.8L76.9759 130.193L79.8106 125.115ZM82.0546 133.028L78.3672 139.634L79.498 140.266C80.8867 141.041 81.4547 140.629 82.0858 139.498L83.9018 136.245C84.5219 135.134 84.5741 134.434 83.1854 133.659L82.0546 133.028ZM92.3936 132.136L97.6182 134.692L105.394 138.496L102.838 143.72L95.0626 139.917L91.7382 146.713L98.3915 149.967L95.8358 155.192L89.1825 151.938L85.8582 158.734L93.634 162.537L91.0783 167.762L83.3025 163.958L78.0778 161.403L80.6335 156.178L83.9579 149.382L86.5135 144.157L89.8379 137.361L92.3936 132.136ZM105.163 138.38L110.516 140.654L111.708 141.161C115.932 142.955 117.633 146.912 115.776 151.282L114.319 154.711C113.12 157.534 111.022 159.161 108.559 159.497L106.726 174.443L101.373 172.168L103.072 158.351L103.009 158.324L97.7763 170.64L92.4231 168.366L97.6559 156.05L99.9302 150.696L102.889 143.733L105.163 138.38ZM108.242 146.008L105.283 152.971L106.475 153.477C107.939 154.099 108.46 153.629 108.966 152.437L110.423 149.008C110.92 147.837 110.897 147.136 109.434 146.514L108.242 146.008ZM119.171 144.328L124.634 146.322L132.765 149.292L130.77 154.755L122.639 151.786L120.044 158.893L127.001 161.433L125.007 166.896L118.049 164.356L113.459 176.926L107.996 174.931L112.586 162.361L114.581 156.898L117.176 149.791L119.171 144.328ZM132.706 149.263L138.258 150.998L146.52 153.579L144.785 159.131L136.523 156.549L134.267 163.771L141.336 165.979L139.602 171.531L132.532 169.322L130.276 176.543L138.538 179.125L136.803 184.677L128.541 182.095L122.989 180.36L124.724 174.809L126.98 167.587L128.715 162.036L130.971 154.815L132.706 149.263ZM153.395 155.35L153.835 155.464C158.256 156.611 160.521 160.273 159.33 164.869L158.503 168.058L152.873 166.598L153.7 163.409C154.019 162.178 153.915 161.494 152.375 161.094L151.935 160.98C150.396 160.581 149.972 161.128 149.653 162.36L145.353 178.942C145.033 180.174 145.138 180.858 146.677 181.257L147.117 181.371C148.656 181.77 149.08 181.223 149.399 179.992L150.226 176.803L155.856 178.263L155.029 181.452C153.837 186.048 150.077 188.148 145.657 187.001L145.217 186.887C140.775 185.735 138.531 182.079 139.723 177.482L144.023 160.9C145.215 156.304 148.953 154.198 153.395 155.35ZM161.089 157.361L176.566 160.601L175.374 166.294L170.482 165.27L164.998 191.466L159.305 190.274L164.789 164.078L159.897 163.054L161.089 157.361ZM176.887 160.67L182.615 161.681L176.953 193.765L171.226 192.754L176.887 160.67ZM189.31 168.534C187.737 168.304 187.375 168.894 187.191 170.153L184.72 187.105C184.536 188.364 184.714 189.033 186.288 189.262L186.738 189.328C188.312 189.557 188.673 188.967 188.857 187.708L191.328 170.756C191.512 169.497 191.334 168.829 189.76 168.599L189.31 168.534ZM190.149 162.778L190.599 162.844C195.118 163.503 197.769 166.897 197.084 171.596L194.612 188.547C193.927 193.246 190.418 195.742 185.899 195.083L185.449 195.017C180.908 194.355 178.28 190.964 178.965 186.266L181.436 169.314C182.121 164.615 185.608 162.116 190.149 162.778ZM198.175 163.939L203.961 164.533L206.673 179.062L208.119 164.959L213.905 165.553L210.58 197.963L210.219 197.926L204.794 197.369L202.083 182.839L200.636 196.943L194.85 196.349L198.175 163.939ZM221.805 179.531L237.604 180.192L237.361 185.981L221.562 185.32L221.805 179.531ZM254.003 166.829L254.458 166.823C259.024 166.757 262.179 169.688 262.248 174.436L262.27 175.981L256.454 176.064L256.432 174.52C256.414 173.247 256.132 172.615 254.542 172.638L254.087 172.645C252.497 172.668 252.234 173.308 252.252 174.58L252.274 176.125C252.339 180.577 262.375 183.273 262.472 190.02L262.495 191.565C262.563 196.313 259.494 199.333 254.928 199.399L254.473 199.406C249.884 199.472 246.752 196.541 246.683 191.793L246.661 190.248L252.477 190.164L252.499 191.709C252.517 192.981 252.799 193.613 254.389 193.59L254.844 193.584C256.434 193.561 256.697 192.921 256.679 191.649L256.657 190.104C256.609 185.219 246.686 182.522 246.459 176.209L246.436 174.664C246.368 169.916 249.415 166.895 254.003 166.829ZM262.511 166.694L268.322 166.434L276.969 166.047L277.229 171.858L268.582 172.244L268.92 179.803L276.319 179.472L276.579 185.282L269.18 185.613L269.518 193.171L278.165 192.784L278.425 198.595L269.778 198.982L263.967 199.241L263.707 193.431L263.369 185.873L263.109 180.062L262.771 172.504L262.511 166.694ZM277.459 166.013L283.259 165.577L291.891 164.929L292.326 170.729L283.694 171.377L284.261 178.922L291.647 178.367L292.082 184.167L284.696 184.722L285.262 192.266L293.894 191.618L294.33 197.418L285.698 198.066L279.898 198.501L279.462 192.701L278.896 185.157L278.461 179.357L277.894 171.813L277.459 166.013ZM292.621 164.862L298.409 164.295L303.953 177.996L302.57 163.887L308.358 163.319L311.538 195.744L311.176 195.779L305.749 196.311L300.205 182.61L301.589 196.719L295.8 197.287L292.621 164.862ZM317.9 162.206L323.672 161.489L327.69 193.82L321.918 194.537L317.9 162.206ZM324.551 161.37L330.311 160.568L336.406 174.034L334.452 159.992L340.213 159.19L344.702 191.46L344.342 191.51L338.942 192.261L332.847 178.795L334.801 192.837L329.04 193.639L324.551 161.37ZM350.267 157.673L356.009 156.741L364.553 155.355L365.485 161.096L356.94 162.482L358.152 169.95L365.463 168.764L366.394 174.505L359.083 175.692L360.295 183.16L368.839 181.773L369.771 187.514L361.226 188.901L355.485 189.832L354.554 184.091L353.342 176.623L352.411 170.882L351.199 163.414L350.267 157.673ZM365.198 155.247L370.928 154.251L376.371 172.952L375.181 153.511L380.889 152.519L382.889 185.24L380.091 185.726L377.181 186.232L374.361 186.723L365.198 155.247ZM381.937 152.329L387.657 151.276L396.17 149.709L397.223 155.43L388.71 156.996L390.079 164.437L397.363 163.097L398.416 168.817L391.132 170.157L392.501 177.598L401.014 176.031L402.067 181.751L393.554 183.318L387.834 184.371L386.781 178.651L385.412 171.21L384.359 165.49L382.99 158.049L381.937 152.329ZM397.355 149.485L403.066 148.385L404.337 148.14C408.844 147.271 412.463 149.605 413.362 154.268L414.067 157.927C414.647 160.938 413.814 163.459 411.957 165.112L418.778 178.537L413.067 179.637L406.765 167.223L406.698 167.236L409.229 180.376L403.518 181.477L400.986 168.336L399.886 162.625L398.455 155.196L397.355 149.485ZM404.166 154.096L405.597 161.525L406.869 161.28C408.431 160.979 408.6 160.299 408.355 159.027L407.651 155.368C407.41 154.119 406.999 153.55 405.438 153.851L404.166 154.096ZM411.169 146.821L416.872 145.678L420.354 152.418L420.97 144.856L426.673 143.713L425.189 161.737L428.176 176.64L422.473 177.783L419.486 162.88L411.169 146.821ZM436.705 141.645L442.4 140.465L444.67 139.995C449.141 139.069 452.793 141.352 453.756 146.002L457.23 162.777C458.193 167.426 455.749 170.972 451.277 171.898L449.008 172.368L443.313 173.548L436.705 141.645ZM443.58 146.161L447.829 166.673L450.098 166.203C451.655 165.88 451.793 165.202 451.535 163.956L448.061 147.182C447.803 145.936 447.407 145.368 445.849 145.691L443.58 146.161ZM453.336 138.195L459.024 136.982L467.49 135.177L468.703 140.865L460.237 142.671L461.815 150.07L469.059 148.525L470.272 154.214L463.028 155.758L464.606 163.158L473.072 161.352L474.285 167.041L465.819 168.846L460.131 170.059L458.918 164.371L457.34 156.971L456.127 151.283L454.549 143.884L453.336 138.195ZM468.454 134.971L483.916 131.656L485.135 137.343L480.248 138.391L485.859 164.56L480.172 165.779L474.561 139.61L469.674 140.658L468.454 134.971ZM486.504 131.091L492.188 129.858L494.964 129.256L505.422 160.325L499.76 161.553L498.515 157.848L495.14 158.58L495.542 162.468L489.858 163.701L486.504 131.091ZM493.548 143.093L494.529 152.761L496.638 152.303L493.548 143.093ZM499.427 128.288L505.111 127.055L512.017 158.895L506.333 160.128L499.427 128.288ZM506.47 126.761L512.156 125.533L517.806 151.693L526.267 149.866L527.495 155.551L519.034 157.379L513.349 158.607L512.121 152.921L506.47 126.761ZM530.943 121.475L536.628 120.247L537.894 119.973C542.38 119.004 546.051 121.256 547.053 125.898L547.84 129.54C548.224 131.316 548.106 132.923 547.565 134.294C548.86 135.34 549.802 136.903 550.234 138.901L551.026 142.566C552.028 147.207 549.614 150.773 545.128 151.742L543.507 152.092L537.822 153.32L534.996 140.24L533.769 134.555L532.171 127.16L530.943 121.475ZM537.856 125.932L539.454 133.327L540.719 133.054C542.274 132.718 542.428 132.034 542.155 130.768L541.368 127.126C541.1 125.882 540.677 125.323 539.122 125.659L537.856 125.932ZM542.298 138.64C542.192 138.686 542.081 138.71 541.947 138.739L540.682 139.012L542.279 146.407L543.9 146.057C545.455 145.721 545.609 145.037 545.34 143.794L544.549 140.129C544.28 138.886 543.857 138.326 542.303 138.662L542.298 138.64ZM550.234 117.31L555.92 116.085L558.696 115.486L569.114 146.569L563.45 147.79L562.21 144.083L558.834 144.81L559.23 148.699L553.545 149.925L550.234 117.31ZM557.262 129.322L558.23 138.991L560.34 138.536L557.262 129.322ZM563.809 114.391L569.503 113.202L571.147 121.075L573.595 112.347L579.288 111.158L574.53 128.051L585.949 143.05L580.255 144.239L574.361 136.465L576.163 145.094L570.47 146.283L566.173 125.711L563.809 114.391ZM580.947 110.815L586.644 109.644L595.123 107.901L596.294 113.598L587.815 115.341L589.338 122.752L596.593 121.261L597.764 126.958L590.509 128.449L592.032 135.86L600.511 134.117L601.682 139.814L593.203 141.557L587.506 142.728L586.335 137.031L584.812 129.62L583.641 123.923L582.118 116.512L580.947 110.815ZM596.744 107.574L602.448 106.434L604.72 105.98C609.198 105.085 612.834 107.393 613.765 112.049L617.122 128.848C618.052 133.504 615.584 137.033 611.105 137.928L608.833 138.382L603.13 139.522L596.744 107.574ZM603.588 112.137L607.693 132.678L609.966 132.224C611.525 131.913 611.668 131.235 611.418 129.988L608.061 113.189C607.812 111.942 607.42 111.371 605.86 111.683L603.588 112.137ZM622.41 102.482L637.949 99.5528L639.026 105.268L634.115 106.194L639.073 132.495L633.357 133.572L628.399 107.272L623.487 108.198L622.41 102.482ZM647.695 103.703C646.129 103.985 645.974 104.659 646.199 105.912L649.234 122.771C649.459 124.023 649.84 124.601 651.406 124.319L651.853 124.239C653.418 123.957 653.574 123.283 653.348 122.031L650.313 105.171C650.088 103.919 649.707 103.341 648.142 103.623L647.695 103.703ZM646.664 97.979L647.111 97.8985C651.606 97.0895 655.196 99.4672 656.038 104.141L659.073 121C659.914 125.674 657.378 129.154 652.883 129.963L652.436 130.044C647.919 130.857 644.351 128.475 643.51 123.802L640.475 106.942C639.634 102.269 642.147 98.7921 646.664 97.979ZM665.469 94.6783L671.209 93.7373L672.487 93.5278C677.016 92.7852 680.569 95.2187 681.337 99.9045L681.94 103.581C682.708 108.267 680.122 111.73 675.593 112.473L674.315 112.683L676.48 125.888L670.741 126.829L668.575 113.624L667.634 107.884L666.41 100.418L665.469 94.6783ZM672.15 99.4769L673.374 106.943L674.652 106.733C676.221 106.476 676.41 105.8 676.2 104.523L675.597 100.846C675.392 99.59 674.997 99.0101 673.428 99.2674L672.15 99.4769ZM681.793 92.0142L687.543 91.1374L696.101 89.8324L696.977 95.5822L688.42 96.8872L689.561 104.366L696.883 103.25L697.759 109L690.437 110.116L691.578 117.595L700.135 116.29L701.012 122.04L692.455 123.345L686.705 124.222L685.828 118.472L684.688 110.993L683.811 105.243L682.67 97.764L681.793 92.0142ZM697.971 89.5615L703.732 88.7578L705.014 88.5788C709.56 87.9446 713.054 90.4622 713.71 95.165L714.225 98.8553C714.649 101.893 713.686 104.367 711.747 105.922L717.865 119.681L712.104 120.485L706.452 107.762L706.385 107.772L708.234 121.025L702.473 121.829L700.624 108.575L699.82 102.815L698.775 95.322L697.971 89.5615ZM704.535 94.5182L705.581 102.011L706.863 101.832C708.439 101.613 708.643 100.942 708.464 99.6591L707.949 95.9688C707.774 94.7087 707.393 94.1195 705.818 94.3392L704.535 94.5182ZM715.181 87.1769L720.952 86.4565L729.542 85.3844L730.262 91.1558L721.673 92.228L722.61 99.7354L729.959 98.818L730.68 104.589L723.33 105.507L724.988 118.786L719.216 119.506L717.559 106.227L716.838 100.456L715.901 92.9484L715.181 87.1769ZM731.587 85.1507L737.371 84.5335L745.978 83.615L746.595 89.3984L737.988 90.3169L738.791 97.8399L746.155 97.0539L746.773 102.837L739.408 103.623L740.211 111.146L748.818 110.228L749.435 116.011L740.828 116.93L735.044 117.547L734.427 111.763L733.624 104.24L733.007 98.457L732.204 90.9341L731.587 85.1507ZM755.245 82.783L755.698 82.7432C760.247 82.3427 763.608 85.0346 764.025 89.7647L764.313 93.0464L758.52 93.5564L758.231 90.2748C758.119 89.0074 757.792 88.3976 756.208 88.537L755.755 88.5769C754.171 88.7163 753.955 89.3739 754.066 90.6414L755.569 107.706C755.68 108.973 756.008 109.583 757.592 109.444L758.045 109.404C759.629 109.264 759.845 108.607 759.733 107.339L759.444 104.058L765.238 103.548L765.527 106.829C765.943 111.56 763.104 114.797 758.555 115.198L758.102 115.238C753.53 115.64 750.191 112.946 749.775 108.216L748.273 91.1514C747.856 86.4213 750.673 83.1855 755.245 82.783ZM765.379 81.9074L781.156 80.8475L781.546 86.6507L776.559 86.9857L778.353 113.689L772.55 114.079L770.756 87.3755L765.769 87.7106L765.379 81.9074ZM783.14 80.729L788.949 80.4505L790.51 112.993L784.7 113.272L783.14 80.729ZM798.254 85.9657C796.664 86.0156 796.411 86.66 796.451 87.9317L796.988 105.054C797.028 106.326 797.321 106.953 798.91 106.903L799.365 106.889C800.954 106.839 801.207 106.195 801.167 104.923L800.63 87.8006C800.59 86.5289 800.297 85.9016 798.708 85.9515L798.254 85.9657ZM798.071 80.1523L798.525 80.1381C803.09 79.9949 806.294 82.8721 806.443 87.6182L806.98 104.74C807.129 109.487 804.111 112.559 799.547 112.702L799.093 112.716C794.506 112.86 791.324 109.982 791.175 105.236L790.638 88.114C790.489 83.3679 793.484 80.2962 798.071 80.1523ZM808.476 79.8642L814.292 79.8448L818.52 94.0078L818.472 79.8308L824.288 79.8113L824.397 112.391L824.034 112.392L818.581 112.411L814.353 98.2476L814.401 112.425L808.585 112.444L808.476 79.8642ZM835.818 93.4534L851.611 94.2559L851.317 100.042L835.524 99.2394L835.818 93.4534ZM871.923 82.7238L872.374 82.7753C876.911 83.293 879.667 86.6029 879.128 91.3207L878.953 92.8557L873.174 92.1964L873.35 90.6614C873.494 89.3973 873.295 88.7344 871.715 88.5541L871.263 88.5026C869.683 88.3223 869.34 88.9235 869.196 90.1876L869.021 91.7225C868.516 96.1469 878.127 100.102 877.362 106.806L877.187 108.341C876.648 113.059 873.218 115.663 868.681 115.145L868.23 115.094C863.67 114.574 860.937 111.266 861.476 106.549L861.651 105.014L867.429 105.673L867.254 107.208C867.11 108.472 867.309 109.135 868.889 109.315L869.34 109.367C870.921 109.547 871.264 108.946 871.408 107.682L871.583 106.147C872.159 101.296 862.662 97.3541 863.242 91.0633L863.417 89.5283C863.956 84.8105 867.363 82.2036 871.923 82.7238ZM882.846 84.0475L888.588 84.9735L897.133 86.3517L896.207 92.0938L887.662 90.7156L886.457 98.1847L893.769 99.364L892.843 105.106L885.531 103.927L884.326 111.396L892.872 112.774L891.946 118.516L883.4 117.138L877.658 116.212L878.584 110.47L879.789 103.001L880.715 97.2587L881.92 89.7895L882.846 84.0475ZM900.202 86.9354L905.89 88.1507L914.355 89.9594L913.139 95.6473L904.674 93.8385L903.093 101.237L910.337 102.785L909.121 108.473L901.878 106.925L900.297 114.324L908.762 116.132L907.547 121.82L899.082 120.012L893.394 118.796L894.609 113.108L896.19 105.71L897.406 100.022L898.986 92.6232L900.202 86.9354ZM917.678 90.7849L923.283 92.3384L923.525 107.117L927.312 93.455L932.916 95.0086L924.214 126.405L923.864 126.308L918.609 124.851L918.367 110.073L914.581 123.735L908.976 122.181L917.678 90.7849ZM945.498 99.1657L950.948 101.196L939.577 131.727L934.127 129.697L945.498 99.1657ZM953.877 102.393L959.207 104.721L957.363 119.386L963.038 106.395L968.368 108.723L955.327 138.579L954.993 138.433L949.997 136.251L951.84 121.586L946.166 134.577L940.836 132.249L953.877 102.393ZM981.785 115.656L986.77 118.652L994.19 123.11L991.195 128.096L983.775 123.637L979.878 130.122L986.227 133.937L983.231 138.923L976.883 135.108L972.986 141.593L980.406 146.051L977.41 151.037L969.99 146.578L965.005 143.583L968 138.597L971.897 132.112L974.893 127.127L978.789 120.642L981.785 115.656ZM997.463 125.275L1002.16 128.704L992.496 145.613L1005.65 131.248L1010.33 134.663L988.189 158.839L985.895 157.165L983.509 155.424L981.196 153.737L997.463 125.275ZM1013.72 137.414L1018.09 141.259L1024.58 146.981L1020.74 151.345L1014.24 145.623L1009.24 151.3L1014.8 156.196L1010.96 160.56L1005.4 155.664L1000.4 161.341L1006.89 167.063L1003.05 171.427L996.552 165.705L992.188 161.86L996.033 157.496L1001.03 151.819L1004.88 147.455L1009.88 141.778L1013.72 137.414ZM1027.65 149.945L1031.67 154.15L1032.56 155.086C1035.73 158.403 1035.73 162.71 1032.3 165.991L1029.61 168.565C1027.39 170.685 1024.82 171.35 1022.42 170.685L1014.83 183.69L1010.82 179.485L1017.84 167.464L1017.79 167.414L1008.12 176.66L1004.1 172.456L1013.77 163.21L1017.98 159.191L1023.44 153.964L1027.65 149.945ZM1027.46 158.168L1021.99 163.396L1022.89 164.332C1023.99 165.482 1024.65 165.255 1025.59 164.361L1028.28 161.786C1029.2 160.907 1029.46 160.254 1028.36 159.104L1027.46 158.168ZM1039.41 162.489L1043.04 167.033L1038.64 173.218L1045.65 170.299L1049.28 174.843L1032.58 181.787L1020.7 191.275L1017.07 186.731L1028.95 177.243L1039.41 162.489ZM1056.2 184.447L1059.63 189.142L1061 191.013C1063.7 194.699 1063.13 198.969 1059.3 201.771L1045.47 211.882C1041.64 214.684 1037.4 213.928 1034.7 210.242L1033.33 208.371L1029.9 203.676L1056.2 184.447ZM1054.94 192.575L1038.03 204.938L1039.4 206.809C1040.33 208.093 1041.01 207.937 1042.04 207.186L1055.87 197.076C1056.89 196.325 1057.24 195.73 1056.31 194.446L1054.94 192.575ZM1065.56 197.231L1069.18 201.782L1074.57 208.556L1070.02 212.177L1064.63 205.404L1058.71 210.115L1063.32 215.91L1058.77 219.532L1054.16 213.736L1048.24 218.447L1053.63 225.221L1049.08 228.842L1043.69 222.069L1040.07 217.518L1044.62 213.896L1050.54 209.185L1055.09 205.564L1061.01 200.853L1065.56 197.231ZM1074.55 208.53L1084.79 220.578L1080.36 224.345L1077.12 220.537L1056.73 237.872L1052.96 233.44L1073.35 216.106L1070.12 212.297L1074.55 208.53ZM1085.87 221.647L1089.8 225.935L1091.72 228.029L1070.15 252.719L1066.24 248.447L1068.81 245.504L1066.48 242.958L1063.32 245.264L1059.39 240.975L1085.87 221.647ZM1079.05 233.779L1071.19 239.498L1072.65 241.089L1079.05 233.779ZM1094.32 230.864L1098.34 235.065L1074.81 257.598L1070.78 253.398L1094.32 230.864ZM1098.62 235.338L1102.76 239.417L1083.99 258.496L1090.17 264.567L1086.09 268.713L1079.92 262.643L1075.77 258.564L1079.85 254.418L1098.62 235.338ZM1115.42 251.531L1119.77 255.388L1120.74 256.246C1124.17 259.29 1124.53 263.582 1121.38 267.136L1118.91 269.925C1117.71 271.285 1116.34 272.14 1114.92 272.516C1114.84 274.178 1114.14 275.863 1112.78 277.393L1110.29 280.199C1107.15 283.753 1102.84 283.917 1099.41 280.873L1098.17 279.774L1093.81 275.917L1102.69 265.9L1106.54 261.547L1111.56 255.884L1115.42 251.531ZM1115.91 259.741L1110.9 265.404L1111.87 266.263C1113.06 267.317 1113.7 267.037 1114.56 266.068L1117.03 263.279C1117.87 262.326 1118.07 261.654 1116.88 260.6L1115.91 259.741ZM1108.3 270.84C1108.2 270.782 1108.11 270.706 1108.01 270.616L1107.04 269.757L1102.02 275.42L1103.26 276.52C1104.45 277.575 1105.1 277.294 1105.94 276.342L1108.43 273.536C1109.27 272.584 1109.47 271.912 1108.28 270.857L1108.3 270.84ZM1129.35 263.701L1133.84 267.393L1136.04 269.195L1118.17 296.679L1113.69 293.001L1115.82 289.725L1113.16 287.533L1110.36 290.261L1105.86 286.57L1129.35 263.701ZM1124.31 276.673L1117.34 283.443L1119.01 284.813L1124.31 276.673ZM1139.04 271.645L1143.66 275.176L1138.78 281.567L1146.98 277.714L1151.6 281.246L1135.71 288.687L1131.82 307.133L1127.2 303.602L1129.23 294.06L1123.88 301.064L1119.26 297.533L1132.02 280.834L1139.04 271.645ZM1152.03 281.555L1156.76 284.933L1163.81 289.962L1160.43 294.696L1153.39 289.668L1148.99 295.826L1155.02 300.128L1151.64 304.863L1145.61 300.56L1141.22 306.719L1148.26 311.747L1144.88 316.481L1137.84 311.453L1133.1 308.074L1136.48 303.34L1140.88 297.182L1144.26 292.447L1148.65 286.289L1152.03 281.555ZM1164.1 290.157L1168.95 293.37L1170.88 294.651C1174.69 297.174 1175.64 301.374 1173.02 305.332L1163.55 319.611C1160.93 323.569 1156.69 324.33 1152.88 321.807L1150.95 320.526L1146.1 317.313L1164.1 290.157ZM1165.74 298.218L1154.16 315.678L1156.1 316.959C1157.42 317.837 1158 317.458 1158.7 316.397L1168.17 302.119C1168.87 301.058 1169 300.377 1167.67 299.499L1165.74 298.218ZM1184.35 303.318L1197.96 311.374L1195 316.379L1190.7 313.833L1177.06 336.863L1172.06 333.901L1185.69 310.87L1181.39 308.324L1184.35 303.318ZM1201.79 320.119C1200.39 319.352 1199.85 319.778 1199.23 320.892L1190.97 335.898C1190.36 337.013 1190.29 337.702 1191.68 338.469L1192.08 338.688C1193.47 339.455 1194.02 339.029 1194.63 337.915L1202.9 322.909C1203.51 321.794 1203.58 321.105 1202.18 320.338L1201.79 320.119ZM1204.59 315.024L1204.99 315.243C1208.99 317.446 1210.28 321.554 1207.99 325.714L1199.73 340.72C1197.44 344.88 1193.28 345.986 1189.28 343.783L1188.88 343.564C1184.86 341.35 1183.59 337.252 1185.88 333.093L1194.14 318.087C1196.43 313.927 1200.57 312.81 1204.59 315.024ZM1219.64 323.049L1224.86 325.613L1226.02 326.183C1230.14 328.206 1231.62 332.249 1229.53 336.512L1227.89 339.856C1225.8 344.119 1221.68 345.439 1217.56 343.416L1216.4 342.846L1210.5 354.858L1205.28 352.295L1211.18 340.282L1213.74 335.061L1217.08 328.27L1219.64 323.049ZM1222.3 330.833L1218.96 337.625L1220.12 338.196C1221.55 338.896 1222.1 338.456 1222.67 337.293L1224.31 333.948C1224.87 332.806 1224.89 332.105 1223.46 331.404L1222.3 330.833ZM1233.26 329.721L1238.55 332.121L1246.44 335.692L1244.04 340.99L1236.15 337.419L1233.03 344.31L1239.78 347.366L1237.38 352.664L1230.63 349.608L1227.51 356.5L1235.4 360.072L1233 365.37L1225.11 361.798L1219.81 359.398L1222.21 354.1L1225.33 347.208L1227.73 341.91L1230.86 335.019L1233.26 329.721ZM1246.93 335.899L1252.29 338.144L1253.49 338.644C1257.72 340.415 1259.44 344.362 1257.61 348.743L1256.17 352.18C1254.99 355.01 1252.9 356.648 1250.44 356.997L1248.69 371.953L1243.32 369.708L1244.94 355.881L1244.88 355.855L1239.72 368.2L1234.35 365.955L1239.52 353.61L1241.76 348.244L1244.68 341.265L1246.93 335.899ZM1250.05 343.51L1247.13 350.489L1248.32 350.989C1249.79 351.603 1250.31 351.13 1250.81 349.935L1252.24 346.498C1252.74 345.324 1252.71 344.623 1251.24 344.01L1250.05 343.51ZM1261.64 342.042L1267.07 344.128L1275.15 347.233L1273.06 352.662L1264.98 349.557L1262.27 356.619L1269.18 359.276L1267.1 364.705L1260.18 362.049L1255.38 374.54L1249.95 372.454L1254.75 359.962L1256.84 354.533L1259.55 347.471L1261.64 342.042ZM1275.67 347.419L1281.15 349.35L1289.32 352.224L1287.39 357.71L1279.22 354.836L1276.71 361.973L1283.7 364.432L1281.77 369.918L1274.78 367.459L1272.27 374.595L1280.43 377.47L1278.5 382.956L1270.34 380.081L1264.85 378.15L1266.78 372.664L1269.29 365.528L1271.22 360.041L1273.74 352.905L1275.67 347.419ZM1296.68 354.572L1297.11 354.71C1301.46 356.097 1303.52 359.878 1302.08 364.402L1301.08 367.541L1295.54 365.775L1296.54 362.636C1296.93 361.424 1296.86 360.735 1295.35 360.252L1294.91 360.114C1293.4 359.631 1292.94 360.154 1292.56 361.366L1287.36 377.688C1286.97 378.9 1287.04 379.589 1288.55 380.072L1288.98 380.21C1290.5 380.693 1290.95 380.17 1291.34 378.958L1292.34 375.819L1297.88 377.585L1296.88 380.724C1295.44 385.248 1291.57 387.139 1287.22 385.752L1286.78 385.614C1282.41 384.22 1280.37 380.446 1281.81 375.922L1287.02 359.6C1288.46 355.076 1292.31 353.179 1296.68 354.572ZM1304.76 357.148L1319.96 361.477L1318.37 367.071L1313.56 365.703L1306.24 391.444L1300.64 389.852L1307.97 364.111L1303.16 362.742L1304.76 357.148ZM1320.58 361.651L1326.21 363.119L1317.99 394.644L1312.36 393.176L1320.58 361.651ZM1332.52 370.595C1330.97 370.228 1330.56 370.784 1330.26 372.022L1326.31 388.69C1326.02 389.928 1326.13 390.61 1327.68 390.977L1328.12 391.082C1329.67 391.449 1330.08 390.893 1330.38 389.655L1334.33 372.986C1334.62 371.748 1334.51 371.066 1332.96 370.699L1332.52 370.595ZM1333.86 364.935L1334.3 365.04C1338.74 366.094 1341.09 369.708 1339.99 374.329L1336.04 390.997C1334.94 395.617 1331.23 397.795 1326.78 396.741L1326.34 396.636C1321.87 395.577 1319.55 391.968 1320.65 387.348L1324.6 370.679C1325.7 366.059 1329.39 363.876 1333.86 364.935ZM1342.05 366.864L1347.75 368.018L1349.03 382.742L1351.84 368.846L1357.54 370L1351.09 401.933L1350.73 401.861L1345.38 400.78L1344.1 386.055L1341.29 399.951L1335.59 398.798L1342.05 366.864ZM1364.1 384.71L1379.76 386.953L1378.94 392.688L1363.28 390.445L1364.1 384.71ZM1397.07 375.142L1397.52 375.176C1402.07 375.518 1404.96 378.719 1404.6 383.454L1404.48 384.995L1398.68 384.559L1398.8 383.018C1398.89 381.75 1398.67 381.095 1397.08 380.976L1396.63 380.942C1395.05 380.823 1394.73 381.436 1394.63 382.705L1394.52 384.246C1394.18 388.686 1403.94 392.267 1403.43 398.996L1403.32 400.537C1402.96 405.272 1399.63 408.007 1395.08 407.664L1394.63 407.63C1390.05 407.286 1387.19 404.087 1387.55 399.352L1387.66 397.811L1393.46 398.247L1393.35 399.788C1393.25 401.056 1393.48 401.711 1395.06 401.83L1395.52 401.864C1397.1 401.984 1397.42 401.37 1397.52 400.101L1397.63 398.56C1398.02 393.691 1388.38 390.119 1388.72 383.81L1388.83 382.269C1389.19 377.534 1392.49 374.798 1397.07 375.142ZM1404.75 375.718L1410.56 375.835L1419.22 376.008L1419.1 381.823L1410.45 381.65L1410.3 389.214L1417.7 389.362L1417.59 395.177L1410.18 395.029L1410.03 402.593L1418.68 402.767L1418.57 408.582L1409.91 408.408L1404.1 408.292L1404.21 402.477L1404.36 394.913L1404.48 389.098L1404.63 381.533L1404.75 375.718ZM1418.3 376.011L1424.11 375.701L1432.75 375.239L1433.06 381.047L1424.42 381.509L1424.82 389.064L1432.22 388.669L1432.53 394.477L1425.13 394.872L1425.54 402.427L1434.18 401.965L1434.49 407.773L1425.85 408.235L1420.04 408.545L1419.73 402.737L1419.33 395.182L1419.02 389.374L1418.61 381.819L1418.3 376.011ZM1429.84 375.57L1435.55 374.48L1442.32 387.622L1439.66 373.696L1445.37 372.606L1451.48 404.609L1451.12 404.677L1445.76 405.699L1439 392.557L1441.66 406.483L1435.95 407.573L1429.84 375.57Z" fill="#FFFDF4"/>
</g>
<defs>
<filter id="filter0_d_2426_2958" x="-79.5312" y="0" width="1551.02" height="434.426" filterUnits="userSpaceOnUse" color-interpolation-filters="sRGB">
<feFlood flood-opacity="0" result="BackgroundImageFix"/>
<feColorMatrix in="SourceAlpha" type="matrix" values="0 0 0 0 0 0 0 0 0 0 0 0 0 0 0 0 0 0 127 0" result="hardAlpha"/>
<feOffset dy="4"/>
<feGaussianBlur stdDeviation="2"/>
<feComposite in2="hardAlpha" operator="out"/>
<feColorMatrix type="matrix" values="0 0 0 0 0 0 0 0 0 0 0 0 0 0 0 0 0 0 0.25 0"/>
<feBlend mode="normal" in2="BackgroundImageFix" result="effect1_dropShadow_2426_2958"/>
<feBlend mode="normal" in="SourceGraphic" in2="effect1_dropShadow_2426_2958" result="shape"/>
</filter>
</defs>
</svg>
