<svg width="244" height="216" viewBox="0 0 244 216" fill="none" xmlns="http://www.w3.org/2000/svg">
<g clip-path="url(#clip0_2540_2324)">
<path d="M89.6938 44.7838C75.9225 35.2055 42.6126 39.6863 34.0258 56.9499C30.6156 63.7983 31.0659 70.6129 32.9782 76.7511C39.4587 97.7032 51.9953 114.708 68.6209 129.154C77.9365 137.258 87.1484 145.392 97.4786 152.091C117.62 165.144 139.634 174.469 163.24 177.934C185.405 181.191 200.669 173.806 207.193 155.192C210.421 145.962 209.736 135.717 202.828 127.265" stroke="#2E422C" stroke-width="5.31818" stroke-linecap="round" stroke-linejoin="round"/>
<path d="M183.559 101.192C168.983 105.459 159.387 116.651 148.712 126.313C147.926 127.022 146.772 128.036 147.325 129.533" stroke="#2E422C" stroke-width="5.31818" stroke-linecap="round" stroke-linejoin="round"/>
<path d="M165.267 82.4168C157.077 88.7062 148.593 94.1357 137.637 94.1202C134.149 94.1185 132.021 97.5285 129.256 99.319C126.763 100.924 124.57 102.878 121.33 102.326" stroke="#2E422C" stroke-width="5.31818" stroke-linecap="round" stroke-linejoin="round"/>
<path d="M124.286 52.7553C131.535 49.815 136.299 54.8349 141.317 58.394C143.618 60.0358 142.276 62.6368 140.617 64.4127C136.486 68.8388 132.713 73.5521 129.557 78.6901C125.477 85.3445 122.095 92.4272 120.542 100.058C119.904 103.176 117.617 104.32 116.097 106.337C114.266 108.747 112.059 110.874 110.024 113.116" stroke="#2E422C" stroke-width="5.31818" stroke-linecap="round" stroke-linejoin="round"/>
<path d="M197.44 122.861C194.837 128.516 187.99 132.804 180.648 130.496C168.857 126.802 157.518 132.001 145.956 130.52C142.694 130.102 139.076 132.376 135.618 133.407" stroke="#2E422C" stroke-width="5.31818" stroke-linecap="round" stroke-linejoin="round"/>
<path d="M116.995 56.2342C114.473 60.2139 110.819 63.0942 106.783 65.1725C103.805 66.7062 100.997 68.2855 99.0213 70.9151C94.6482 76.7097 88.1057 79.7364 82.6807 84.1853" stroke="#2E422C" stroke-width="5.31818" stroke-linecap="round" stroke-linejoin="round"/>
<path d="M90.8599 50.5431C84.0665 59.4873 83.3491 69.5671 85.3603 80.1426" stroke="#2E422C" stroke-width="5.31818" stroke-linecap="round" stroke-linejoin="round"/>
<path d="M186.816 97.5332C183.987 105.033 188.458 116.159 196.045 121.205C197.777 122.353 200.565 121.907 201.285 124.58" stroke="#2E422C" stroke-width="5.31818" stroke-linecap="round" stroke-linejoin="round"/>
<path d="M165.255 77.4222C165.189 77.0958 165.196 76.5348 165.05 76.5045C157.573 74.5236 152.072 69.3637 146.21 64.7965" stroke="#2E422C" stroke-width="5.31818" stroke-linecap="round" stroke-linejoin="round"/>
<path d="M117.937 48.5468C111.58 51.9456 105.613 49.8184 99.6876 47.2531" stroke="#2E422C" stroke-width="5.31818" stroke-linecap="round" stroke-linejoin="round"/>
<path d="M165.839 80.3021C165.905 80.6285 166.028 80.9432 166.014 81.266C166.003 81.4581 165.773 81.6547 165.65 81.8394C173.259 81.5146 175.794 87.6664 179.313 92.5591" stroke="#2E422C" stroke-width="5.31818" stroke-linecap="round" stroke-linejoin="round"/>
</g>
<defs>
<clipPath id="clip0_2540_2324">
<rect width="214.186" height="116.726" fill="white" transform="translate(64.4961) rotate(33.5417)"/>
</clipPath>
</defs>
</svg>
