<svg width="83" height="1584" viewBox="0 0 83 1584" fill="none" xmlns="http://www.w3.org/2000/svg">
<path d="M31.9999 16C43.4974 144.698 11.2517 213.696 13.6268 310.133C15.518 386.923 29.1332 463.7 23.5306 540.309L16.9565 630.203C11.6885 702.238 18.3713 774.649 36.7345 844.503L60.4734 934.808C75.3113 991.252 77.618 1050.26 67.2317 1107.69L37.233 1273.56C33.818 1292.45 36.3171 1311.82 41.4811 1330.3C52.1974 1368.65 60.0227 1426.4 40.5 1473.5C15.3 1534.3 30 1571.5 40.5 1582.5" stroke="#5B5758" stroke-width="3"/>
<circle cx="31.5" cy="15.5" r="15.5" fill="#2E422C"/>
<circle cx="15.5" cy="631.5" r="15.5" fill="#2E422C"/>
<circle cx="40.5" cy="1238.5" r="15.5" fill="#2E422C"/>
</svg>
