<svg width="159" height="125" viewBox="0 0 159 125" fill="none" xmlns="http://www.w3.org/2000/svg">
<path d="M153.205 104.972C151.877 100.533 150.548 96.0935 149.219 91.6546C148.891 90.5579 148.563 89.4617 148.235 88.365C135.209 115.383 102.224 130.56 73.1625 122.894C60.1318 119.457 46.2617 109.949 42.2198 96.5911C34.3801 94.7323 27.0812 90.3441 21.4409 84.0804C8.57051 69.7883 6.9051 49.2712 12.5002 31.4965C12.6258 31.0975 12.759 30.6969 12.8921 30.2962C9.65809 26.6593 7.06617 22.4233 5.00954 17.9678C2.95043 13.5067 1.43983 8.82819 0.1236 4.10213C-0.881058 0.494255 4.55425 -1.80698 5.57314 1.85107C7.65216 9.31778 10.6024 17.4995 15.3392 23.9649C18.0937 17.8079 21.9357 12.0302 27.3921 8.16491C33.7615 3.65243 42.672 2.11768 49.7464 5.93977C63.6086 13.4296 58.7829 34.2684 45.8074 39.8076C38.1951 43.0572 29.3232 41.6975 22.2155 37.8185C20.5941 36.9334 19.0794 35.916 17.6558 34.7972C13.8503 47.9253 14.2269 62.5605 21.5414 74.4015C26.13 81.8299 33.0643 87.6558 41.1007 90.2543C41.0756 89.805 41.0547 89.3543 41.052 88.8979C40.9924 79.5713 46.433 70.4543 52.7028 63.8619C58.2743 58.0041 66.9807 53.7552 74.8988 57.699C82.2964 61.3838 83.6602 70.1302 81.3803 77.4C78.9744 85.0711 72.4676 91.0452 65.3191 94.3463C59.9579 96.8223 54.3503 97.8138 48.8509 97.541C53.3762 107.863 64.9589 114.842 75.4497 117.439C101.697 123.938 131.592 109.947 143.089 85.4645C135.304 89.8349 127.519 94.2048 119.734 98.5747C116.434 100.427 114.205 94.9655 117.483 93.1257C122.763 90.1611 128.044 87.1971 133.325 84.233C135.588 82.9624 137.851 81.6918 140.114 80.4217C142.215 79.2428 144.739 77.1618 147.171 76.7446C151.978 75.9202 152.625 82.5786 153.581 85.7719C155.272 91.4216 156.963 97.0709 158.654 102.72C159.732 106.319 154.296 108.614 153.205 104.972ZM32.1845 35.2998C38.5681 36.5644 45.5233 35.0979 49.4162 29.5368C52.4017 25.2719 53.5383 18.8564 50.5267 14.3044C46.8078 8.68282 38.6483 8.73796 33.1956 11.4927C26.4495 14.9013 22.4127 22.0804 19.7067 28.8314C19.701 28.8465 19.6952 28.8614 19.6895 28.8765C23.0892 32.0043 27.1914 34.3104 32.1845 35.2998ZM55.1294 91.3452C61.6059 90.291 67.9249 87.1184 72.1422 82.014C75.8184 77.5642 79.0755 69.2351 74.2544 64.3749C68.206 58.2778 59.3485 64.832 55.297 69.8299C50.5268 75.7144 46.1184 83.0621 47.0394 90.9332C47.0638 91.1414 47.0998 91.3452 47.1298 91.5514C49.7332 91.8369 52.4109 91.7874 55.1294 91.3452Z" fill="#2E422C"/>
</svg>
