<svg width="139" height="67" viewBox="0 0 139 67" fill="none" xmlns="http://www.w3.org/2000/svg">
<path d="M6.5287 34.5668C6.13408 34.2154 5.84519 34.0491 5.68848 33.7998C4.34979 31.6801 2.83928 29.6397 1.75926 27.3934C0.199658 24.1421 0.93792 21.5067 3.80978 19.3227C5.3505 18.1514 7.06304 17.2087 8.69817 16.1659C8.80391 16.0979 8.94929 16.0676 9.02104 15.977C9.25328 15.6766 9.45909 15.3573 9.67434 15.0437C9.32503 14.8812 8.92852 14.5204 8.63209 14.5884C7.33305 14.8869 6.00191 15.174 4.80105 15.7257C3.73425 16.215 2.82417 17.0462 1.848 17.732C1.60066 17.9058 1.36275 18.0948 0.949249 18.4046C0.718896 17.5998 0.454557 16.965 0.365814 16.3076C-0.123214 12.6689 -0.215733 9.02844 0.677357 5.44272C0.92848 4.43199 1.40429 3.41559 2.01416 2.57112C3.14893 1.00118 4.90868 0.887831 6.20394 2.32741C7.09514 3.31736 7.81452 4.49244 8.46027 5.66753C9.56294 7.67765 10.5108 9.7709 11.604 11.7848C11.8778 12.2873 12.3989 12.7502 12.9182 13.0052C15.5483 14.2993 18.1068 15.6803 20.1441 18.0041C20.584 17.4146 20.9635 16.8913 21.3581 16.3812C22.3098 15.1551 23.4559 14.2332 25.0362 13.9328C25.2874 13.8856 25.6291 13.6287 25.6971 13.4001C26.424 10.9573 27.0849 8.49568 27.0282 5.91313C26.9942 4.42632 26.6525 3.07743 25.142 2.39731C23.571 1.69075 22.1757 2.15171 20.9673 3.23045C19.2227 4.78905 18.1105 6.79539 17.1382 8.88675C16.8077 9.59898 16.5 10.3244 16.1053 10.9989C15.9826 11.2086 15.6069 11.269 15.3482 11.3994C15.2274 11.1066 14.9611 10.7835 15.0159 10.5285C15.1688 9.82757 15.386 9.12101 15.7051 8.48057C16.702 6.49123 17.6555 4.46977 18.8243 2.58434C19.689 1.1901 21.0881 0.311622 22.761 0.0660249C25.8916 -0.393053 28.4745 1.58117 28.9088 4.76449C29.2921 7.56808 28.7162 10.2791 27.944 12.9467C27.7042 13.7741 27.7778 14.2124 28.5973 14.6507C30.2645 15.5424 31.2237 17.0311 31.6712 18.8561C31.7448 19.1546 31.8279 19.4512 31.9393 19.8725C35.9346 17.2238 38.8933 18.4254 41.2233 22.3927C41.4253 22.0186 41.5952 21.7485 41.7236 21.4613C42.7583 19.1376 43.7288 16.7818 44.839 14.4939C45.3413 13.4605 46.038 12.4932 46.7838 11.6148C49.6727 8.21041 54.6196 9.13045 56.1792 13.3264C56.7966 14.9889 56.7381 16.6873 56.2547 18.3366C55.203 21.9242 54.0758 25.491 52.9165 29.0446C52.8108 29.3696 52.2273 29.789 51.9214 29.7474C51.3097 29.6643 51.2795 29.0994 51.4419 28.5496C52.4105 25.2643 53.4471 21.996 54.2948 18.6804C54.6196 17.4071 54.6838 16.0034 54.546 14.6923C54.393 13.2282 53.4282 12.1702 51.9668 11.7432C50.4657 11.3049 49.1648 11.8264 48.2924 13.0298C47.305 14.3938 46.3892 15.8447 45.6793 17.3693C44.3538 20.2163 43.1964 23.1427 41.9747 26.0389C41.8312 26.3789 41.7198 26.7322 41.5556 27.1837C42.2202 27.4029 42.8036 27.605 43.3908 27.7902C47.0935 28.9577 50.6885 30.3312 53.7152 32.8835C53.9569 33.0875 54.4969 33.0913 54.8405 32.9912C56.621 32.4773 58.3732 31.8652 60.1537 31.3608C61.2054 31.0623 62.2873 30.777 63.3711 30.6939C65.348 30.5447 66.6773 31.7594 66.5942 33.7412C66.5432 34.9352 66.2807 36.1953 65.7898 37.2797C64.4379 40.2665 62.3364 42.7282 59.9083 44.9121C59.6534 45.1426 59.3664 45.3447 59.0756 45.5261C58.2731 46.0248 58.0409 45.9172 57.9522 44.9782C57.7482 42.7981 57.2592 40.6878 56.234 38.7476C55.8469 38.0146 55.2767 37.3647 54.7159 36.745C54.5384 36.5486 54.1155 36.575 53.8058 36.4994C53.8285 36.7942 53.8001 37.104 53.8813 37.3817C54.5101 39.5505 55.1728 41.7099 55.7959 43.8787C55.9243 44.3264 55.9507 44.8082 55.9923 45.2767C56.3208 48.9153 54.68 51.2428 51.1473 52.1648C50.9037 52.229 50.6621 52.3499 50.4185 52.3518C48.7192 52.3594 48.1792 53.4268 47.7505 54.8871C46.95 57.6095 45.7321 60.158 44.0253 62.461C41.6745 65.6329 38.527 66.8723 34.6544 66.5549C31.3615 66.2847 28.2291 65.3874 25.1892 64.1726C19.487 61.8923 13.9717 59.2285 9.08335 55.452C6.63632 53.5609 4.64245 51.275 3.84377 48.1615C3.13005 45.3806 3.52845 42.6677 4.37622 39.9964C4.46308 39.7224 4.88791 39.5543 5.15602 39.337C5.27309 39.6299 5.49966 39.9246 5.49022 40.2117C5.46001 41.1204 5.35805 42.0292 5.25421 42.9341C4.84826 46.4745 5.88862 49.4991 8.39229 52.0439C10.6675 54.3563 13.3449 56.0868 16.179 57.6076C21.1467 60.2714 26.1993 62.7255 31.7372 63.9912C32.7757 64.2293 33.8387 64.3955 34.898 64.4919C38.308 64.7998 40.9344 63.4717 42.8471 60.6284C44.8636 57.6321 45.9889 54.2769 46.8896 50.8291C47.2634 49.4009 47.6089 47.9594 47.8468 46.5047C48.6587 41.5493 46.9915 37.9617 42.5374 35.621C40.789 34.7028 38.8064 34.1436 36.8673 33.694C35.2209 33.3123 33.5234 33.5749 32.5737 35.2563C31.624 36.9377 31.9449 38.5965 33.0571 40.1154C34.324 41.8459 36.1158 42.6658 38.1701 42.9983C38.7573 43.0928 39.3615 43.0928 39.9469 43.2005C40.1829 43.2439 40.3887 43.4574 40.6077 43.5934C40.4283 43.8182 40.2792 44.1961 40.062 44.2433C39.2992 44.4039 38.4968 44.3831 37.7359 44.5531C35.9705 44.948 34.1446 45.2238 32.4831 45.8945C29.4262 47.1262 27.4814 49.5954 26.0143 52.4689C25.6707 53.1396 25.3478 53.8273 24.9343 54.4526C24.7795 54.6869 24.3886 54.7643 24.1054 54.9136C24.0223 54.6264 23.8165 54.309 23.8788 54.0578C24.0752 53.27 24.3055 52.4765 24.6473 51.7435C24.9966 50.9916 24.8153 50.6364 24.0846 50.2963C21.3808 49.0381 18.6619 47.8007 16.0279 46.4046C13.3524 44.9858 11.1339 42.9945 9.57804 40.3515C8.55656 38.6154 8.53201 36.7809 9.16265 34.8955C10.1407 31.9748 11.74 29.4584 13.9604 27.3311C14.0737 27.2215 14.2493 27.1252 14.2814 26.9929C14.4041 26.4866 14.4797 25.9709 14.5722 25.457C14.1039 25.457 13.5658 25.3059 13.1768 25.4816C11.3416 26.3109 10.0048 27.7562 8.97195 29.4243C8.16949 30.7203 7.60494 32.1656 6.9422 33.5485C6.81192 33.8187 6.71185 34.1039 6.52115 34.5706L6.5287 34.5668ZM16.7983 34.051C16.8719 34.0642 16.9475 34.0794 17.0211 34.0926C17.0211 34.4685 16.989 34.8502 17.0268 35.2223C17.2779 37.7066 19.4171 39.7715 21.6716 39.7224C23.0178 39.6941 23.5994 39.0725 23.8864 37.7765C24.3811 35.5473 24.8285 33.2802 25.6235 31.1511C26.4882 28.8387 27.6796 26.6415 28.8182 24.4387C29.6848 22.7611 30.1946 21.0551 29.7094 19.1829C29.2959 17.5809 28.3367 16.4379 26.6695 16.0393C25.0683 15.6558 23.9411 16.4606 23.0197 17.6357C22.5571 18.227 22.07 18.8372 21.7792 19.5173C20.4632 22.6024 19.1188 25.6837 17.9803 28.8349C17.3798 30.4974 17.1778 32.3035 16.7964 34.0454L16.7983 34.051ZM36.1649 31.5006C36.6974 31.374 37.5357 32.0069 37.8926 30.9149C38.3212 29.6019 38.9537 28.3456 39.2709 27.0099C39.5183 25.969 39.6051 24.8166 39.4352 23.7662C39.1841 22.2132 38.1909 21.1043 36.6181 20.6603C35.1793 20.2541 34.0427 20.8417 33.0759 21.8675C32.8173 22.1414 32.5189 22.4003 32.3414 22.7233C30.8649 25.4154 29.3431 28.0868 27.9761 30.8356C26.8545 33.0913 26.0596 35.483 25.8765 38.0335C25.7481 39.8018 26.2484 41.349 27.5947 42.526C28.6237 43.4253 29.8227 43.9769 31.235 43.5632C32.3188 43.2458 32.4925 42.5865 31.7996 41.7137C31.5069 41.3453 31.2123 40.9693 30.982 40.5631C29.7981 38.4718 29.6131 36.3124 30.8158 34.187C31.9563 32.175 33.8482 31.476 36.163 31.5006H36.1649Z" fill="#FFFDF4"/>
<path d="M127.591 35.3538H132.777V46.142C132.777 46.8473 132.819 46.8888 133.275 46.8888C133.773 46.8888 133.815 46.8473 133.815 46.142V35.3538H139.001V46.142C139.001 47.3038 138.96 48.9635 136.097 49.5444V63.5691H130.91V49.6274C127.632 49.088 127.591 47.3453 127.591 46.142V35.3538Z" fill="#FFFDF4"/>
<path d="M117.762 35.3538H120.459H122.949H125.646L128.218 63.5691H122.866L122.409 54.98H120.957L120.542 63.5691H115.189L117.762 35.3538ZM121.704 40.9138L121.247 49.7933H122.16L121.704 40.9138Z" fill="#FFFDF4"/>
<path d="M103.282 35.3538H108.469H109.05C114.693 35.3538 114.693 35.3538 114.693 41.2873V57.6355C114.693 63.5691 114.693 63.5691 109.05 63.5691H108.469H103.282V35.3538ZM109.05 40.5404H108.469V58.3824H109.05C109.506 58.3824 109.506 58.3824 109.506 57.6355V41.2873C109.506 40.5404 109.506 40.5404 109.05 40.5404Z" fill="#FFFDF4"/>
<path d="M96.8892 35.3538C102.532 35.3538 102.532 35.3538 102.532 41.2873V57.6355C102.532 63.5691 102.532 63.5691 96.8892 63.5691C91.2461 63.5691 91.2461 63.5691 91.2461 57.6355V41.2873C91.2461 35.3538 91.2461 35.3538 96.8892 35.3538ZM96.8892 40.5404C96.4327 40.5404 96.4327 40.5404 96.4327 41.2873V57.6355C96.4327 58.3824 96.4327 58.3824 96.8892 58.3824C97.3456 58.3824 97.3456 58.3824 97.3456 57.6355V41.2873C97.3456 40.5404 97.3456 40.5404 96.8892 40.5404Z" fill="#FFFDF4"/>
<path d="M79.3301 35.3538H90.7407V40.5404H87.6287V63.5691H82.4421V40.5404H79.3301V35.3538Z" fill="#FFFDF4"/>
<path d="M117.263 3.03394H122.449H127.18V8.22057H122.449V14.5275H126.848V19.7142H122.449V26.0626H127.18V31.2492H122.449H117.263V3.03394Z" fill="#FFFDF4"/>
<path d="M105.105 3.03394H110.292V14.5275H110.873C111.329 14.5275 111.329 14.5275 111.329 13.8221V3.03394H116.516V13.8221C116.516 14.901 116.516 16.3947 114.234 17.1001C116.516 17.6395 116.516 18.9258 116.516 20.461V31.2492H111.329V20.461C111.329 19.7142 111.329 19.7142 110.873 19.7142H110.292V31.2492H105.105V3.03394Z" fill="#FFFDF4"/>
<path d="M94.0589 3.03394H96.7559H99.2455H101.943L104.515 31.2492H99.1625L98.7061 22.6602H97.2539L96.8389 31.2492H91.4863L94.0589 3.03394ZM98.0007 8.59401L97.5443 17.4735H98.4572L98.0007 8.59401Z" fill="#FFFDF4"/>
<path d="M79.5791 3.03394H84.7657H85.3466C90.9897 3.03394 90.9897 3.03394 90.9897 8.96745V13.8221C90.9897 14.901 90.9897 16.3947 88.7076 17.1001C90.9897 17.6395 90.9897 18.9258 90.9897 20.461V25.3157C90.9897 31.2492 90.9897 31.2492 85.3466 31.2492H84.7657H79.5791V3.03394ZM85.3466 8.22057H84.7657V14.5275H85.3466C85.8031 14.5275 85.8031 14.5275 85.8031 13.8221V8.96745C85.8031 8.22057 85.8031 8.22057 85.3466 8.22057ZM84.7657 19.7142V26.0626H85.3466C85.8031 26.0626 85.8031 26.0626 85.8031 25.3157V20.461C85.8031 19.7142 85.8031 19.7142 85.3466 19.7142H84.7657Z" fill="#FFFDF4"/>
</svg>
