<svg width="122" height="59" viewBox="0 0 122 59" fill="none" xmlns="http://www.w3.org/2000/svg">
<path d="M5.73013 30.3387C5.38378 30.0303 5.13023 29.8843 4.99268 29.6655C3.81773 27.805 2.49198 26.0143 1.54407 24.0428C0.175236 21.1891 0.823197 18.876 3.34378 16.9592C4.69604 15.9312 6.19911 15.1038 7.63424 14.1885C7.72704 14.1288 7.85464 14.1023 7.91761 14.0227C8.12145 13.7591 8.30208 13.4788 8.491 13.2036C8.18442 13.061 7.83641 12.7443 7.57623 12.804C6.43609 13.066 5.26777 13.318 4.2138 13.8022C3.27749 14.2316 2.47873 14.9612 1.62196 15.5631C1.40487 15.7156 1.19606 15.8815 0.83314 16.1534C0.630963 15.447 0.398957 14.8899 0.321069 14.3129C-0.108143 11.1193 -0.189345 7.9241 0.594505 4.77698C0.814911 3.88988 1.23252 2.99781 1.76779 2.25663C2.76376 0.878722 4.30826 0.779234 5.44509 2.04273C6.22728 2.91159 6.85867 3.94294 7.42543 4.9743C8.39323 6.73854 9.22513 8.57575 10.1846 10.3433C10.4249 10.7844 10.8823 11.1906 11.338 11.4145C13.6465 12.5503 15.892 13.7624 17.6801 15.8019C18.0662 15.2845 18.3993 14.8252 18.7457 14.3775C19.5809 13.3014 20.5868 12.4922 21.9739 12.2286C22.1943 12.1871 22.4942 11.9616 22.5539 11.761C23.1919 9.61705 23.7719 7.45651 23.7222 5.18985C23.6924 3.88491 23.3924 2.701 22.0667 2.10408C20.6879 1.48394 19.4632 1.88852 18.4026 2.83531C16.8714 4.20327 15.8953 5.9642 15.0419 7.79975C14.7519 8.42486 14.4817 9.06158 14.1354 9.65353C14.0277 9.83758 13.6979 9.89064 13.4708 10.0051C13.3648 9.74804 13.1311 9.4645 13.1792 9.24066C13.3134 8.62549 13.504 8.00535 13.7841 7.44325C14.6591 5.69724 15.4959 3.92304 16.5217 2.26823C17.2807 1.04453 18.5087 0.273505 19.977 0.0579489C22.7246 -0.344976 24.9916 1.38777 25.3728 4.18171C25.7092 6.64237 25.2037 9.02178 24.5259 11.3631C24.3155 12.0893 24.3801 12.474 25.0993 12.8587C26.5626 13.6413 27.4045 14.9479 27.7972 16.5497C27.8619 16.8117 27.9348 17.072 28.0326 17.4418C31.5392 15.1171 34.136 16.1716 36.1809 19.6537C36.3583 19.3254 36.5074 19.0883 36.6201 18.8362C37.5282 16.7967 38.38 14.7291 39.3545 12.7211C39.7953 11.8141 40.4068 10.9651 41.0614 10.1941C43.5969 7.20614 47.9387 8.01364 49.3075 11.6963C49.8494 13.1555 49.798 14.6462 49.3738 16.0937C48.4508 19.2425 47.4614 22.373 46.4439 25.492C46.3511 25.7772 45.839 26.1453 45.5706 26.1088C45.0336 26.0358 45.0071 25.54 45.1496 25.0575C45.9998 22.174 46.9096 19.3055 47.6536 16.3955C47.9387 15.2779 47.995 14.0459 47.8741 12.8952C47.7398 11.6101 46.893 10.6816 45.6103 10.3068C44.2929 9.92215 43.1511 10.3798 42.3854 11.436C41.5187 12.6332 40.715 13.9066 40.0919 15.2447C38.9286 17.7435 37.9127 20.312 36.8405 22.8539C36.7146 23.1523 36.6168 23.4624 36.4726 23.8587C37.0559 24.051 37.568 24.2285 38.0834 24.391C41.3331 25.4157 44.4884 26.6211 47.1449 28.8613C47.357 29.0404 47.831 29.0437 48.1326 28.9558C49.6953 28.5048 51.2332 27.9675 52.7959 27.5248C53.7189 27.2628 54.6685 27.0125 55.6197 26.9395C57.3548 26.8085 58.5215 27.8747 58.4486 29.6141C58.4038 30.662 58.1735 31.768 57.7426 32.7197C56.5561 35.3412 54.7116 37.5018 52.5805 39.4186C52.3567 39.6209 52.1049 39.7983 51.8496 39.9575C51.1453 40.3952 50.9415 40.3007 50.8636 39.4766C50.6846 37.5631 50.2554 35.711 49.3556 34.0081C49.0159 33.3647 48.5154 32.7944 48.0232 32.2505C47.8674 32.078 47.4962 32.1013 47.2244 32.0349C47.2443 32.2936 47.2195 32.5655 47.2907 32.8093C47.8426 34.7128 48.4242 36.608 48.9711 38.5116C49.0838 38.9046 49.107 39.3274 49.1435 39.7386C49.4318 42.9321 47.9917 44.975 44.8911 45.7841C44.6773 45.8405 44.4652 45.9466 44.2514 45.9483C42.76 45.9549 42.286 46.8918 41.9098 48.1735C41.2072 50.5628 40.1383 52.7997 38.6402 54.8209C36.577 57.6049 33.8145 58.6926 30.4156 58.4141C27.5255 58.177 24.7762 57.3894 22.1081 56.3232C17.1034 54.3218 12.2628 51.9839 7.9723 48.6693C5.82459 47.0095 4.0746 45.0031 3.37361 42.2705C2.74719 39.8298 3.09686 37.4487 3.84093 35.1041C3.91716 34.8637 4.29003 34.7161 4.52535 34.5254C4.6281 34.7824 4.82696 35.0411 4.81867 35.2931C4.79216 36.0907 4.70267 36.8883 4.61153 37.6825C4.25523 40.7898 5.16834 43.4445 7.36577 45.678C9.36268 47.7076 11.7126 49.2264 14.2 50.5612C18.5601 52.8991 22.9947 55.0531 27.8552 56.164C28.7667 56.3729 29.6997 56.5188 30.6294 56.6034C33.6222 56.8737 35.9274 55.708 37.6061 53.2125C39.376 50.5827 40.3637 47.6379 41.1542 44.6118C41.4823 43.3583 41.7855 42.0931 41.9944 40.8164C42.7069 36.4671 41.2436 33.3183 37.3343 31.2639C35.7998 30.4581 34.0597 29.9672 32.3578 29.5726C30.9127 29.2377 29.4229 29.4681 28.5894 30.9439C27.7558 32.4196 28.0375 33.8755 29.0136 35.2086C30.1256 36.7274 31.6982 37.4471 33.5013 37.7389C34.0167 37.8218 34.547 37.8218 35.0607 37.9163C35.2678 37.9544 35.4485 38.1418 35.6407 38.2612C35.4833 38.4585 35.3523 38.7901 35.1618 38.8316C34.4923 38.9725 33.788 38.9543 33.1201 39.1035C31.5706 39.4501 29.9681 39.6922 28.5098 40.2808C25.8268 41.3619 24.1199 43.5291 22.8323 46.0511C22.5307 46.6397 22.2473 47.2433 21.8844 47.7921C21.7485 47.9977 21.4055 48.0657 21.1569 48.1967C21.084 47.9447 20.9033 47.6661 20.958 47.4456C21.1304 46.7541 21.3325 46.0577 21.6325 45.4144C21.9391 44.7544 21.78 44.4427 21.1387 44.1442C18.7656 43.0399 16.3792 41.9538 14.0674 40.7285C11.7192 39.4832 9.77201 37.7356 8.40648 35.4159C7.50995 33.892 7.4884 32.282 8.0419 30.6272C8.90033 28.0637 10.304 25.8551 12.2528 23.988C12.3522 23.8919 12.5064 23.8073 12.5345 23.6912C12.6423 23.2469 12.7085 22.7942 12.7897 22.3432C12.3788 22.3432 11.9065 22.2105 11.5651 22.3647C9.9543 23.0926 8.78101 24.3611 7.87453 25.8252C7.17022 26.9627 6.67472 28.2312 6.09305 29.4449C5.97871 29.682 5.89087 29.9324 5.7235 30.342L5.73013 30.3387ZM14.7436 29.886C14.8082 29.8976 14.8745 29.9109 14.9391 29.9225C14.9391 30.2524 14.9109 30.5874 14.9441 30.914C15.1645 33.0945 17.0421 34.9068 19.0208 34.8637C20.2023 34.8388 20.7128 34.2933 20.9646 33.1558C21.3988 31.1992 21.7916 29.2095 22.4893 27.3408C23.2483 25.3112 24.2939 23.3828 25.2932 21.4494C26.0539 19.977 26.5013 18.4797 26.0754 16.8365C25.7125 15.4304 24.8706 14.4273 23.4073 14.0774C22.002 13.7408 21.0127 14.4472 20.204 15.4785C19.798 15.9975 19.3704 16.5331 19.1152 17.13C17.9602 19.8377 16.7803 22.5422 15.781 25.3079C15.254 26.7671 15.0767 28.3522 14.7419 29.881L14.7436 29.886ZM31.7413 27.6475C32.2087 27.5364 32.9445 28.0919 33.2577 27.1335C33.6338 25.9811 34.189 24.8785 34.4674 23.7062C34.6845 22.7925 34.7607 21.7811 34.6116 20.8592C34.3912 19.4962 33.5195 18.5229 32.1391 18.1332C30.8763 17.7767 29.8787 18.2924 29.0302 19.1927C28.8031 19.4332 28.5413 19.6603 28.3855 19.9439C27.0896 22.3067 25.7539 24.6513 24.5541 27.0639C23.5697 29.0437 22.8721 31.1429 22.7113 33.3813C22.5986 34.9333 23.0378 36.2913 24.2194 37.3244C25.1225 38.1136 26.1748 38.5978 27.4144 38.2347C28.3656 37.9561 28.5181 37.3774 27.9099 36.6114C27.6531 36.288 27.3945 35.9581 27.1924 35.6016C26.1533 33.766 25.9909 31.8708 27.0465 30.0054C28.0475 28.2395 29.708 27.626 31.7397 27.6475H31.7413Z" fill="#5B5758"/>
<path d="M111.984 31.0293H116.537V40.4979C116.537 41.117 116.573 41.1534 116.974 41.1534C117.411 41.1534 117.447 41.117 117.447 40.4979V31.0293H121.999V40.4979C121.999 41.5176 121.963 42.9743 119.45 43.4842V55.7934H114.898V43.557C112.021 43.0836 111.984 41.554 111.984 40.4979V31.0293Z" fill="#5B5758"/>
<path d="M103.358 31.0293H105.726H107.911H110.278L112.536 55.7934H107.838L107.437 48.2549H106.163L105.798 55.7934H101.101L103.358 31.0293ZM106.818 35.9093L106.418 43.7027H107.219L106.818 35.9093Z" fill="#5B5758"/>
<path d="M90.6494 31.0293H95.2016H95.7115C100.664 31.0293 100.664 31.0293 100.664 36.237V50.5856C100.664 55.7934 100.664 55.7934 95.7115 55.7934H95.2016H90.6494V31.0293ZM95.7115 35.5815H95.2016V51.2412H95.7115C96.1121 51.2412 96.1121 51.2412 96.1121 50.5856V36.237C96.1121 35.5815 96.1121 35.5815 95.7115 35.5815Z" fill="#5B5758"/>
<path d="M85.0378 31.0293C89.9906 31.0293 89.9906 31.0293 89.9906 36.237V50.5856C89.9906 55.7934 89.9906 55.7934 85.0378 55.7934C80.085 55.7934 80.085 55.7934 80.085 50.5856V36.237C80.085 31.0293 80.085 31.0293 85.0378 31.0293ZM85.0378 35.5815C84.6372 35.5815 84.6372 35.5815 84.6372 36.237V50.5856C84.6372 51.2412 84.6372 51.2412 85.0378 51.2412C85.4384 51.2412 85.4384 51.2412 85.4384 50.5856V36.237C85.4384 35.5815 85.4384 35.5815 85.0378 35.5815Z" fill="#5B5758"/>
<path d="M69.626 31.0293H79.6409V35.5815H76.9095V55.7934H72.3573V35.5815H69.626V31.0293Z" fill="#5B5758"/>
<path d="M102.919 2.66309H107.471H111.623V7.21531H107.471V12.7508H111.331V17.303H107.471V22.8749H111.623V27.4272H107.471H102.919V2.66309Z" fill="#5B5758"/>
<path d="M92.25 2.66309H96.8022V12.7508H97.3121C97.7127 12.7508 97.7127 12.7508 97.7127 12.1317V2.66309H102.265V12.1317C102.265 13.0786 102.265 14.3896 100.262 15.0087C102.265 15.4821 102.265 16.6111 102.265 17.9585V27.4272H97.7127V17.9585C97.7127 17.303 97.7127 17.303 97.3121 17.303H96.8022V27.4272H92.25V2.66309Z" fill="#5B5758"/>
<path d="M82.5528 2.66309H84.92H87.105H89.4722L91.7301 27.4272H87.0322L86.6316 19.8887H85.357L84.9928 27.4272H80.2949L82.5528 2.66309ZM86.0125 7.54307L85.6119 15.3365H86.4131L86.0125 7.54307Z" fill="#5B5758"/>
<path d="M69.8447 2.66309H74.3969H74.9068C79.8596 2.66309 79.8596 2.66309 79.8596 7.87083V12.1317C79.8596 13.0786 79.8596 14.3896 77.8566 15.0087C79.8596 15.4821 79.8596 16.6111 79.8596 17.9585V22.2194C79.8596 27.4272 79.8596 27.4272 74.9068 27.4272H74.3969H69.8447V2.66309ZM74.9068 7.21531H74.3969V12.7508H74.9068C75.3074 12.7508 75.3074 12.7508 75.3074 12.1317V7.87083C75.3074 7.21531 75.3074 7.21531 74.9068 7.21531ZM74.3969 17.303V22.8749H74.9068C75.3074 22.8749 75.3074 22.8749 75.3074 22.2194V17.9585C75.3074 17.303 75.3074 17.303 74.9068 17.303H74.3969Z" fill="#5B5758"/>
</svg>
