<svg width="271" height="289" viewBox="0 0 271 289" fill="none" xmlns="http://www.w3.org/2000/svg">
<path d="M64.1467 0L69.0663 14.0013C72.2412 23.0374 68.5345 31.2247 59.1854 34.5097L51.8492 37.0873C42.5001 40.3723 34.4421 36.3186 31.2671 27.2826L30.3712 24.7328L4.02366 33.9904L0 22.5388L64.1467 0ZM56.7188 15.4752L41.8228 20.7091L42.7187 23.2589C43.8189 26.3902 45.2758 26.5316 47.8255 25.6357L55.1617 23.0581C57.6667 22.1779 58.7149 21.1563 57.6147 18.025L56.7188 15.4752Z" fill="#5B5758"/>
<path d="M80.0304 43.5997L88.1866 59.7182L30.9452 97.1852L25.4863 86.3972L32.3139 81.9327L29.06 75.5023L21.4189 78.3591L15.9387 67.5288L80.0304 43.5997ZM59.4972 64.1391L40.4897 71.2066L42.5234 75.2256L59.4972 64.1391Z" fill="#5B5758"/>
<path d="M105.993 91.3876L106.524 92.1735C111.856 100.072 110.343 108.931 102.131 114.476L99.4586 116.28L92.6665 106.221L95.3386 104.416C97.5392 102.931 98.3211 101.716 96.4639 98.9655L95.9332 98.1796C94.076 95.4289 92.6574 95.7003 90.4568 97.186L87.7847 98.9902C80.0828 104.19 86.8448 124.797 75.174 132.677L72.5019 134.481C64.2892 140.026 55.5066 138.118 50.1738 130.22L49.6432 129.434C44.2838 121.496 45.8232 112.676 54.036 107.131L56.7081 105.327L63.5001 115.387L60.8281 117.191C58.6275 118.677 57.8456 119.891 59.7028 122.642L60.2334 123.428C62.0906 126.178 63.5093 125.907 65.7098 124.421L68.3819 122.617C76.857 116.952 70.2277 96.5421 80.9927 88.9305L83.6648 87.1264C91.8775 81.5813 100.634 83.4499 105.993 91.3876Z" fill="#5B5758"/>
<path d="M122.518 116.537L144.133 141.473L134.961 149.423L128.129 141.541L85.9244 178.125L77.9741 168.954L120.178 132.37L113.346 124.488L122.518 116.537Z" fill="#5B5758"/>
<path d="M152.787 151.931L163.854 161.817C170.997 168.198 171.703 177.158 165.101 184.548L159.921 190.347C155.657 195.12 150.419 196.926 145.327 195.937L131.676 224.242L122.624 216.156L135.253 189.99L135.147 189.896L116.542 210.723L107.49 202.636L152.787 151.931ZM153.752 169.069L143.234 180.844L145.249 182.644C147.724 184.855 149.068 184.276 150.869 182.26L156.049 176.461C157.818 174.481 158.243 173.081 155.768 170.869L153.752 169.069Z" fill="#5B5758"/>
<path d="M186.876 182.825L196.785 189.835L157.518 245.341L147.609 238.331L186.876 182.825Z" fill="#5B5758"/>
<path d="M207.595 197.878L234.295 211.996L228.622 222.726L212.652 214.282L205.272 228.24L218.936 235.465L213.262 246.195L199.598 238.97L192.218 252.928L208.187 261.372L202.514 272.102L175.814 257.984L207.595 197.878Z" fill="#5B5758"/>
<path d="M258.727 222.858L259.624 223.165C268.642 226.247 272.779 234.226 269.574 243.603L268.531 246.653L257.046 242.727L258.088 239.676C258.947 237.164 258.838 235.724 255.698 234.65L254.8 234.344C251.66 233.27 250.692 234.342 249.833 236.855L248.79 239.905C245.785 248.699 263.608 261.055 259.053 274.38L258.01 277.431C254.805 286.807 246.65 290.584 237.632 287.501L236.734 287.194C227.672 284.096 223.579 276.133 226.784 266.757L227.827 263.706L239.313 267.632L238.27 270.683C237.411 273.195 237.52 274.635 240.66 275.709L241.558 276.016C244.698 277.089 245.666 276.017 246.525 273.505L247.568 270.454C250.91 260.823 233.311 248.544 237.305 235.979L238.348 232.929C241.553 223.552 249.664 219.76 258.727 222.858Z" fill="#5B5758"/>
</svg>
