<svg width="38" height="38" viewBox="0 0 38 38" fill="none" xmlns="http://www.w3.org/2000/svg">
<path fill-rule="evenodd" clip-rule="evenodd" d="M12.4588 10.9016C12.4588 9.24946 13.1151 7.66496 14.2833 6.4967C15.4516 5.32844 17.0361 4.67212 18.6883 4.67212C20.3404 4.67212 21.9249 5.32844 23.0932 6.4967C24.2615 7.66496 24.9178 9.24946 24.9178 10.9016C24.9178 12.5538 24.2615 14.1383 23.0932 15.3066C21.9249 16.4748 20.3404 17.1311 18.6883 17.1311C17.0361 17.1311 15.4516 16.4748 14.2833 15.3066C13.1151 14.1383 12.4588 12.5538 12.4588 10.9016ZM12.4588 20.2459C10.3935 20.2459 8.41293 21.0663 6.9526 22.5266C5.49228 23.9869 4.67188 25.9676 4.67188 28.0328C4.67188 29.2719 5.16412 30.4603 6.04031 31.3365C6.91651 32.2127 8.10488 32.7049 9.34401 32.7049H28.0325C29.2717 32.7049 30.46 32.2127 31.3362 31.3365C32.2124 30.4603 32.7047 29.2719 32.7047 28.0328C32.7047 25.9676 31.8843 23.9869 30.4239 22.5266C28.9636 21.0663 26.983 20.2459 24.9178 20.2459H12.4588Z" fill="#2E422C"/>
</svg>
