<svg width="81" height="81" viewBox="0 0 81 81" fill="none" xmlns="http://www.w3.org/2000/svg">
<rect width="81" height="81" rx="40.5" fill="#FFFDF4"/>
<path d="M40.4999 43.5528L29.8161 54.2366C29.4164 54.6363 28.9077 54.8362 28.2899 54.8362C27.6721 54.8362 27.1634 54.6363 26.7637 54.2366C26.3639 53.8368 26.1641 53.3281 26.1641 52.7103C26.1641 52.0925 26.3639 51.5838 26.7637 51.1841L37.4474 40.5004L26.7637 29.8166C26.3639 29.4169 26.1641 28.9082 26.1641 28.2904C26.1641 27.6726 26.3639 27.1639 26.7637 26.7641C27.1634 26.3644 27.6721 26.1646 28.2899 26.1646C28.9077 26.1646 29.4164 26.3644 29.8161 26.7641L40.4999 37.4479L51.1836 26.7641C51.5833 26.3644 52.0921 26.1646 52.7098 26.1646C53.3276 26.1646 53.8363 26.3644 54.2361 26.7641C54.6358 27.1639 54.8357 27.6726 54.8357 28.2904C54.8357 28.9082 54.6358 29.4169 54.2361 29.8166L43.5524 40.5004L54.2361 51.1841C54.6358 51.5838 54.8357 52.0925 54.8357 52.7103C54.8357 53.3281 54.6358 53.8368 54.2361 54.2366C53.8363 54.6363 53.3276 54.8362 52.7098 54.8362C52.0921 54.8362 51.5833 54.6363 51.1836 54.2366L40.4999 43.5528Z" fill="#2E422C"/>
</svg>
